<?xml version="1.0" encoding="UTF-8" standalone="no"?>
<!DOCTYPE svg PUBLIC "-//W3C//DTD SVG 1.1//EN"
 "http://www.w3.org/Graphics/SVG/1.1/DTD/svg11.dtd">
<!-- Generated by graphviz version 2.43.0 (0)
 -->
<!-- Title: G Pages: 1 -->
<svg width="334pt" height="238pt"
 viewBox="0.00 0.00 333.58 237.85" xmlns="http://www.w3.org/2000/svg" xmlns:xlink="http://www.w3.org/1999/xlink">
<g id="graph0" class="graph" transform="scale(1 1) rotate(0) translate(4 233.85)">
<title>G</title><style>.edge>path:hover{stroke-width:8}</style>
<polygon fill="white" stroke="transparent" points="-4,4 -4,-233.85 329.58,-233.85 329.58,4 -4,4"/>
<!-- TestModel_ELV_py -->
<g id="node1" class="node">
<title>TestModel_ELV_py</title><style>.edge>path:hover{stroke-width:8}</style>
<ellipse fill="#a65959" stroke="black" cx="148.72" cy="-21.21" rx="63.78" ry="21.43"/>
<text text-anchor="middle" x="148.72" y="-24.21" font-family="Helvetica,sans-Serif" font-size="10.00" fill="#ffffff">TestModel_ELV.</text>
<text text-anchor="middle" x="148.72" y="-13.21" font-family="Helvetica,sans-Serif" font-size="10.00" fill="#ffffff">py</text>
</g>
<!-- futuram -->
<g id="node2" class="node">
<title>futuram</title><style>.edge>path:hover{stroke-width:8}</style>
<ellipse fill="#38a8a8" stroke="black" cx="148.72" cy="-133.43" rx="32.93" ry="18"/>
<text text-anchor="middle" x="148.72" y="-130.93" font-family="Helvetica,sans-Serif" font-size="10.00" fill="#000000">futuram</text>
</g>
<!-- futuram&#45;&gt;TestModel_ELV_py -->
<g id="edge1" class="edge">
<title>futuram&#45;&gt;TestModel_ELV_py</title><style>.edge>path:hover{stroke-width:8}</style>
<path fill="none" stroke="black" d="M148.72,-115.21C148.72,-98.58 148.72,-73.03 148.72,-52.92"/>
<polygon fill="#38a8a8" stroke="black" points="152.22,-52.69 148.72,-42.69 145.22,-52.69 152.22,-52.69"/>
</g>
<!-- futuram_classes -->
<g id="node3" class="node">
<title>futuram_classes</title><style>.edge>path:hover{stroke-width:8}</style>
<ellipse fill="#53b6b6" stroke="black" cx="41.72" cy="-208.64" rx="41.94" ry="21.43"/>
<text text-anchor="middle" x="41.72" y="-211.64" font-family="Helvetica,sans-Serif" font-size="10.00" fill="#000000">futuram.</text>
<text text-anchor="middle" x="41.72" y="-200.64" font-family="Helvetica,sans-Serif" font-size="10.00" fill="#000000">classes</text>
</g>
<!-- futuram_classes&#45;&gt;futuram -->
<g id="edge2" class="edge">
<title>futuram_classes&#45;&gt;futuram</title><style>.edge>path:hover{stroke-width:8}</style>
<path fill="none" stroke="black" d="M65.73,-191.21C81.89,-180.15 103.27,-165.52 120.29,-153.88"/>
<polygon fill="#53b6b6" stroke="black" points="122.46,-156.64 128.73,-148.1 118.5,-150.86 122.46,-156.64"/>
</g>
<!-- futuram_utils -->
<g id="node4" class="node">
<title>futuram_utils</title><style>.edge>path:hover{stroke-width:8}</style>
<ellipse fill="#53b6b6" stroke="black" cx="148.72" cy="-208.64" rx="47.19" ry="18"/>
<text text-anchor="middle" x="148.72" y="-206.14" font-family="Helvetica,sans-Serif" font-size="10.00" fill="#000000">futuram.utils</text>
</g>
<!-- futuram_utils&#45;&gt;futuram -->
<g id="edge3" class="edge">
<title>futuram_utils&#45;&gt;futuram</title><style>.edge>path:hover{stroke-width:8}</style>
<path fill="none" stroke="black" d="M148.72,-190.29C148.72,-181.81 148.72,-171.4 148.72,-161.88"/>
<polygon fill="#53b6b6" stroke="black" points="152.22,-161.65 148.72,-151.65 145.22,-161.65 152.22,-161.65"/>
</g>
<!-- futuram_visualisation -->
<g id="node5" class="node">
<title>futuram_visualisation</title><style>.edge>path:hover{stroke-width:8}</style>
<ellipse fill="#53b6b6" stroke="black" cx="269.72" cy="-208.64" rx="55.72" ry="21.43"/>
<text text-anchor="middle" x="269.72" y="-211.64" font-family="Helvetica,sans-Serif" font-size="10.00" fill="#000000">futuram.</text>
<text text-anchor="middle" x="269.72" y="-200.64" font-family="Helvetica,sans-Serif" font-size="10.00" fill="#000000">visualisation</text>
</g>
<!-- futuram_visualisation&#45;&gt;futuram -->
<g id="edge4" class="edge">
<title>futuram_visualisation&#45;&gt;futuram</title><style>.edge>path:hover{stroke-width:8}</style>
<path fill="none" stroke="black" d="M241.04,-190.29C222.22,-178.9 197.65,-164.03 178.59,-152.5"/>
<polygon fill="#53b6b6" stroke="black" points="180.36,-149.48 170,-147.3 176.74,-155.47 180.36,-149.48"/>
</g>
</g>
</svg>
