<?xml version="1.0" encoding="UTF-8" standalone="no"?>
<!DOCTYPE svg PUBLIC "-//W3C//DTD SVG 1.1//EN"
 "http://www.w3.org/Graphics/SVG/1.1/DTD/svg11.dtd">
<!-- Generated by graphviz version 2.43.0 (0)
 -->
<!-- Title: %3 Pages: 1 -->
<svg width="490pt" height="96pt"
 viewBox="0.00 0.00 490.00 96.00" xmlns="http://www.w3.org/2000/svg" xmlns:xlink="http://www.w3.org/1999/xlink">
<g id="graph0" class="graph" transform="scale(1 1) rotate(0) translate(4 92)">
<title>%3</title>
<polygon fill="white" stroke="transparent" points="-4,4 -4,-92 486,-92 486,4 -4,4"/>
<text text-anchor="middle" x="241" y="-68" font-family="Cabin" font-size="20.00">Flowchart (isolated) for: collection_ICE</text>
<text text-anchor="middle" x="241" y="-46" font-family="Cabin" font-size="20.00">&#45;&#45;&#45;&#45;&#45;&#45;&#45;&#45;&#45;&#45;&#45;</text>
<!-- collection_ICE -->
<g id="node1" class="node">
<title>collection_ICE</title>
<polygon fill="#e066ff" stroke="black" points="293,-36 193,-36 193,0 293,0 293,-36"/>
<text text-anchor="middle" x="243" y="-14.3" font-family="Cabin" font-size="14.00">collection_ICE</text>
</g>
<!-- dismantling_ICE -->
<g id="node3" class="node">
<title>dismantling_ICE</title>
<polygon fill="#ffa07a" stroke="black" points="482,-36 397,-36 397,0 482,0 482,-36"/>
<text text-anchor="middle" x="439.5" y="-15.5" font-family="Cabin" font-size="10.00">dismantling_ICE</text>
</g>
<!-- collection_ICE&#45;&gt;dismantling_ICE -->
<g id="edge2" class="edge">
<title>collection_ICE&#45;&gt;dismantling_ICE</title>
<path fill="none" stroke="black" d="M293.08,-18C321.55,-18 357.38,-18 386.35,-18"/>
<polygon fill="black" stroke="black" points="386.69,-21.5 396.69,-18 386.69,-14.5 386.69,-21.5"/>
<text text-anchor="middle" x="345" y="-27.2" font-family="Cabin" font-size="6.00">Composition: ELV_ICE</text>
<text text-anchor="middle" x="345" y="-20.2" font-family="Cabin" font-size="6.00">Amount: 0.00e+00 kg</text>
</g>
<!-- PutOnMarket_ICE -->
<g id="node2" class="node">
<title>PutOnMarket_ICE</title>
<polygon fill="darkturquoise" stroke="black" points="92,-36 0,-36 0,0 92,0 92,-36"/>
<text text-anchor="middle" x="46" y="-15.5" font-family="Cabin" font-size="10.00">PutOnMarket_ICE</text>
</g>
<!-- PutOnMarket_ICE&#45;&gt;collection_ICE -->
<g id="edge1" class="edge">
<title>PutOnMarket_ICE&#45;&gt;collection_ICE</title>
<path fill="none" stroke="black" d="M92.23,-18C119.2,-18 153.75,-18 182.87,-18"/>
<polygon fill="black" stroke="black" points="182.92,-21.5 192.92,-18 182.92,-14.5 182.92,-21.5"/>
<text text-anchor="middle" x="142.5" y="-27.2" font-family="Cabin" font-size="6.00">Composition: ELV_ICE</text>
<text text-anchor="middle" x="142.5" y="-20.2" font-family="Cabin" font-size="6.00">Amount: 1.00e+06 kg</text>
</g>
</g>
</svg>
