<?xml version="1.0" encoding="UTF-8" standalone="no"?>
<!DOCTYPE svg PUBLIC "-//W3C//DTD SVG 1.1//EN"
 "http://www.w3.org/Graphics/SVG/1.1/DTD/svg11.dtd">
<!-- Generated by graphviz version 2.43.0 (0)
 -->
<!-- Title: %3 Pages: 1 -->
<svg width="575pt" height="649pt"
 viewBox="0.00 0.00 575.00 649.00" xmlns="http://www.w3.org/2000/svg" xmlns:xlink="http://www.w3.org/1999/xlink">
<g id="graph0" class="graph" transform="scale(1 1) rotate(0) translate(4 645)">
<title>%3</title>
<polygon fill="white" stroke="transparent" points="-4,4 -4,-645 571,-645 571,4 -4,4"/>
<text text-anchor="middle" x="283.5" y="-621" font-family="Cabin" font-size="20.00">Flowchart (isolated) for: dismantling_ICE</text>
<text text-anchor="middle" x="283.5" y="-599" font-family="Cabin" font-size="20.00">&#45;&#45;&#45;&#45;&#45;&#45;&#45;&#45;&#45;&#45;&#45;</text>
<!-- dismantling_ICE -->
<g id="node1" class="node">
<title>dismantling_ICE</title>
<polygon fill="#e066ff" stroke="black" points="292,-312 180,-312 180,-276 292,-276 292,-312"/>
<text text-anchor="middle" x="236" y="-290.3" font-family="Cabin" font-size="14.00">dismantling_ICE</text>
</g>
<!-- market_reuse_ELVcomponents -->
<g id="node3" class="node">
<title>market_reuse_ELVcomponents</title>
<polygon fill="#ffa07a" stroke="black" points="567,-589 418,-589 418,-553 567,-553 567,-589"/>
<text text-anchor="middle" x="492.5" y="-568.5" font-family="Cabin" font-size="10.00">market_reuse_ELVcomponents</text>
</g>
<!-- dismantling_ICE&#45;&gt;market_reuse_ELVcomponents -->
<g id="edge2" class="edge">
<title>dismantling_ICE&#45;&gt;market_reuse_ELVcomponents</title>
<path fill="none" stroke="black" d="M240.54,-312.07C248.24,-347.27 269.53,-425.89 314,-475 344.89,-509.12 390.82,-533.5 428.22,-549.15"/>
<polygon fill="black" stroke="black" points="426.94,-552.41 437.53,-552.94 429.59,-545.93 426.94,-552.41"/>
<text text-anchor="middle" x="355" y="-541.2" font-family="Cabin" font-size="6.00">Composition: ELV_ICE_parts</text>
<text text-anchor="middle" x="355" y="-534.2" font-family="Cabin" font-size="6.00">Amount: 0.00e+00 kg</text>
</g>
<!-- shredding_batt -->
<g id="node4" class="node">
<title>shredding_batt</title>
<polygon fill="#ffa07a" stroke="black" points="532.5,-510 452.5,-510 452.5,-474 532.5,-474 532.5,-510"/>
<text text-anchor="middle" x="492.5" y="-489.5" font-family="Cabin" font-size="10.00">shredding_batt</text>
</g>
<!-- dismantling_ICE&#45;&gt;shredding_batt -->
<g id="edge3" class="edge">
<title>dismantling_ICE&#45;&gt;shredding_batt</title>
<path fill="none" stroke="black" d="M246.29,-312.1C258.97,-335.37 283.62,-375.87 314,-402 352.4,-435.02 405.01,-459.74 442.98,-474.83"/>
<polygon fill="black" stroke="black" points="441.71,-478.09 452.3,-478.46 444.25,-471.57 441.71,-478.09"/>
<text text-anchor="middle" x="355" y="-460.2" font-family="Cabin" font-size="6.00">Composition: ELV_ICE_batt</text>
<text text-anchor="middle" x="355" y="-453.2" font-family="Cabin" font-size="6.00">Amount: 0.00e+00 kg</text>
</g>
<!-- hammermill_body -->
<g id="node5" class="node">
<title>hammermill_body</title>
<polygon fill="#ffa07a" stroke="black" points="540,-431 445,-431 445,-395 540,-395 540,-431"/>
<text text-anchor="middle" x="492.5" y="-410.5" font-family="Cabin" font-size="10.00">hammermill_body</text>
</g>
<!-- dismantling_ICE&#45;&gt;hammermill_body -->
<g id="edge4" class="edge">
<title>dismantling_ICE&#45;&gt;hammermill_body</title>
<path fill="none" stroke="black" d="M263.41,-312.08C277.97,-321.63 296.58,-333.17 314,-342 353.38,-361.95 399.75,-380.33 435.21,-393.39"/>
<polygon fill="black" stroke="black" points="434.32,-396.79 444.92,-396.93 436.72,-390.22 434.32,-396.79"/>
<text text-anchor="middle" x="355" y="-387.2" font-family="Cabin" font-size="6.00">Composition: ELV_ICE_body</text>
<text text-anchor="middle" x="355" y="-380.2" font-family="Cabin" font-size="6.00">Amount: 0.00e+00 kg</text>
</g>
<!-- smelter_cc -->
<g id="node6" class="node">
<title>smelter_cc</title>
<polygon fill="#ffa07a" stroke="black" points="524.5,-352 460.5,-352 460.5,-316 524.5,-316 524.5,-352"/>
<text text-anchor="middle" x="492.5" y="-331.5" font-family="Cabin" font-size="10.00">smelter_cc</text>
</g>
<!-- dismantling_ICE&#45;&gt;smelter_cc -->
<g id="edge5" class="edge">
<title>dismantling_ICE&#45;&gt;smelter_cc</title>
<path fill="none" stroke="black" d="M292.22,-302.68C339.76,-310.15 407.3,-320.77 450.26,-327.52"/>
<polygon fill="black" stroke="black" points="449.93,-331.01 460.36,-329.11 451.02,-324.09 449.93,-331.01"/>
<text text-anchor="middle" x="355" y="-327.2" font-family="Cabin" font-size="6.00">Composition: ELV_ICE_catconv</text>
<text text-anchor="middle" x="355" y="-320.2" font-family="Cabin" font-size="6.00">Amount: 0.00e+00 kg</text>
</g>
<!-- shredding_elec -->
<g id="node7" class="node">
<title>shredding_elec</title>
<polygon fill="#ffa07a" stroke="black" points="533,-273 452,-273 452,-237 533,-237 533,-273"/>
<text text-anchor="middle" x="492.5" y="-252.5" font-family="Cabin" font-size="10.00">shredding_elec</text>
</g>
<!-- dismantling_ICE&#45;&gt;shredding_elec -->
<g id="edge6" class="edge">
<title>dismantling_ICE&#45;&gt;shredding_elec</title>
<path fill="none" stroke="black" d="M282.03,-275.94C292.38,-272.42 303.45,-269.16 314,-267 356.55,-258.27 405.91,-255.51 441.76,-254.8"/>
<polygon fill="black" stroke="black" points="442.02,-258.29 451.96,-254.64 441.91,-251.29 442.02,-258.29"/>
<text text-anchor="middle" x="355" y="-276.2" font-family="Cabin" font-size="6.00">Composition: ELV_ICE_elec</text>
<text text-anchor="middle" x="355" y="-269.2" font-family="Cabin" font-size="6.00">Amount: 0.00e+00 kg</text>
</g>
<!-- shredding_engtrans -->
<g id="node8" class="node">
<title>shredding_engtrans</title>
<polygon fill="#ffa07a" stroke="black" points="542.5,-194 442.5,-194 442.5,-158 542.5,-158 542.5,-194"/>
<text text-anchor="middle" x="492.5" y="-173.5" font-family="Cabin" font-size="10.00">shredding_engtrans</text>
</g>
<!-- dismantling_ICE&#45;&gt;shredding_engtrans -->
<g id="edge7" class="edge">
<title>dismantling_ICE&#45;&gt;shredding_engtrans</title>
<path fill="none" stroke="black" d="M256.26,-275.9C271.09,-262.77 292.6,-245.38 314,-234 351.41,-214.1 396.89,-199.4 432.45,-189.78"/>
<polygon fill="black" stroke="black" points="433.43,-193.14 442.2,-187.2 431.64,-186.37 433.43,-193.14"/>
<text text-anchor="middle" x="355" y="-243.2" font-family="Cabin" font-size="6.00">Composition: ELV_ICE_engtrans</text>
<text text-anchor="middle" x="355" y="-236.2" font-family="Cabin" font-size="6.00">Amount: 0.00e+00 kg</text>
</g>
<!-- market_waste_oil -->
<g id="node9" class="node">
<title>market_waste_oil</title>
<polygon fill="#ffa07a" stroke="black" points="538.5,-115 446.5,-115 446.5,-79 538.5,-79 538.5,-115"/>
<text text-anchor="middle" x="492.5" y="-94.5" font-family="Cabin" font-size="10.00">market_waste_oil</text>
</g>
<!-- dismantling_ICE&#45;&gt;market_waste_oil -->
<g id="edge8" class="edge">
<title>dismantling_ICE&#45;&gt;market_waste_oil</title>
<path fill="none" stroke="black" d="M245.17,-275.61C257.1,-250.59 281.46,-205.77 314,-178 349.83,-147.42 399.12,-126.16 436.66,-113.12"/>
<polygon fill="black" stroke="black" points="438.08,-116.34 446.43,-109.82 435.84,-109.71 438.08,-116.34"/>
<text text-anchor="middle" x="355" y="-187.2" font-family="Cabin" font-size="6.00">Composition: ELV_ICE_liquids</text>
<text text-anchor="middle" x="355" y="-180.2" font-family="Cabin" font-size="6.00">Amount: 0.00e+00 kg</text>
</g>
<!-- shredding_tyre -->
<g id="node10" class="node">
<title>shredding_tyre</title>
<polygon fill="#ffa07a" stroke="black" points="532.5,-36 452.5,-36 452.5,0 532.5,0 532.5,-36"/>
<text text-anchor="middle" x="492.5" y="-15.5" font-family="Cabin" font-size="10.00">shredding_tyre</text>
</g>
<!-- dismantling_ICE&#45;&gt;shredding_tyre -->
<g id="edge9" class="edge">
<title>dismantling_ICE&#45;&gt;shredding_tyre</title>
<path fill="none" stroke="black" d="M240,-275.92C246.89,-239.5 267.02,-156.47 314,-106 348.89,-68.52 403.23,-44.87 442.6,-31.64"/>
<polygon fill="black" stroke="black" points="443.84,-34.92 452.27,-28.5 441.68,-28.26 443.84,-34.92"/>
<text text-anchor="middle" x="355" y="-115.2" font-family="Cabin" font-size="6.00">Composition: ELV_ICE_tyres</text>
<text text-anchor="middle" x="355" y="-108.2" font-family="Cabin" font-size="6.00">Amount: 0.00e+00 kg</text>
</g>
<!-- collection_ICE -->
<g id="node2" class="node">
<title>collection_ICE</title>
<polygon fill="darkturquoise" stroke="black" points="76,-312 0,-312 0,-276 76,-276 76,-312"/>
<text text-anchor="middle" x="38" y="-291.5" font-family="Cabin" font-size="10.00">collection_ICE</text>
</g>
<!-- collection_ICE&#45;&gt;dismantling_ICE -->
<g id="edge1" class="edge">
<title>collection_ICE&#45;&gt;dismantling_ICE</title>
<path fill="none" stroke="black" d="M76.33,-294C102.57,-294 138.39,-294 169.35,-294"/>
<polygon fill="black" stroke="black" points="169.64,-297.5 179.64,-294 169.64,-290.5 169.64,-297.5"/>
<text text-anchor="middle" x="128" y="-303.2" font-family="Cabin" font-size="6.00">Composition: ELV_ICE</text>
<text text-anchor="middle" x="128" y="-296.2" font-family="Cabin" font-size="6.00">Amount: 0.00e+00 kg</text>
</g>
</g>
</svg>
