<?xml version="1.0" encoding="UTF-8" standalone="no"?>
<!DOCTYPE svg PUBLIC "-//W3C//DTD SVG 1.1//EN"
 "http://www.w3.org/Graphics/SVG/1.1/DTD/svg11.dtd">
<!-- Generated by graphviz version 2.43.0 (0)
 -->
<!-- Title: %3 Pages: 1 -->
<svg width="578pt" height="254pt"
 viewBox="0.00 0.00 578.00 254.00" xmlns="http://www.w3.org/2000/svg" xmlns:xlink="http://www.w3.org/1999/xlink">
<g id="graph0" class="graph" transform="scale(1 1) rotate(0) translate(4 250)">
<title>%3</title>
<polygon fill="white" stroke="transparent" points="-4,4 -4,-250 574,-250 574,4 -4,4"/>
<text text-anchor="middle" x="285" y="-226" font-family="Cabin" font-size="20.00">Flowchart (isolated) for: hammermill_body</text>
<text text-anchor="middle" x="285" y="-204" font-family="Cabin" font-size="20.00">&#45;&#45;&#45;&#45;&#45;&#45;&#45;&#45;&#45;&#45;&#45;</text>
<!-- hammermill_body -->
<g id="node1" class="node">
<title>hammermill_body</title>
<polygon fill="#e066ff" stroke="black" points="326,-115 201,-115 201,-79 326,-79 326,-115"/>
<text text-anchor="middle" x="263.5" y="-93.3" font-family="Cabin" font-size="14.00">hammermill_body</text>
</g>
<!-- smelter_ferrous -->
<g id="node3" class="node">
<title>smelter_ferrous</title>
<polygon fill="#ffa07a" stroke="black" points="562,-194 478,-194 478,-158 562,-158 562,-194"/>
<text text-anchor="middle" x="520" y="-173.5" font-family="Cabin" font-size="10.00">smelter_ferrous</text>
</g>
<!-- hammermill_body&#45;&gt;smelter_ferrous -->
<g id="edge2" class="edge">
<title>hammermill_body&#45;&gt;smelter_ferrous</title>
<path fill="none" stroke="black" d="M322.57,-115.03C366.44,-128.64 426.07,-147.15 468.08,-160.19"/>
<polygon fill="black" stroke="black" points="467.24,-163.6 477.83,-163.22 469.32,-156.91 467.24,-163.6"/>
<text text-anchor="middle" x="398" y="-161.2" font-family="Cabin" font-size="6.00">Composition: ELV_ICE_fe</text>
<text text-anchor="middle" x="398" y="-154.2" font-family="Cabin" font-size="6.00">Amount: 0.00e+00 kg</text>
</g>
<!-- smelter_nonferrous -->
<g id="node4" class="node">
<title>smelter_nonferrous</title>
<polygon fill="#ffa07a" stroke="black" points="570,-115 470,-115 470,-79 570,-79 570,-115"/>
<text text-anchor="middle" x="520" y="-94.5" font-family="Cabin" font-size="10.00">smelter_nonferrous</text>
</g>
<!-- hammermill_body&#45;&gt;smelter_nonferrous -->
<g id="edge3" class="edge">
<title>hammermill_body&#45;&gt;smelter_nonferrous</title>
<path fill="none" stroke="black" d="M326.11,-97C366.71,-97 419.58,-97 459.7,-97"/>
<polygon fill="black" stroke="black" points="459.87,-100.5 469.87,-97 459.87,-93.5 459.87,-100.5"/>
<text text-anchor="middle" x="398" y="-106.2" font-family="Cabin" font-size="6.00">Composition: ELV_ICE_nfe</text>
<text text-anchor="middle" x="398" y="-99.2" font-family="Cabin" font-size="6.00">Amount: 0.00e+00 kg</text>
</g>
<!-- market_waste -->
<g id="node5" class="node">
<title>market_waste</title>
<polygon fill="#ffa07a" stroke="black" points="558.5,-36 481.5,-36 481.5,0 558.5,0 558.5,-36"/>
<text text-anchor="middle" x="520" y="-15.5" font-family="Cabin" font-size="10.00">market_waste</text>
</g>
<!-- hammermill_body&#45;&gt;market_waste -->
<g id="edge4" class="edge">
<title>hammermill_body&#45;&gt;market_waste</title>
<path fill="none" stroke="black" d="M322.57,-78.97C367.66,-64.98 429.4,-45.81 471.55,-32.73"/>
<polygon fill="black" stroke="black" points="472.78,-36.01 481.3,-29.7 470.71,-29.33 472.78,-36.01"/>
<text text-anchor="middle" x="398" y="-79.2" font-family="Cabin" font-size="6.00">Composition: ELV_ICE_waste_shredder</text>
<text text-anchor="middle" x="398" y="-72.2" font-family="Cabin" font-size="6.00">Amount: 0.00e+00 kg</text>
</g>
<!-- dismantling_ICE -->
<g id="node2" class="node">
<title>dismantling_ICE</title>
<polygon fill="darkturquoise" stroke="black" points="85,-115 0,-115 0,-79 85,-79 85,-115"/>
<text text-anchor="middle" x="42.5" y="-94.5" font-family="Cabin" font-size="10.00">dismantling_ICE</text>
</g>
<!-- dismantling_ICE&#45;&gt;hammermill_body -->
<g id="edge1" class="edge">
<title>dismantling_ICE&#45;&gt;hammermill_body</title>
<path fill="none" stroke="black" d="M85.21,-97C114.91,-97 155.6,-97 190.5,-97"/>
<polygon fill="black" stroke="black" points="190.65,-100.5 200.65,-97 190.65,-93.5 190.65,-100.5"/>
<text text-anchor="middle" x="143" y="-106.2" font-family="Cabin" font-size="6.00">Composition: ELV_ICE_body</text>
<text text-anchor="middle" x="143" y="-99.2" font-family="Cabin" font-size="6.00">Amount: 0.00e+00 kg</text>
</g>
</g>
</svg>
