<?xml version="1.0" encoding="UTF-8" standalone="no"?>
<!DOCTYPE svg PUBLIC "-//W3C//DTD SVG 1.1//EN"
 "http://www.w3.org/Graphics/SVG/1.1/DTD/svg11.dtd">
<!-- Generated by graphviz version 2.43.0 (0)
 -->
<!-- Title: %3 Pages: 1 -->
<svg width="412pt" height="175pt"
 viewBox="0.00 0.00 412.00 175.00" xmlns="http://www.w3.org/2000/svg" xmlns:xlink="http://www.w3.org/1999/xlink">
<g id="graph0" class="graph" transform="scale(1 1) rotate(0) translate(4 171)">
<title>%3</title>
<polygon fill="white" stroke="transparent" points="-4,4 -4,-171 408,-171 408,4 -4,4"/>
<text text-anchor="middle" x="202" y="-147" font-family="Cabin" font-size="20.00">Flowchart (isolated) for: market_waste_plastic</text>
<text text-anchor="middle" x="202" y="-125" font-family="Cabin" font-size="20.00">&#45;&#45;&#45;&#45;&#45;&#45;&#45;&#45;&#45;&#45;&#45;</text>
<!-- market_waste_plastic -->
<g id="node1" class="node">
<title>market_waste_plastic</title>
<polygon fill="#e066ff" stroke="black" points="370,-75 224,-75 224,-39 370,-39 370,-75"/>
<text text-anchor="middle" x="297" y="-53.3" font-family="Cabin" font-size="14.00">market_waste_plastic</text>
</g>
<!-- shredding_batt -->
<g id="node2" class="node">
<title>shredding_batt</title>
<polygon fill="darkturquoise" stroke="black" points="114.5,-115 34.5,-115 34.5,-79 114.5,-79 114.5,-115"/>
<text text-anchor="middle" x="74.5" y="-94.5" font-family="Cabin" font-size="10.00">shredding_batt</text>
</g>
<!-- shredding_batt&#45;&gt;market_waste_plastic -->
<g id="edge1" class="edge">
<title>shredding_batt&#45;&gt;market_waste_plastic</title>
<path fill="none" stroke="black" d="M114.67,-89.89C142.15,-84.91 179.91,-78.06 213.86,-71.9"/>
<polygon fill="black" stroke="black" points="214.57,-75.33 223.78,-70.1 213.32,-68.44 214.57,-75.33"/>
<text text-anchor="middle" x="169.5" y="-94.2" font-family="Cabin" font-size="6.00">Composition: ALL_plastic</text>
<text text-anchor="middle" x="169.5" y="-87.2" font-family="Cabin" font-size="6.00">Amount: 0.00e+00 kg</text>
</g>
<!-- shredding_elec -->
<g id="node3" class="node">
<title>shredding_elec</title>
<polygon fill="darkturquoise" stroke="black" points="115,-36 34,-36 34,0 115,0 115,-36"/>
<text text-anchor="middle" x="74.5" y="-15.5" font-family="Cabin" font-size="10.00">shredding_elec</text>
</g>
<!-- shredding_elec&#45;&gt;market_waste_plastic -->
<g id="edge2" class="edge">
<title>shredding_elec&#45;&gt;market_waste_plastic</title>
<path fill="none" stroke="black" d="M115.08,-19.87C140.15,-21.52 173.17,-24.54 202,-30 211,-31.71 220.39,-33.89 229.6,-36.28"/>
<polygon fill="black" stroke="black" points="228.93,-39.72 239.49,-38.94 230.74,-32.96 228.93,-39.72"/>
<text text-anchor="middle" x="169.5" y="-39.2" font-family="Cabin" font-size="6.00">Composition: ALL_plastic</text>
<text text-anchor="middle" x="169.5" y="-32.2" font-family="Cabin" font-size="6.00">Amount: 0.00e+00 kg</text>
</g>
</g>
</svg>
