<?xml version="1.0" encoding="UTF-8" standalone="no"?>
<!DOCTYPE svg PUBLIC "-//W3C//DTD SVG 1.1//EN"
 "http://www.w3.org/Graphics/SVG/1.1/DTD/svg11.dtd">
<!-- Generated by graphviz version 2.43.0 (0)
 -->
<!-- Title: %3 Pages: 1 -->
<svg width="399pt" height="96pt"
 viewBox="0.00 0.00 399.00 96.00" xmlns="http://www.w3.org/2000/svg" xmlns:xlink="http://www.w3.org/1999/xlink">
<g id="graph0" class="graph" transform="scale(1 1) rotate(0) translate(4 92)">
<title>%3</title>
<polygon fill="white" stroke="transparent" points="-4,4 -4,-92 395,-92 395,4 -4,4"/>
<text text-anchor="middle" x="195.5" y="-68" font-family="Cabin" font-size="20.00">Flowchart (isolated) for: market_waste_glass</text>
<text text-anchor="middle" x="195.5" y="-46" font-family="Cabin" font-size="20.00">&#45;&#45;&#45;&#45;&#45;&#45;&#45;&#45;&#45;&#45;&#45;</text>
<!-- market_waste_glass -->
<g id="node1" class="node">
<title>market_waste_glass</title>
<polygon fill="#e066ff" stroke="black" points="366.5,-36 229.5,-36 229.5,0 366.5,0 366.5,-36"/>
<text text-anchor="middle" x="298" y="-14.3" font-family="Cabin" font-size="14.00">market_waste_glass</text>
</g>
<!-- shredding_engtrans -->
<g id="node2" class="node">
<title>shredding_engtrans</title>
<polygon fill="darkturquoise" stroke="black" points="124.5,-36 24.5,-36 24.5,0 124.5,0 124.5,-36"/>
<text text-anchor="middle" x="74.5" y="-15.5" font-family="Cabin" font-size="10.00">shredding_engtrans</text>
</g>
<!-- shredding_engtrans&#45;&gt;market_waste_glass -->
<g id="edge1" class="edge">
<title>shredding_engtrans&#45;&gt;market_waste_glass</title>
<path fill="none" stroke="black" d="M124.66,-18C152.49,-18 187.93,-18 219.43,-18"/>
<polygon fill="black" stroke="black" points="219.5,-21.5 229.5,-18 219.5,-14.5 219.5,-21.5"/>
<text text-anchor="middle" x="177" y="-27.2" font-family="Cabin" font-size="6.00">Composition: ALL_glass</text>
<text text-anchor="middle" x="177" y="-20.2" font-family="Cabin" font-size="6.00">Amount: 0.00e+00 kg</text>
</g>
</g>
</svg>
