<?xml version="1.0" encoding="UTF-8" standalone="no"?>
<!DOCTYPE svg PUBLIC "-//W3C//DTD SVG 1.1//EN"
 "http://www.w3.org/Graphics/SVG/1.1/DTD/svg11.dtd">
<!-- Generated by graphviz version 2.43.0 (0)
 -->
<!-- Title: %3 Pages: 1 -->
<svg width="334pt" height="96pt"
 viewBox="0.00 0.00 334.00 96.00" xmlns="http://www.w3.org/2000/svg" xmlns:xlink="http://www.w3.org/1999/xlink">
<g id="graph0" class="graph" transform="scale(1 1) rotate(0) translate(4 92)">
<title>%3</title>
<polygon fill="white" stroke="transparent" points="-4,4 -4,-92 330,-92 330,4 -4,4"/>
<text text-anchor="middle" x="163" y="-68" font-family="Cabin" font-size="20.00">Flowchart (isolated) for: market_lead</text>
<text text-anchor="middle" x="163" y="-46" font-family="Cabin" font-size="20.00">&#45;&#45;&#45;&#45;&#45;&#45;&#45;&#45;&#45;&#45;&#45;</text>
<!-- market_lead -->
<g id="node1" class="node">
<title>market_lead</title>
<polygon fill="#e066ff" stroke="black" points="300.5,-36 209.5,-36 209.5,0 300.5,0 300.5,-36"/>
<text text-anchor="middle" x="255" y="-14.3" font-family="Cabin" font-size="14.00">market_lead</text>
</g>
<!-- shredding_batt -->
<g id="node2" class="node">
<title>shredding_batt</title>
<polygon fill="darkturquoise" stroke="black" points="105.5,-36 25.5,-36 25.5,0 105.5,0 105.5,-36"/>
<text text-anchor="middle" x="65.5" y="-15.5" font-family="Cabin" font-size="10.00">shredding_batt</text>
</g>
<!-- shredding_batt&#45;&gt;market_lead -->
<g id="edge1" class="edge">
<title>shredding_batt&#45;&gt;market_lead</title>
<path fill="none" stroke="black" d="M105.81,-18C132.89,-18 169.26,-18 199.19,-18"/>
<polygon fill="black" stroke="black" points="199.49,-21.5 209.49,-18 199.49,-14.5 199.49,-21.5"/>
<text text-anchor="middle" x="157.5" y="-27.2" font-family="Cabin" font-size="6.00">Composition: Pb</text>
<text text-anchor="middle" x="157.5" y="-20.2" font-family="Cabin" font-size="6.00">Amount: 0.00e+00 kg</text>
</g>
</g>
</svg>
