<?xml version="1.0" encoding="UTF-8" standalone="no"?>
<!DOCTYPE svg PUBLIC "-//W3C//DTD SVG 1.1//EN"
 "http://www.w3.org/Graphics/SVG/1.1/DTD/svg11.dtd">
<!-- Generated by graphviz version 2.43.0 (0)
 -->
<!-- Title: %3 Pages: 1 -->
<svg width="361pt" height="96pt"
 viewBox="0.00 0.00 361.00 96.00" xmlns="http://www.w3.org/2000/svg" xmlns:xlink="http://www.w3.org/1999/xlink">
<g id="graph0" class="graph" transform="scale(1 1) rotate(0) translate(4 92)">
<title>%3</title>
<polygon fill="white" stroke="transparent" points="-4,4 -4,-92 357,-92 357,4 -4,4"/>
<text text-anchor="middle" x="176.5" y="-68" font-family="Cabin" font-size="20.00">Flowchart (isolated) for: market_H2SO4</text>
<text text-anchor="middle" x="176.5" y="-46" font-family="Cabin" font-size="20.00">&#45;&#45;&#45;&#45;&#45;&#45;&#45;&#45;&#45;&#45;&#45;</text>
<!-- market_H2SO4 -->
<g id="node1" class="node">
<title>market_H2SO4</title>
<polygon fill="#e066ff" stroke="black" points="323.5,-36 213.5,-36 213.5,0 323.5,0 323.5,-36"/>
<text text-anchor="middle" x="268.5" y="-14.3" font-family="Cabin" font-size="14.00">market_H2SO4</text>
</g>
<!-- shredding_batt -->
<g id="node2" class="node">
<title>shredding_batt</title>
<polygon fill="darkturquoise" stroke="black" points="109.5,-36 29.5,-36 29.5,0 109.5,0 109.5,-36"/>
<text text-anchor="middle" x="69.5" y="-15.5" font-family="Cabin" font-size="10.00">shredding_batt</text>
</g>
<!-- shredding_batt&#45;&gt;market_H2SO4 -->
<g id="edge1" class="edge">
<title>shredding_batt&#45;&gt;market_H2SO4</title>
<path fill="none" stroke="black" d="M109.89,-18C136.52,-18 172.31,-18 203.04,-18"/>
<polygon fill="black" stroke="black" points="203.25,-21.5 213.25,-18 203.25,-14.5 203.25,-21.5"/>
<text text-anchor="middle" x="161.5" y="-27.2" font-family="Cabin" font-size="6.00">Composition: H2SO4</text>
<text text-anchor="middle" x="161.5" y="-20.2" font-family="Cabin" font-size="6.00">Amount: 0.00e+00 kg</text>
</g>
</g>
</svg>
