<?xml version="1.0" encoding="UTF-8" standalone="no"?>
<!DOCTYPE svg PUBLIC "-//W3C//DTD SVG 1.1//EN"
 "http://www.w3.org/Graphics/SVG/1.1/DTD/svg11.dtd">
<!-- Generated by graphviz version 2.43.0 (0)
 -->
<!-- Title: %3 Pages: 1 -->
<svg width="379pt" height="96pt"
 viewBox="0.00 0.00 379.00 96.00" xmlns="http://www.w3.org/2000/svg" xmlns:xlink="http://www.w3.org/1999/xlink">
<g id="graph0" class="graph" transform="scale(1 1) rotate(0) translate(4 92)">
<title>%3</title>
<polygon fill="white" stroke="transparent" points="-4,4 -4,-92 375,-92 375,4 -4,4"/>
<text text-anchor="middle" x="185.5" y="-68" font-family="Cabin" font-size="20.00">Flowchart (isolated) for: market_waste_oil</text>
<text text-anchor="middle" x="185.5" y="-46" font-family="Cabin" font-size="20.00">&#45;&#45;&#45;&#45;&#45;&#45;&#45;&#45;&#45;&#45;&#45;</text>
<!-- market_waste_oil -->
<g id="node1" class="node">
<title>market_waste_oil</title>
<polygon fill="#e066ff" stroke="black" points="349,-36 227,-36 227,0 349,0 349,-36"/>
<text text-anchor="middle" x="288" y="-14.3" font-family="Cabin" font-size="14.00">market_waste_oil</text>
</g>
<!-- dismantling_ICE -->
<g id="node2" class="node">
<title>dismantling_ICE</title>
<polygon fill="darkturquoise" stroke="black" points="107,-36 22,-36 22,0 107,0 107,-36"/>
<text text-anchor="middle" x="64.5" y="-15.5" font-family="Cabin" font-size="10.00">dismantling_ICE</text>
</g>
<!-- dismantling_ICE&#45;&gt;market_waste_oil -->
<g id="edge1" class="edge">
<title>dismantling_ICE&#45;&gt;market_waste_oil</title>
<path fill="none" stroke="black" d="M107.16,-18C137.84,-18 180.31,-18 216.26,-18"/>
<polygon fill="black" stroke="black" points="216.71,-21.5 226.71,-18 216.71,-14.5 216.71,-21.5"/>
<text text-anchor="middle" x="167" y="-27.2" font-family="Cabin" font-size="6.00">Composition: ELV_ICE_liquids</text>
<text text-anchor="middle" x="167" y="-20.2" font-family="Cabin" font-size="6.00">Amount: 0.00e+00 kg</text>
</g>
</g>
</svg>
