<?xml version="1.0" encoding="UTF-8" standalone="no"?>
<!DOCTYPE svg PUBLIC "-//W3C//DTD SVG 1.1//EN"
 "http://www.w3.org/Graphics/SVG/1.1/DTD/svg11.dtd">
<!-- Generated by graphviz version 2.43.0 (0)
 -->
<!-- Title: %3 Pages: 1 -->
<svg width="325pt" height="96pt"
 viewBox="0.00 0.00 325.00 96.00" xmlns="http://www.w3.org/2000/svg" xmlns:xlink="http://www.w3.org/1999/xlink">
<g id="graph0" class="graph" transform="scale(1 1) rotate(0) translate(4 92)">
<title>%3</title>
<polygon fill="white" stroke="transparent" points="-4,4 -4,-92 321,-92 321,4 -4,4"/>
<text text-anchor="middle" x="158.5" y="-68" font-family="Cabin" font-size="20.00">Flowchart (isolated) for: market_ree</text>
<text text-anchor="middle" x="158.5" y="-46" font-family="Cabin" font-size="20.00">&#45;&#45;&#45;&#45;&#45;&#45;&#45;&#45;&#45;&#45;&#45;</text>
<!-- market_ree -->
<g id="node1" class="node">
<title>market_ree</title>
<polygon fill="#e066ff" stroke="black" points="289,-36 203,-36 203,0 289,0 289,-36"/>
<text text-anchor="middle" x="246" y="-14.3" font-family="Cabin" font-size="14.00">market_ree</text>
</g>
<!-- smelter_cc -->
<g id="node2" class="node">
<title>smelter_cc</title>
<polygon fill="darkturquoise" stroke="black" points="92,-36 28,-36 28,0 92,0 92,-36"/>
<text text-anchor="middle" x="60" y="-15.5" font-family="Cabin" font-size="10.00">smelter_cc</text>
</g>
<!-- smelter_cc&#45;&gt;market_ree -->
<g id="edge1" class="edge">
<title>smelter_cc&#45;&gt;market_ree</title>
<path fill="none" stroke="black" d="M92.21,-18C119.69,-18 160.26,-18 192.69,-18"/>
<polygon fill="black" stroke="black" points="192.91,-21.5 202.91,-18 192.91,-14.5 192.91,-21.5"/>
<text text-anchor="middle" x="147.5" y="-27.2" font-family="Cabin" font-size="6.00">Composition: ELV_ICE_ree</text>
<text text-anchor="middle" x="147.5" y="-20.2" font-family="Cabin" font-size="6.00">Amount: 0.00e+00 kg</text>
</g>
</g>
</svg>
