<?xml version="1.0" encoding="UTF-8" standalone="no"?>
<!DOCTYPE svg PUBLIC "-//W3C//DTD SVG 1.1//EN"
 "http://www.w3.org/Graphics/SVG/1.1/DTD/svg11.dtd">
<!-- Generated by graphviz version 2.43.0 (0)
 -->
<!-- Title: %3 Pages: 1 -->
<svg width="353pt" height="175pt"
 viewBox="0.00 0.00 353.00 175.00" xmlns="http://www.w3.org/2000/svg" xmlns:xlink="http://www.w3.org/1999/xlink">
<g id="graph0" class="graph" transform="scale(1 1) rotate(0) translate(4 171)">
<title>%3</title>
<polygon fill="white" stroke="transparent" points="-4,4 -4,-171 349,-171 349,4 -4,4"/>
<text text-anchor="middle" x="172.5" y="-147" font-family="Cabin" font-size="20.00">Flowchart (isolated) for: market_waste</text>
<text text-anchor="middle" x="172.5" y="-125" font-family="Cabin" font-size="20.00">&#45;&#45;&#45;&#45;&#45;&#45;&#45;&#45;&#45;&#45;&#45;</text>
<!-- market_waste -->
<g id="node1" class="node">
<title>market_waste</title>
<polygon fill="#e066ff" stroke="black" points="345,-75 244,-75 244,-39 345,-39 345,-75"/>
<text text-anchor="middle" x="294.5" y="-53.3" font-family="Cabin" font-size="14.00">market_waste</text>
</g>
<!-- hammermill_body -->
<g id="node2" class="node">
<title>hammermill_body</title>
<polygon fill="darkturquoise" stroke="black" points="97.5,-115 2.5,-115 2.5,-79 97.5,-79 97.5,-115"/>
<text text-anchor="middle" x="50" y="-94.5" font-family="Cabin" font-size="10.00">hammermill_body</text>
</g>
<!-- hammermill_body&#45;&gt;market_waste -->
<g id="edge1" class="edge">
<title>hammermill_body&#45;&gt;market_waste</title>
<path fill="none" stroke="black" d="M97.76,-89.29C136.54,-82.89 191.92,-73.76 233.88,-66.83"/>
<polygon fill="black" stroke="black" points="234.67,-70.25 243.97,-65.17 233.53,-63.34 234.67,-70.25"/>
<text text-anchor="middle" x="172" y="-94.2" font-family="Cabin" font-size="6.00">Composition: ELV_ICE_waste_shredder</text>
<text text-anchor="middle" x="172" y="-87.2" font-family="Cabin" font-size="6.00">Amount: 0.00e+00 kg</text>
</g>
<!-- shredding_engtrans -->
<g id="node3" class="node">
<title>shredding_engtrans</title>
<polygon fill="darkturquoise" stroke="black" points="100,-36 0,-36 0,0 100,0 100,-36"/>
<text text-anchor="middle" x="50" y="-15.5" font-family="Cabin" font-size="10.00">shredding_engtrans</text>
</g>
<!-- shredding_engtrans&#45;&gt;market_waste -->
<g id="edge2" class="edge">
<title>shredding_engtrans&#45;&gt;market_waste</title>
<path fill="none" stroke="black" d="M100.18,-17.68C134.65,-18.37 181.59,-21.15 222,-30 228.62,-31.45 235.44,-33.39 242.12,-35.58"/>
<polygon fill="black" stroke="black" points="241.18,-38.96 251.77,-38.93 243.47,-32.34 241.18,-38.96"/>
<text text-anchor="middle" x="172" y="-39.2" font-family="Cabin" font-size="6.00">Composition: ELV_ICE_waste_shredder</text>
<text text-anchor="middle" x="172" y="-32.2" font-family="Cabin" font-size="6.00">Amount: 0.00e+00 kg</text>
</g>
</g>
</svg>
