<?xml version="1.0" encoding="UTF-8" standalone="no"?>
<!DOCTYPE svg PUBLIC "-//W3C//DTD SVG 1.1//EN"
 "http://www.w3.org/Graphics/SVG/1.1/DTD/svg11.dtd">
<!-- Generated by graphviz version 2.43.0 (0)
 -->
<!-- Title: %3 Pages: 1 -->
<svg width="358pt" height="96pt"
 viewBox="0.00 0.00 358.00 96.00" xmlns="http://www.w3.org/2000/svg" xmlns:xlink="http://www.w3.org/1999/xlink">
<g id="graph0" class="graph" transform="scale(1 1) rotate(0) translate(4 92)">
<title>%3</title>
<polygon fill="white" stroke="transparent" points="-4,4 -4,-92 354,-92 354,4 -4,4"/>
<text text-anchor="middle" x="175" y="-68" font-family="Cabin" font-size="20.00">Flowchart (isolated) for: market_ferrous</text>
<text text-anchor="middle" x="175" y="-46" font-family="Cabin" font-size="20.00">&#45;&#45;&#45;&#45;&#45;&#45;&#45;&#45;&#45;&#45;&#45;</text>
<!-- market_ferrous -->
<g id="node1" class="node">
<title>market_ferrous</title>
<polygon fill="#e066ff" stroke="black" points="325.5,-36 217.5,-36 217.5,0 325.5,0 325.5,-36"/>
<text text-anchor="middle" x="271.5" y="-14.3" font-family="Cabin" font-size="14.00">market_ferrous</text>
</g>
<!-- smelter_ferrous -->
<g id="node2" class="node">
<title>smelter_ferrous</title>
<polygon fill="darkturquoise" stroke="black" points="108.5,-36 24.5,-36 24.5,0 108.5,0 108.5,-36"/>
<text text-anchor="middle" x="66.5" y="-15.5" font-family="Cabin" font-size="10.00">smelter_ferrous</text>
</g>
<!-- smelter_ferrous&#45;&gt;market_ferrous -->
<g id="edge1" class="edge">
<title>smelter_ferrous&#45;&gt;market_ferrous</title>
<path fill="none" stroke="black" d="M108.58,-18C136.81,-18 174.83,-18 206.94,-18"/>
<polygon fill="black" stroke="black" points="207.14,-21.5 217.14,-18 207.14,-14.5 207.14,-21.5"/>
<text text-anchor="middle" x="163" y="-27.2" font-family="Cabin" font-size="6.00">Composition: ELV_ICE_fe</text>
<text text-anchor="middle" x="163" y="-20.2" font-family="Cabin" font-size="6.00">Amount: 0.00e+00 kg</text>
</g>
</g>
</svg>
