<?xml version="1.0" encoding="UTF-8" standalone="no"?>
<!DOCTYPE svg PUBLIC "-//W3C//DTD SVG 1.1//EN"
 "http://www.w3.org/Graphics/SVG/1.1/DTD/svg11.dtd">
<!-- Generated by graphviz version 2.43.0 (0)
 -->
<!-- Title: %3 Pages: 1 -->
<svg width="404pt" height="99pt"
 viewBox="0.00 0.00 404.00 99.00" xmlns="http://www.w3.org/2000/svg" xmlns:xlink="http://www.w3.org/1999/xlink">
<g id="graph0" class="graph" transform="scale(1 1) rotate(0) translate(4 95)">
<title>%3</title>
<polygon fill="white" stroke="transparent" points="-4,4 -4,-95 400,-95 400,4 -4,4"/>
<text text-anchor="middle" x="198" y="-71" font-family="Cabin" font-size="20.00">Flowchart (isolated) for: market_wasterubber</text>
<text text-anchor="middle" x="198" y="-49" font-family="Cabin" font-size="20.00">&#45;&#45;&#45;&#45;&#45;&#45;&#45;&#45;&#45;&#45;&#45;</text>
<!-- market_wasterubber -->
<g id="node1" class="node">
<title>market_wasterubber</title>
<polygon fill="#e066ff" stroke="black" points="356,-36 216,-36 216,0 356,0 356,-36"/>
<text text-anchor="middle" x="286" y="-14.3" font-family="Cabin" font-size="14.00">market_wasterubber</text>
</g>
<!-- shredding_tyre -->
<g id="node2" class="node">
<title>shredding_tyre</title>
<polygon fill="darkturquoise" stroke="black" points="120,-36 40,-36 40,0 120,0 120,-36"/>
<text text-anchor="middle" x="80" y="-15.5" font-family="Cabin" font-size="10.00">shredding_tyre</text>
</g>
<!-- shredding_tyre&#45;&gt;market_wasterubber -->
<g id="edge1" class="edge">
<title>shredding_tyre&#45;&gt;market_wasterubber</title>
<path fill="none" stroke="black" d="M120.33,-18C144.47,-18 176.24,-18 205.43,-18"/>
<polygon fill="black" stroke="black" points="205.63,-21.5 215.63,-18 205.63,-14.5 205.63,-21.5"/>
<text text-anchor="middle" x="168" y="-34.2" font-family="Cabin" font-size="6.00">Composition: rubber</text>
<text text-anchor="middle" x="168" y="-27.2" font-family="Cabin" font-size="6.00">Amount: None </text>
<text text-anchor="middle" x="168" y="-20.2" font-family="Cabin" font-size="6.00">Unit: None</text>
</g>
</g>
</svg>
