<?xml version="1.0" encoding="UTF-8" standalone="no"?>
<!DOCTYPE svg PUBLIC "-//W3C//DTD SVG 1.1//EN"
 "http://www.w3.org/Graphics/SVG/1.1/DTD/svg11.dtd">
<!-- Generated by graphviz version 2.43.0 (0)
 -->
<!-- Title: %3 Pages: 1 -->
<svg width="494pt" height="96pt"
 viewBox="0.00 0.00 494.00 96.00" xmlns="http://www.w3.org/2000/svg" xmlns:xlink="http://www.w3.org/1999/xlink">
<g id="graph0" class="graph" transform="scale(1 1) rotate(0) translate(4 92)">
<title>%3</title>
<polygon fill="white" stroke="transparent" points="-4,4 -4,-92 490,-92 490,4 -4,4"/>
<text text-anchor="middle" x="243" y="-68" font-family="Cabin" font-size="20.00">Flowchart (isolated) for: market_reuse_ELVcomponents</text>
<text text-anchor="middle" x="243" y="-46" font-family="Cabin" font-size="20.00">&#45;&#45;&#45;&#45;&#45;&#45;&#45;&#45;&#45;&#45;&#45;</text>
<!-- market_reuse_ELVcomponents -->
<g id="node1" class="node">
<title>market_reuse_ELVcomponents</title>
<polygon fill="#e066ff" stroke="black" points="445,-36 243,-36 243,0 445,0 445,-36"/>
<text text-anchor="middle" x="344" y="-14.3" font-family="Cabin" font-size="14.00">market_reuse_ELVcomponents</text>
</g>
<!-- dismantling_ICE -->
<g id="node2" class="node">
<title>dismantling_ICE</title>
<polygon fill="darkturquoise" stroke="black" points="126,-36 41,-36 41,0 126,0 126,-36"/>
<text text-anchor="middle" x="83.5" y="-15.5" font-family="Cabin" font-size="10.00">dismantling_ICE</text>
</g>
<!-- dismantling_ICE&#45;&gt;market_reuse_ELVcomponents -->
<g id="edge1" class="edge">
<title>dismantling_ICE&#45;&gt;market_reuse_ELVcomponents</title>
<path fill="none" stroke="black" d="M126.03,-18C154.99,-18 195.06,-18 232.89,-18"/>
<polygon fill="black" stroke="black" points="232.97,-21.5 242.97,-18 232.97,-14.5 232.97,-21.5"/>
<text text-anchor="middle" x="184.5" y="-27.2" font-family="Cabin" font-size="6.00">Composition: ELV_ICE_parts</text>
<text text-anchor="middle" x="184.5" y="-20.2" font-family="Cabin" font-size="6.00">Amount: 0.00e+00 kg</text>
</g>
</g>
</svg>
