<?xml version="1.0" encoding="UTF-8" standalone="no"?>
<!DOCTYPE svg PUBLIC "-//W3C//DTD SVG 1.1//EN"
 "http://www.w3.org/Graphics/SVG/1.1/DTD/svg11.dtd">
<!-- Generated by graphviz version 2.43.0 (0)
 -->
<!-- Title: %3 Pages: 1 -->
<svg width="391pt" height="96pt"
 viewBox="0.00 0.00 391.00 96.00" xmlns="http://www.w3.org/2000/svg" xmlns:xlink="http://www.w3.org/1999/xlink">
<g id="graph0" class="graph" transform="scale(1 1) rotate(0) translate(4 92)">
<title>%3</title>
<polygon fill="white" stroke="transparent" points="-4,4 -4,-92 387,-92 387,4 -4,4"/>
<text text-anchor="middle" x="191.5" y="-68" font-family="Cabin" font-size="20.00">Flowchart (isolated) for: market_nonferrous</text>
<text text-anchor="middle" x="191.5" y="-46" font-family="Cabin" font-size="20.00">&#45;&#45;&#45;&#45;&#45;&#45;&#45;&#45;&#45;&#45;&#45;</text>
<!-- market_nonferrous -->
<g id="node1" class="node">
<title>market_nonferrous</title>
<polygon fill="#e066ff" stroke="black" points="363,-36 232,-36 232,0 363,0 363,-36"/>
<text text-anchor="middle" x="297.5" y="-14.3" font-family="Cabin" font-size="14.00">market_nonferrous</text>
</g>
<!-- smelter_nonferrous -->
<g id="node2" class="node">
<title>smelter_nonferrous</title>
<polygon fill="darkturquoise" stroke="black" points="120,-36 20,-36 20,0 120,0 120,-36"/>
<text text-anchor="middle" x="70" y="-15.5" font-family="Cabin" font-size="10.00">smelter_nonferrous</text>
</g>
<!-- smelter_nonferrous&#45;&gt;market_nonferrous -->
<g id="edge1" class="edge">
<title>smelter_nonferrous&#45;&gt;market_nonferrous</title>
<path fill="none" stroke="black" d="M120.21,-18C149.92,-18 188.38,-18 221.78,-18"/>
<polygon fill="black" stroke="black" points="221.97,-21.5 231.97,-18 221.97,-14.5 221.97,-21.5"/>
<text text-anchor="middle" x="176" y="-27.2" font-family="Cabin" font-size="6.00">Composition: ELV_ICE_nfe</text>
<text text-anchor="middle" x="176" y="-20.2" font-family="Cabin" font-size="6.00">Amount: 0.00e+00 kg</text>
</g>
</g>
</svg>
