<?xml version="1.0" encoding="UTF-8" standalone="no"?>
<!DOCTYPE svg PUBLIC "-//W3C//DTD SVG 1.1//EN"
 "http://www.w3.org/Graphics/SVG/1.1/DTD/svg11.dtd">
<!-- Generated by graphviz version 2.43.0 (0)
 -->
<!-- Title: %3 Pages: 1 -->
<svg width="415pt" height="96pt"
 viewBox="0.00 0.00 415.00 96.00" xmlns="http://www.w3.org/2000/svg" xmlns:xlink="http://www.w3.org/1999/xlink">
<g id="graph0" class="graph" transform="scale(1 1) rotate(0) translate(4 92)">
<title>%3</title>
<polygon fill="white" stroke="transparent" points="-4,4 -4,-92 411,-92 411,4 -4,4"/>
<text text-anchor="middle" x="203.5" y="-68" font-family="Cabin" font-size="20.00">Flowchart (isolated) for: market_waste_rubber</text>
<text text-anchor="middle" x="203.5" y="-46" font-family="Cabin" font-size="20.00">&#45;&#45;&#45;&#45;&#45;&#45;&#45;&#45;&#45;&#45;&#45;</text>
<!-- market_waste_rubber -->
<g id="node1" class="node">
<title>market_waste_rubber</title>
<polygon fill="#e066ff" stroke="black" points="372,-36 224,-36 224,0 372,0 372,-36"/>
<text text-anchor="middle" x="298" y="-14.3" font-family="Cabin" font-size="14.00">market_waste_rubber</text>
</g>
<!-- shredding_tyre -->
<g id="node2" class="node">
<title>shredding_tyre</title>
<polygon fill="darkturquoise" stroke="black" points="115,-36 35,-36 35,0 115,0 115,-36"/>
<text text-anchor="middle" x="75" y="-15.5" font-family="Cabin" font-size="10.00">shredding_tyre</text>
</g>
<!-- shredding_tyre&#45;&gt;market_waste_rubber -->
<g id="edge1" class="edge">
<title>shredding_tyre&#45;&gt;market_waste_rubber</title>
<path fill="none" stroke="black" d="M115,-18C142.18,-18 179.47,-18 213.22,-18"/>
<polygon fill="black" stroke="black" points="213.56,-21.5 223.56,-18 213.56,-14.5 213.56,-21.5"/>
<text text-anchor="middle" x="169.5" y="-27.2" font-family="Cabin" font-size="6.00">Composition: ALL_rubber</text>
<text text-anchor="middle" x="169.5" y="-20.2" font-family="Cabin" font-size="6.00">Amount: 0.00e+00 kg</text>
</g>
</g>
</svg>
