<?xml version="1.0" encoding="UTF-8" standalone="no"?>
<!DOCTYPE svg PUBLIC "-//W3C//DTD SVG 1.1//EN"
 "http://www.w3.org/Graphics/SVG/1.1/DTD/svg11.dtd">
<!-- Generated by graphviz version 2.43.0 (0)
 -->
<!-- Title: %3 Pages: 1 -->
<svg width="391pt" height="254pt"
 viewBox="0.00 0.00 391.00 254.00" xmlns="http://www.w3.org/2000/svg" xmlns:xlink="http://www.w3.org/1999/xlink">
<g id="graph0" class="graph" transform="scale(1 1) rotate(0) translate(4 250)">
<title>%3</title>
<polygon fill="white" stroke="transparent" points="-4,4 -4,-250 387,-250 387,4 -4,4"/>
<text text-anchor="middle" x="191.5" y="-226" font-family="Cabin" font-size="20.00">Flowchart (isolated) for: market_waste_slag</text>
<text text-anchor="middle" x="191.5" y="-204" font-family="Cabin" font-size="20.00">&#45;&#45;&#45;&#45;&#45;&#45;&#45;&#45;&#45;&#45;&#45;</text>
<!-- market_waste_slag -->
<g id="node1" class="node">
<title>market_waste_slag</title>
<polygon fill="#e066ff" stroke="black" points="370,-115 239,-115 239,-79 370,-79 370,-115"/>
<text text-anchor="middle" x="304.5" y="-93.3" font-family="Cabin" font-size="14.00">market_waste_slag</text>
</g>
<!-- smelter_cc -->
<g id="node2" class="node">
<title>smelter_cc</title>
<polygon fill="darkturquoise" stroke="black" points="95,-194 31,-194 31,-158 95,-158 95,-194"/>
<text text-anchor="middle" x="63" y="-173.5" font-family="Cabin" font-size="10.00">smelter_cc</text>
</g>
<!-- smelter_cc&#45;&gt;market_waste_slag -->
<g id="edge1" class="edge">
<title>smelter_cc&#45;&gt;market_waste_slag</title>
<path fill="none" stroke="black" d="M95.31,-165.67C131.65,-153.68 192.55,-133.6 239.12,-118.24"/>
<polygon fill="black" stroke="black" points="240.42,-121.49 248.82,-115.04 238.23,-114.84 240.42,-121.49"/>
<text text-anchor="middle" x="176" y="-159.2" font-family="Cabin" font-size="6.00">Composition: ALL_slag_ree</text>
<text text-anchor="middle" x="176" y="-152.2" font-family="Cabin" font-size="6.00">Amount: 0.00e+00 kg</text>
</g>
<!-- smelter_ferrous -->
<g id="node3" class="node">
<title>smelter_ferrous</title>
<polygon fill="darkturquoise" stroke="black" points="105,-115 21,-115 21,-79 105,-79 105,-115"/>
<text text-anchor="middle" x="63" y="-94.5" font-family="Cabin" font-size="10.00">smelter_ferrous</text>
</g>
<!-- smelter_ferrous&#45;&gt;market_waste_slag -->
<g id="edge2" class="edge">
<title>smelter_ferrous&#45;&gt;market_waste_slag</title>
<path fill="none" stroke="black" d="M105.17,-97C139.08,-97 188.03,-97 228.82,-97"/>
<polygon fill="black" stroke="black" points="229,-100.5 239,-97 229,-93.5 229,-100.5"/>
<text text-anchor="middle" x="176" y="-106.2" font-family="Cabin" font-size="6.00">Composition: ELV_ICE_slag_fe</text>
<text text-anchor="middle" x="176" y="-99.2" font-family="Cabin" font-size="6.00">Amount: 0.00e+00 kg</text>
</g>
<!-- smelter_nonferrous -->
<g id="node4" class="node">
<title>smelter_nonferrous</title>
<polygon fill="darkturquoise" stroke="black" points="113,-36 13,-36 13,0 113,0 113,-36"/>
<text text-anchor="middle" x="63" y="-15.5" font-family="Cabin" font-size="10.00">smelter_nonferrous</text>
</g>
<!-- smelter_nonferrous&#45;&gt;market_waste_slag -->
<g id="edge3" class="edge">
<title>smelter_nonferrous&#45;&gt;market_waste_slag</title>
<path fill="none" stroke="black" d="M113.04,-34.18C149.46,-46.19 199.46,-62.68 239.09,-75.75"/>
<polygon fill="black" stroke="black" points="238.07,-79.1 248.67,-78.91 240.27,-72.46 238.07,-79.1"/>
<text text-anchor="middle" x="176" y="-75.2" font-family="Cabin" font-size="6.00">Composition: ELV_ICE_slag_nfe</text>
<text text-anchor="middle" x="176" y="-68.2" font-family="Cabin" font-size="6.00">Amount: 0.00e+00 kg</text>
</g>
</g>
</svg>
