<?xml version="1.0" encoding="UTF-8" standalone="no"?>
<!DOCTYPE svg PUBLIC "-//W3C//DTD SVG 1.1//EN"
 "http://www.w3.org/Graphics/SVG/1.1/DTD/svg11.dtd">
<!-- Generated by graphviz version 2.43.0 (0)
 -->
<!-- Title: %3 Pages: 1 -->
<svg width="379pt" height="96pt"
 viewBox="0.00 0.00 379.00 96.00" xmlns="http://www.w3.org/2000/svg" xmlns:xlink="http://www.w3.org/1999/xlink">
<g id="graph0" class="graph" transform="scale(1 1) rotate(0) translate(4 92)">
<title>%3</title>
<polygon fill="white" stroke="transparent" points="-4,4 -4,-92 375,-92 375,4 -4,4"/>
<text text-anchor="middle" x="185.5" y="-68" font-family="Cabin" font-size="20.00">Flowchart (isolated) for: PutOnMarket_ICE</text>
<text text-anchor="middle" x="185.5" y="-46" font-family="Cabin" font-size="20.00">&#45;&#45;&#45;&#45;&#45;&#45;&#45;&#45;&#45;&#45;&#45;</text>
<!-- collection_ICE -->
<g id="node1" class="node">
<title>collection_ICE</title>
<polygon fill="#ffa07a" stroke="black" points="335.5,-36 259.5,-36 259.5,0 335.5,0 335.5,-36"/>
<text text-anchor="middle" x="297.5" y="-15.5" font-family="Cabin" font-size="10.00">collection_ICE</text>
</g>
<!-- PutOnMarket_ICE -->
<g id="node2" class="node">
<title>PutOnMarket_ICE</title>
<polygon fill="#e066ff" stroke="black" points="158.5,-36 35.5,-36 35.5,0 158.5,0 158.5,-36"/>
<text text-anchor="middle" x="97" y="-14.3" font-family="Cabin" font-size="14.00">PutOnMarket_ICE</text>
</g>
<!-- PutOnMarket_ICE&#45;&gt;collection_ICE -->
<g id="edge1" class="edge">
<title>PutOnMarket_ICE&#45;&gt;collection_ICE</title>
<path fill="none" stroke="black" d="M158.64,-18C187.75,-18 222.12,-18 249.26,-18"/>
<polygon fill="black" stroke="black" points="249.28,-21.5 259.28,-18 249.28,-14.5 249.28,-21.5"/>
<text text-anchor="middle" x="209" y="-27.2" font-family="Cabin" font-size="6.00">Composition: ELV_ICE</text>
<text text-anchor="middle" x="209" y="-20.2" font-family="Cabin" font-size="6.00">Amount: 1.00e+06 kg</text>
</g>
</g>
</svg>
