<?xml version="1.0" encoding="UTF-8" standalone="no"?>
<!DOCTYPE svg PUBLIC "-//W3C//DTD SVG 1.1//EN"
 "http://www.w3.org/Graphics/SVG/1.1/DTD/svg11.dtd">
<!-- Generated by graphviz version 2.43.0 (0)
 -->
<!-- Title: %3 Pages: 1 -->
<svg width="535pt" height="175pt"
 viewBox="0.00 0.00 535.00 175.00" xmlns="http://www.w3.org/2000/svg" xmlns:xlink="http://www.w3.org/1999/xlink">
<g id="graph0" class="graph" transform="scale(1 1) rotate(0) translate(4 171)">
<title>%3</title>
<polygon fill="white" stroke="transparent" points="-4,4 -4,-171 531,-171 531,4 -4,4"/>
<text text-anchor="middle" x="263.5" y="-147" font-family="Cabin" font-size="20.00">Flowchart (isolated) for: shredding_elec</text>
<text text-anchor="middle" x="263.5" y="-125" font-family="Cabin" font-size="20.00">&#45;&#45;&#45;&#45;&#45;&#45;&#45;&#45;&#45;&#45;&#45;</text>
<!-- shredding_elec -->
<g id="node1" class="node">
<title>shredding_elec</title>
<polygon fill="#e066ff" stroke="black" points="306,-75 199,-75 199,-39 306,-39 306,-75"/>
<text text-anchor="middle" x="252.5" y="-53.3" font-family="Cabin" font-size="14.00">shredding_elec</text>
</g>
<!-- market_waste_plastic -->
<g id="node3" class="node">
<title>market_waste_plastic</title>
<polygon fill="#ffa07a" stroke="black" points="527,-115 418,-115 418,-79 527,-79 527,-115"/>
<text text-anchor="middle" x="472.5" y="-94.5" font-family="Cabin" font-size="10.00">market_waste_plastic</text>
</g>
<!-- shredding_elec&#45;&gt;market_waste_plastic -->
<g id="edge2" class="edge">
<title>shredding_elec&#45;&gt;market_waste_plastic</title>
<path fill="none" stroke="black" d="M306.27,-66.68C336.74,-72.27 375.29,-79.35 407.49,-85.25"/>
<polygon fill="black" stroke="black" points="407.23,-88.77 417.7,-87.13 408.5,-81.88 407.23,-88.77"/>
<text text-anchor="middle" x="362" y="-91.2" font-family="Cabin" font-size="6.00">Composition: ALL_plastic</text>
<text text-anchor="middle" x="362" y="-84.2" font-family="Cabin" font-size="6.00">Amount: 0.00e+00 kg</text>
</g>
<!-- smelter_nonferrous -->
<g id="node4" class="node">
<title>smelter_nonferrous</title>
<polygon fill="#ffa07a" stroke="black" points="522.5,-36 422.5,-36 422.5,0 522.5,0 522.5,-36"/>
<text text-anchor="middle" x="472.5" y="-15.5" font-family="Cabin" font-size="10.00">smelter_nonferrous</text>
</g>
<!-- shredding_elec&#45;&gt;smelter_nonferrous -->
<g id="edge3" class="edge">
<title>shredding_elec&#45;&gt;smelter_nonferrous</title>
<path fill="none" stroke="black" d="M297.45,-38.9C307.35,-35.44 317.92,-32.21 328,-30 355.27,-24.03 386.06,-20.98 412.1,-19.45"/>
<polygon fill="black" stroke="black" points="412.4,-22.94 422.21,-18.91 412.03,-15.95 412.4,-22.94"/>
<text text-anchor="middle" x="362" y="-39.2" font-family="Cabin" font-size="6.00">Composition: ELV_ICE_nfe</text>
<text text-anchor="middle" x="362" y="-32.2" font-family="Cabin" font-size="6.00">Amount: 0.00e+00 kg</text>
</g>
<!-- dismantling_ICE -->
<g id="node2" class="node">
<title>dismantling_ICE</title>
<polygon fill="darkturquoise" stroke="black" points="85,-75 0,-75 0,-39 85,-39 85,-75"/>
<text text-anchor="middle" x="42.5" y="-54.5" font-family="Cabin" font-size="10.00">dismantling_ICE</text>
</g>
<!-- dismantling_ICE&#45;&gt;shredding_elec -->
<g id="edge1" class="edge">
<title>dismantling_ICE&#45;&gt;shredding_elec</title>
<path fill="none" stroke="black" d="M85.09,-57C114.75,-57 155.14,-57 188.7,-57"/>
<polygon fill="black" stroke="black" points="188.88,-60.5 198.88,-57 188.88,-53.5 188.88,-60.5"/>
<text text-anchor="middle" x="142" y="-66.2" font-family="Cabin" font-size="6.00">Composition: ELV_ICE_elec</text>
<text text-anchor="middle" x="142" y="-59.2" font-family="Cabin" font-size="6.00">Amount: 0.00e+00 kg</text>
</g>
</g>
</svg>
