<?xml version="1.0" encoding="UTF-8" standalone="no"?>
<!DOCTYPE svg PUBLIC "-//W3C//DTD SVG 1.1//EN"
 "http://www.w3.org/Graphics/SVG/1.1/DTD/svg11.dtd">
<!-- Generated by graphviz version 2.43.0 (0)
 -->
<!-- Title: %3 Pages: 1 -->
<svg width="601pt" height="333pt"
 viewBox="0.00 0.00 601.00 333.00" xmlns="http://www.w3.org/2000/svg" xmlns:xlink="http://www.w3.org/1999/xlink">
<g id="graph0" class="graph" transform="scale(1 1) rotate(0) translate(4 329)">
<title>%3</title>
<polygon fill="white" stroke="transparent" points="-4,4 -4,-329 597,-329 597,4 -4,4"/>
<text text-anchor="middle" x="296.5" y="-305" font-family="Cabin" font-size="20.00">Flowchart (isolated) for: shredding_engtrans</text>
<text text-anchor="middle" x="296.5" y="-283" font-family="Cabin" font-size="20.00">&#45;&#45;&#45;&#45;&#45;&#45;&#45;&#45;&#45;&#45;&#45;</text>
<!-- shredding_engtrans -->
<g id="node1" class="node">
<title>shredding_engtrans</title>
<polygon fill="#e066ff" stroke="black" points="345,-154 211,-154 211,-118 345,-118 345,-154"/>
<text text-anchor="middle" x="278" y="-132.3" font-family="Cabin" font-size="14.00">shredding_engtrans</text>
</g>
<!-- market_waste_glass -->
<g id="node3" class="node">
<title>market_waste_glass</title>
<polygon fill="#ffa07a" stroke="black" points="593,-273 489,-273 489,-237 593,-237 593,-273"/>
<text text-anchor="middle" x="541" y="-252.5" font-family="Cabin" font-size="10.00">market_waste_glass</text>
</g>
<!-- shredding_engtrans&#45;&gt;market_waste_glass -->
<g id="edge2" class="edge">
<title>shredding_engtrans&#45;&gt;market_waste_glass</title>
<path fill="none" stroke="black" d="M306.88,-154.07C323.87,-164.68 346.24,-177.93 367,-188 403.27,-205.59 445.42,-221.99 479.03,-234.17"/>
<polygon fill="black" stroke="black" points="478.13,-237.56 488.73,-237.65 480.5,-230.97 478.13,-237.56"/>
<text text-anchor="middle" x="417" y="-237.2" font-family="Cabin" font-size="6.00">Composition: ALL_glass</text>
<text text-anchor="middle" x="417" y="-230.2" font-family="Cabin" font-size="6.00">Amount: 0.00e+00 kg</text>
</g>
<!-- smelter_ferrous -->
<g id="node4" class="node">
<title>smelter_ferrous</title>
<polygon fill="#ffa07a" stroke="black" points="583,-194 499,-194 499,-158 583,-158 583,-194"/>
<text text-anchor="middle" x="541" y="-173.5" font-family="Cabin" font-size="10.00">smelter_ferrous</text>
</g>
<!-- shredding_engtrans&#45;&gt;smelter_ferrous -->
<g id="edge3" class="edge">
<title>shredding_engtrans&#45;&gt;smelter_ferrous</title>
<path fill="none" stroke="black" d="M345.2,-146.15C389.75,-152.97 447.63,-161.84 488.69,-168.14"/>
<polygon fill="black" stroke="black" points="488.34,-171.62 498.75,-169.68 489.4,-164.7 488.34,-171.62"/>
<text text-anchor="middle" x="417" y="-173.2" font-family="Cabin" font-size="6.00">Composition: ELV_ICE_fe</text>
<text text-anchor="middle" x="417" y="-166.2" font-family="Cabin" font-size="6.00">Amount: 0.00e+00 kg</text>
</g>
<!-- smelter_nonferrous -->
<g id="node5" class="node">
<title>smelter_nonferrous</title>
<polygon fill="#ffa07a" stroke="black" points="591,-115 491,-115 491,-79 591,-79 591,-115"/>
<text text-anchor="middle" x="541" y="-94.5" font-family="Cabin" font-size="10.00">smelter_nonferrous</text>
</g>
<!-- shredding_engtrans&#45;&gt;smelter_nonferrous -->
<g id="edge4" class="edge">
<title>shredding_engtrans&#45;&gt;smelter_nonferrous</title>
<path fill="none" stroke="black" d="M331.09,-117.87C342.78,-114.41 355.22,-111.19 367,-109 404.42,-102.06 447.07,-99.04 480.66,-97.77"/>
<polygon fill="black" stroke="black" points="480.9,-101.27 490.78,-97.43 480.67,-94.27 480.9,-101.27"/>
<text text-anchor="middle" x="417" y="-118.2" font-family="Cabin" font-size="6.00">Composition: ELV_ICE_nfe</text>
<text text-anchor="middle" x="417" y="-111.2" font-family="Cabin" font-size="6.00">Amount: 0.00e+00 kg</text>
</g>
<!-- market_waste -->
<g id="node6" class="node">
<title>market_waste</title>
<polygon fill="#ffa07a" stroke="black" points="579.5,-36 502.5,-36 502.5,0 579.5,0 579.5,-36"/>
<text text-anchor="middle" x="541" y="-15.5" font-family="Cabin" font-size="10.00">market_waste</text>
</g>
<!-- shredding_engtrans&#45;&gt;market_waste -->
<g id="edge5" class="edge">
<title>shredding_engtrans&#45;&gt;market_waste</title>
<path fill="none" stroke="black" d="M301.39,-117.77C318.54,-104.5 343.21,-86.85 367,-75 407.45,-54.85 456.64,-39.44 492.22,-29.75"/>
<polygon fill="black" stroke="black" points="493.57,-33.01 502.33,-27.05 491.77,-26.25 493.57,-33.01"/>
<text text-anchor="middle" x="417" y="-84.2" font-family="Cabin" font-size="6.00">Composition: ELV_ICE_waste_shredder</text>
<text text-anchor="middle" x="417" y="-77.2" font-family="Cabin" font-size="6.00">Amount: 0.00e+00 kg</text>
</g>
<!-- dismantling_ICE -->
<g id="node2" class="node">
<title>dismantling_ICE</title>
<polygon fill="darkturquoise" stroke="black" points="85,-154 0,-154 0,-118 85,-118 85,-154"/>
<text text-anchor="middle" x="42.5" y="-133.5" font-family="Cabin" font-size="10.00">dismantling_ICE</text>
</g>
<!-- dismantling_ICE&#45;&gt;shredding_engtrans -->
<g id="edge1" class="edge">
<title>dismantling_ICE&#45;&gt;shredding_engtrans</title>
<path fill="none" stroke="black" d="M85.25,-136C117.28,-136 162.37,-136 200.78,-136"/>
<polygon fill="black" stroke="black" points="200.9,-139.5 210.9,-136 200.9,-132.5 200.9,-139.5"/>
<text text-anchor="middle" x="148" y="-145.2" font-family="Cabin" font-size="6.00">Composition: ELV_ICE_engtrans</text>
<text text-anchor="middle" x="148" y="-138.2" font-family="Cabin" font-size="6.00">Amount: 0.00e+00 kg</text>
</g>
</g>
</svg>
