<?xml version="1.0" encoding="UTF-8" standalone="no"?>
<!DOCTYPE svg PUBLIC "-//W3C//DTD SVG 1.1//EN"
 "http://www.w3.org/Graphics/SVG/1.1/DTD/svg11.dtd">
<!-- Generated by graphviz version 2.43.0 (0)
 -->
<!-- Title: %3 Pages: 1 -->
<svg width="534pt" height="175pt"
 viewBox="0.00 0.00 534.00 175.00" xmlns="http://www.w3.org/2000/svg" xmlns:xlink="http://www.w3.org/1999/xlink">
<g id="graph0" class="graph" transform="scale(1 1) rotate(0) translate(4 171)">
<title>%3</title>
<polygon fill="white" stroke="transparent" points="-4,4 -4,-171 530,-171 530,4 -4,4"/>
<text text-anchor="middle" x="263" y="-147" font-family="Cabin" font-size="20.00">Flowchart (isolated) for: shredding_tyre</text>
<text text-anchor="middle" x="263" y="-125" font-family="Cabin" font-size="20.00">&#45;&#45;&#45;&#45;&#45;&#45;&#45;&#45;&#45;&#45;&#45;</text>
<!-- shredding_tyre -->
<g id="node1" class="node">
<title>shredding_tyre</title>
<polygon fill="#e066ff" stroke="black" points="307,-75 201,-75 201,-39 307,-39 307,-75"/>
<text text-anchor="middle" x="254" y="-53.3" font-family="Cabin" font-size="14.00">shredding_tyre</text>
</g>
<!-- market_waste_rubber -->
<g id="node3" class="node">
<title>market_waste_rubber</title>
<polygon fill="#ffa07a" stroke="black" points="526,-115 416,-115 416,-79 526,-79 526,-115"/>
<text text-anchor="middle" x="471" y="-94.5" font-family="Cabin" font-size="10.00">market_waste_rubber</text>
</g>
<!-- shredding_tyre&#45;&gt;market_waste_rubber -->
<g id="edge2" class="edge">
<title>shredding_tyre&#45;&gt;market_waste_rubber</title>
<path fill="none" stroke="black" d="M307.05,-66.68C336.76,-72.21 374.27,-79.19 405.8,-85.06"/>
<polygon fill="black" stroke="black" points="405.34,-88.53 415.81,-86.92 406.62,-81.65 405.34,-88.53"/>
<text text-anchor="middle" x="361.5" y="-90.2" font-family="Cabin" font-size="6.00">Composition: ALL_rubber</text>
<text text-anchor="middle" x="361.5" y="-83.2" font-family="Cabin" font-size="6.00">Amount: 0.00e+00 kg</text>
</g>
<!-- smelter_ferrous -->
<g id="node4" class="node">
<title>smelter_ferrous</title>
<polygon fill="#ffa07a" stroke="black" points="513,-36 429,-36 429,0 513,0 513,-36"/>
<text text-anchor="middle" x="471" y="-15.5" font-family="Cabin" font-size="10.00">smelter_ferrous</text>
</g>
<!-- shredding_tyre&#45;&gt;smelter_ferrous -->
<g id="edge3" class="edge">
<title>shredding_tyre&#45;&gt;smelter_ferrous</title>
<path fill="none" stroke="black" d="M298.65,-38.91C308.49,-35.45 318.98,-32.21 329,-30 358.36,-23.52 391.86,-20.49 418.85,-19.1"/>
<polygon fill="black" stroke="black" points="419.02,-22.59 428.85,-18.64 418.7,-15.6 419.02,-22.59"/>
<text text-anchor="middle" x="361.5" y="-39.2" font-family="Cabin" font-size="6.00">Composition: ELV_ICE_fe</text>
<text text-anchor="middle" x="361.5" y="-32.2" font-family="Cabin" font-size="6.00">Amount: 0.00e+00 kg</text>
</g>
<!-- dismantling_ICE -->
<g id="node2" class="node">
<title>dismantling_ICE</title>
<polygon fill="darkturquoise" stroke="black" points="85,-75 0,-75 0,-39 85,-39 85,-75"/>
<text text-anchor="middle" x="42.5" y="-54.5" font-family="Cabin" font-size="10.00">dismantling_ICE</text>
</g>
<!-- dismantling_ICE&#45;&gt;shredding_tyre -->
<g id="edge1" class="edge">
<title>dismantling_ICE&#45;&gt;shredding_tyre</title>
<path fill="none" stroke="black" d="M85.14,-57C115.2,-57 156.32,-57 190.34,-57"/>
<polygon fill="black" stroke="black" points="190.65,-60.5 200.65,-57 190.65,-53.5 190.65,-60.5"/>
<text text-anchor="middle" x="143" y="-66.2" font-family="Cabin" font-size="6.00">Composition: ELV_ICE_tyres</text>
<text text-anchor="middle" x="143" y="-59.2" font-family="Cabin" font-size="6.00">Amount: 0.00e+00 kg</text>
</g>
</g>
</svg>
