<?xml version="1.0" encoding="UTF-8" standalone="no"?>
<!DOCTYPE svg PUBLIC "-//W3C//DTD SVG 1.1//EN"
 "http://www.w3.org/Graphics/SVG/1.1/DTD/svg11.dtd">
<!-- Generated by graphviz version 2.43.0 (0)
 -->
<!-- Title: %3 Pages: 1 -->
<svg width="531pt" height="254pt"
 viewBox="0.00 0.00 531.00 254.00" xmlns="http://www.w3.org/2000/svg" xmlns:xlink="http://www.w3.org/1999/xlink">
<g id="graph0" class="graph" transform="scale(1 1) rotate(0) translate(4 250)">
<title>%3</title>
<polygon fill="white" stroke="transparent" points="-4,4 -4,-250 527,-250 527,4 -4,4"/>
<text text-anchor="middle" x="261.5" y="-226" font-family="Cabin" font-size="20.00">Flowchart (isolated) for: shredding_batt</text>
<text text-anchor="middle" x="261.5" y="-204" font-family="Cabin" font-size="20.00">&#45;&#45;&#45;&#45;&#45;&#45;&#45;&#45;&#45;&#45;&#45;</text>
<!-- shredding_batt -->
<g id="node1" class="node">
<title>shredding_batt</title>
<polygon fill="#e066ff" stroke="black" points="305,-115 199,-115 199,-79 305,-79 305,-115"/>
<text text-anchor="middle" x="252" y="-93.3" font-family="Cabin" font-size="14.00">shredding_batt</text>
</g>
<!-- market_waste_plastic -->
<g id="node3" class="node">
<title>market_waste_plastic</title>
<polygon fill="#ffa07a" stroke="black" points="523,-194 414,-194 414,-158 523,-158 523,-194"/>
<text text-anchor="middle" x="468.5" y="-173.5" font-family="Cabin" font-size="10.00">market_waste_plastic</text>
</g>
<!-- shredding_batt&#45;&gt;market_waste_plastic -->
<g id="edge2" class="edge">
<title>shredding_batt&#45;&gt;market_waste_plastic</title>
<path fill="none" stroke="black" d="M301.94,-115.03C333.68,-126.71 375.2,-142.01 408.72,-154.35"/>
<polygon fill="black" stroke="black" points="407.8,-157.74 418.4,-157.92 410.22,-151.18 407.8,-157.74"/>
<text text-anchor="middle" x="359.5" y="-157.2" font-family="Cabin" font-size="6.00">Composition: ALL_plastic</text>
<text text-anchor="middle" x="359.5" y="-150.2" font-family="Cabin" font-size="6.00">Amount: 0.00e+00 kg</text>
</g>
<!-- market_H2SO4 -->
<g id="node4" class="node">
<title>market_H2SO4</title>
<polygon fill="#ffa07a" stroke="black" points="510,-115 427,-115 427,-79 510,-79 510,-115"/>
<text text-anchor="middle" x="468.5" y="-94.5" font-family="Cabin" font-size="10.00">market_H2SO4</text>
</g>
<!-- shredding_batt&#45;&gt;market_H2SO4 -->
<g id="edge3" class="edge">
<title>shredding_batt&#45;&gt;market_H2SO4</title>
<path fill="none" stroke="black" d="M305.2,-97C339.14,-97 383.17,-97 416.8,-97"/>
<polygon fill="black" stroke="black" points="416.89,-100.5 426.89,-97 416.89,-93.5 416.89,-100.5"/>
<text text-anchor="middle" x="359.5" y="-106.2" font-family="Cabin" font-size="6.00">Composition: H2SO4</text>
<text text-anchor="middle" x="359.5" y="-99.2" font-family="Cabin" font-size="6.00">Amount: 0.00e+00 kg</text>
</g>
<!-- market_lead -->
<g id="node5" class="node">
<title>market_lead</title>
<polygon fill="#ffa07a" stroke="black" points="503,-36 434,-36 434,0 503,0 503,-36"/>
<text text-anchor="middle" x="468.5" y="-15.5" font-family="Cabin" font-size="10.00">market_lead</text>
</g>
<!-- shredding_batt&#45;&gt;market_lead -->
<g id="edge4" class="edge">
<title>shredding_batt&#45;&gt;market_lead</title>
<path fill="none" stroke="black" d="M301.94,-78.97C338.79,-65.4 388.82,-46.98 424.22,-33.94"/>
<polygon fill="black" stroke="black" points="425.61,-37.16 433.79,-30.42 423.19,-30.59 425.61,-37.16"/>
<text text-anchor="middle" x="359.5" y="-79.2" font-family="Cabin" font-size="6.00">Composition: Pb</text>
<text text-anchor="middle" x="359.5" y="-72.2" font-family="Cabin" font-size="6.00">Amount: 0.00e+00 kg</text>
</g>
<!-- dismantling_ICE -->
<g id="node2" class="node">
<title>dismantling_ICE</title>
<polygon fill="darkturquoise" stroke="black" points="85,-115 0,-115 0,-79 85,-79 85,-115"/>
<text text-anchor="middle" x="42.5" y="-94.5" font-family="Cabin" font-size="10.00">dismantling_ICE</text>
</g>
<!-- dismantling_ICE&#45;&gt;shredding_batt -->
<g id="edge1" class="edge">
<title>dismantling_ICE&#45;&gt;shredding_batt</title>
<path fill="none" stroke="black" d="M85.49,-97C115.11,-97 155.29,-97 188.64,-97"/>
<polygon fill="black" stroke="black" points="188.76,-100.5 198.76,-97 188.76,-93.5 188.76,-100.5"/>
<text text-anchor="middle" x="142" y="-106.2" font-family="Cabin" font-size="6.00">Composition: ELV_ICE_batt</text>
<text text-anchor="middle" x="142" y="-99.2" font-family="Cabin" font-size="6.00">Amount: 0.00e+00 kg</text>
</g>
</g>
</svg>
