<?xml version="1.0" encoding="UTF-8" standalone="no"?>
<!DOCTYPE svg PUBLIC "-//W3C//DTD SVG 1.1//EN"
 "http://www.w3.org/Graphics/SVG/1.1/DTD/svg11.dtd">
<!-- Generated by graphviz version 2.43.0 (0)
 -->
<!-- Title: %3 Pages: 1 -->
<svg width="551pt" height="254pt"
 viewBox="0.00 0.00 551.00 254.00" xmlns="http://www.w3.org/2000/svg" xmlns:xlink="http://www.w3.org/1999/xlink">
<g id="graph0" class="graph" transform="scale(1 1) rotate(0) translate(4 250)">
<title>%3</title>
<polygon fill="white" stroke="transparent" points="-4,4 -4,-250 547,-250 547,4 -4,4"/>
<text text-anchor="middle" x="271.5" y="-226" font-family="Cabin" font-size="20.00">Flowchart (isolated) for: smelter_ferrous</text>
<text text-anchor="middle" x="271.5" y="-204" font-family="Cabin" font-size="20.00">&#45;&#45;&#45;&#45;&#45;&#45;&#45;&#45;&#45;&#45;&#45;</text>
<!-- smelter_ferrous -->
<g id="node1" class="node">
<title>smelter_ferrous</title>
<polygon fill="#e066ff" stroke="black" points="321,-115 209,-115 209,-79 321,-79 321,-115"/>
<text text-anchor="middle" x="265" y="-93.3" font-family="Cabin" font-size="14.00">smelter_ferrous</text>
</g>
<!-- market_ferrous -->
<g id="node5" class="node">
<title>market_ferrous</title>
<polygon fill="#ffa07a" stroke="black" points="534,-155 453,-155 453,-119 534,-119 534,-155"/>
<text text-anchor="middle" x="493.5" y="-134.5" font-family="Cabin" font-size="10.00">market_ferrous</text>
</g>
<!-- smelter_ferrous&#45;&gt;market_ferrous -->
<g id="edge4" class="edge">
<title>smelter_ferrous&#45;&gt;market_ferrous</title>
<path fill="none" stroke="black" d="M321.12,-106.73C358.18,-113.28 406.65,-121.84 442.58,-128.18"/>
<polygon fill="black" stroke="black" points="442.37,-131.7 452.83,-129.99 443.59,-124.81 442.37,-131.7"/>
<text text-anchor="middle" x="382.5" y="-133.2" font-family="Cabin" font-size="6.00">Composition: ELV_ICE_fe</text>
<text text-anchor="middle" x="382.5" y="-126.2" font-family="Cabin" font-size="6.00">Amount: 0.00e+00 kg</text>
</g>
<!-- market_waste_slag -->
<g id="node6" class="node">
<title>market_waste_slag</title>
<polygon fill="#ffa07a" stroke="black" points="543,-76 444,-76 444,-40 543,-40 543,-76"/>
<text text-anchor="middle" x="493.5" y="-55.5" font-family="Cabin" font-size="10.00">market_waste_slag</text>
</g>
<!-- smelter_ferrous&#45;&gt;market_waste_slag -->
<g id="edge5" class="edge">
<title>smelter_ferrous&#45;&gt;market_waste_slag</title>
<path fill="none" stroke="black" d="M311.46,-78.9C321.69,-75.43 332.61,-72.2 343,-70 372.48,-63.76 405.85,-60.71 433.58,-59.24"/>
<polygon fill="black" stroke="black" points="434.08,-62.72 443.91,-58.75 433.75,-55.73 434.08,-62.72"/>
<text text-anchor="middle" x="382.5" y="-79.2" font-family="Cabin" font-size="6.00">Composition: ELV_ICE_slag_fe</text>
<text text-anchor="middle" x="382.5" y="-72.2" font-family="Cabin" font-size="6.00">Amount: 0.00e+00 kg</text>
</g>
<!-- hammermill_body -->
<g id="node2" class="node">
<title>hammermill_body</title>
<polygon fill="darkturquoise" stroke="black" points="97.5,-194 2.5,-194 2.5,-158 97.5,-158 97.5,-194"/>
<text text-anchor="middle" x="50" y="-173.5" font-family="Cabin" font-size="10.00">hammermill_body</text>
</g>
<!-- hammermill_body&#45;&gt;smelter_ferrous -->
<g id="edge1" class="edge">
<title>hammermill_body&#45;&gt;smelter_ferrous</title>
<path fill="none" stroke="black" d="M97.74,-158.66C129.4,-146.92 171.47,-131.32 205.36,-118.75"/>
<polygon fill="black" stroke="black" points="206.99,-121.88 215.15,-115.12 204.55,-115.32 206.99,-121.88"/>
<text text-anchor="middle" x="154.5" y="-157.2" font-family="Cabin" font-size="6.00">Composition: ELV_ICE_fe</text>
<text text-anchor="middle" x="154.5" y="-150.2" font-family="Cabin" font-size="6.00">Amount: 0.00e+00 kg</text>
</g>
<!-- shredding_engtrans -->
<g id="node3" class="node">
<title>shredding_engtrans</title>
<polygon fill="darkturquoise" stroke="black" points="100,-115 0,-115 0,-79 100,-79 100,-115"/>
<text text-anchor="middle" x="50" y="-94.5" font-family="Cabin" font-size="10.00">shredding_engtrans</text>
</g>
<!-- shredding_engtrans&#45;&gt;smelter_ferrous -->
<g id="edge2" class="edge">
<title>shredding_engtrans&#45;&gt;smelter_ferrous</title>
<path fill="none" stroke="black" d="M100.13,-97C129.4,-97 166.91,-97 198.65,-97"/>
<polygon fill="black" stroke="black" points="198.74,-100.5 208.74,-97 198.74,-93.5 198.74,-100.5"/>
<text text-anchor="middle" x="154.5" y="-106.2" font-family="Cabin" font-size="6.00">Composition: ELV_ICE_fe</text>
<text text-anchor="middle" x="154.5" y="-99.2" font-family="Cabin" font-size="6.00">Amount: 0.00e+00 kg</text>
</g>
<!-- shredding_tyre -->
<g id="node4" class="node">
<title>shredding_tyre</title>
<polygon fill="darkturquoise" stroke="black" points="90,-36 10,-36 10,0 90,0 90,-36"/>
<text text-anchor="middle" x="50" y="-15.5" font-family="Cabin" font-size="10.00">shredding_tyre</text>
</g>
<!-- shredding_tyre&#45;&gt;smelter_ferrous -->
<g id="edge3" class="edge">
<title>shredding_tyre&#45;&gt;smelter_ferrous</title>
<path fill="none" stroke="black" d="M90.07,-32.49C122.48,-44.51 169.05,-61.78 205.85,-75.43"/>
<polygon fill="black" stroke="black" points="204.87,-78.8 215.46,-79 207.3,-72.24 204.87,-78.8"/>
<text text-anchor="middle" x="154.5" y="-75.2" font-family="Cabin" font-size="6.00">Composition: ELV_ICE_fe</text>
<text text-anchor="middle" x="154.5" y="-68.2" font-family="Cabin" font-size="6.00">Amount: 0.00e+00 kg</text>
</g>
</g>
</svg>
