<?xml version="1.0" encoding="UTF-8" standalone="no"?>
<!DOCTYPE svg PUBLIC "-//W3C//DTD SVG 1.1//EN"
 "http://www.w3.org/Graphics/SVG/1.1/DTD/svg11.dtd">
<!-- Generated by graphviz version 2.43.0 (0)
 -->
<!-- Title: %3 Pages: 1 -->
<svg width="579pt" height="254pt"
 viewBox="0.00 0.00 579.00 254.00" xmlns="http://www.w3.org/2000/svg" xmlns:xlink="http://www.w3.org/1999/xlink">
<g id="graph0" class="graph" transform="scale(1 1) rotate(0) translate(4 250)">
<title>%3</title>
<polygon fill="white" stroke="transparent" points="-4,4 -4,-250 575,-250 575,4 -4,4"/>
<text text-anchor="middle" x="285.5" y="-226" font-family="Cabin" font-size="20.00">Flowchart (isolated) for: smelter_nonferrous</text>
<text text-anchor="middle" x="285.5" y="-204" font-family="Cabin" font-size="20.00">&#45;&#45;&#45;&#45;&#45;&#45;&#45;&#45;&#45;&#45;&#45;</text>
<!-- smelter_nonferrous -->
<g id="node1" class="node">
<title>smelter_nonferrous</title>
<polygon fill="#e066ff" stroke="black" points="346,-115 212,-115 212,-79 346,-79 346,-115"/>
<text text-anchor="middle" x="279" y="-93.3" font-family="Cabin" font-size="14.00">smelter_nonferrous</text>
</g>
<!-- market_nonferrous -->
<g id="node5" class="node">
<title>market_nonferrous</title>
<polygon fill="#ffa07a" stroke="black" points="570,-155 473,-155 473,-119 570,-119 570,-155"/>
<text text-anchor="middle" x="521.5" y="-134.5" font-family="Cabin" font-size="10.00">market_nonferrous</text>
</g>
<!-- smelter_nonferrous&#45;&gt;market_nonferrous -->
<g id="edge4" class="edge">
<title>smelter_nonferrous&#45;&gt;market_nonferrous</title>
<path fill="none" stroke="black" d="M346.04,-107.98C382.61,-114.07 427.65,-121.56 462.81,-127.4"/>
<polygon fill="black" stroke="black" points="462.47,-130.9 472.91,-129.09 463.62,-123.99 462.47,-130.9"/>
<text text-anchor="middle" x="409" y="-134.2" font-family="Cabin" font-size="6.00">Composition: ELV_ICE_nfe</text>
<text text-anchor="middle" x="409" y="-127.2" font-family="Cabin" font-size="6.00">Amount: 0.00e+00 kg</text>
</g>
<!-- market_waste_slag -->
<g id="node6" class="node">
<title>market_waste_slag</title>
<polygon fill="#ffa07a" stroke="black" points="571,-76 472,-76 472,-40 571,-40 571,-76"/>
<text text-anchor="middle" x="521.5" y="-55.5" font-family="Cabin" font-size="10.00">market_waste_slag</text>
</g>
<!-- smelter_nonferrous&#45;&gt;market_waste_slag -->
<g id="edge5" class="edge">
<title>smelter_nonferrous&#45;&gt;market_waste_slag</title>
<path fill="none" stroke="black" d="M332.11,-78.96C343.8,-75.49 356.23,-72.24 368,-70 398.55,-64.18 433.07,-61.18 461.53,-59.63"/>
<polygon fill="black" stroke="black" points="461.91,-63.11 471.72,-59.12 461.56,-56.12 461.91,-63.11"/>
<text text-anchor="middle" x="409" y="-79.2" font-family="Cabin" font-size="6.00">Composition: ELV_ICE_slag_nfe</text>
<text text-anchor="middle" x="409" y="-72.2" font-family="Cabin" font-size="6.00">Amount: 0.00e+00 kg</text>
</g>
<!-- hammermill_body -->
<g id="node2" class="node">
<title>hammermill_body</title>
<polygon fill="darkturquoise" stroke="black" points="97.5,-194 2.5,-194 2.5,-158 97.5,-158 97.5,-194"/>
<text text-anchor="middle" x="50" y="-173.5" font-family="Cabin" font-size="10.00">hammermill_body</text>
</g>
<!-- hammermill_body&#45;&gt;smelter_nonferrous -->
<g id="edge1" class="edge">
<title>hammermill_body&#45;&gt;smelter_nonferrous</title>
<path fill="none" stroke="black" d="M97.76,-159.73C132.07,-147.79 179.01,-131.45 216.38,-118.45"/>
<polygon fill="black" stroke="black" points="217.86,-121.64 226.15,-115.04 215.56,-115.03 217.86,-121.64"/>
<text text-anchor="middle" x="156" y="-159.2" font-family="Cabin" font-size="6.00">Composition: ELV_ICE_nfe</text>
<text text-anchor="middle" x="156" y="-152.2" font-family="Cabin" font-size="6.00">Amount: 0.00e+00 kg</text>
</g>
<!-- shredding_elec -->
<g id="node3" class="node">
<title>shredding_elec</title>
<polygon fill="darkturquoise" stroke="black" points="90.5,-115 9.5,-115 9.5,-79 90.5,-79 90.5,-115"/>
<text text-anchor="middle" x="50" y="-94.5" font-family="Cabin" font-size="10.00">shredding_elec</text>
</g>
<!-- shredding_elec&#45;&gt;smelter_nonferrous -->
<g id="edge2" class="edge">
<title>shredding_elec&#45;&gt;smelter_nonferrous</title>
<path fill="none" stroke="black" d="M90.54,-97C121.08,-97 164.26,-97 201.49,-97"/>
<polygon fill="black" stroke="black" points="201.82,-100.5 211.82,-97 201.82,-93.5 201.82,-100.5"/>
<text text-anchor="middle" x="156" y="-106.2" font-family="Cabin" font-size="6.00">Composition: ELV_ICE_nfe</text>
<text text-anchor="middle" x="156" y="-99.2" font-family="Cabin" font-size="6.00">Amount: 0.00e+00 kg</text>
</g>
<!-- shredding_engtrans -->
<g id="node4" class="node">
<title>shredding_engtrans</title>
<polygon fill="darkturquoise" stroke="black" points="100,-36 0,-36 0,0 100,0 100,-36"/>
<text text-anchor="middle" x="50" y="-15.5" font-family="Cabin" font-size="10.00">shredding_engtrans</text>
</g>
<!-- shredding_engtrans&#45;&gt;smelter_nonferrous -->
<g id="edge3" class="edge">
<title>shredding_engtrans&#45;&gt;smelter_nonferrous</title>
<path fill="none" stroke="black" d="M100.26,-35.14C134.37,-47.01 180.03,-62.9 216.53,-75.61"/>
<polygon fill="black" stroke="black" points="215.48,-78.95 226.08,-78.93 217.79,-72.34 215.48,-78.95"/>
<text text-anchor="middle" x="156" y="-73.2" font-family="Cabin" font-size="6.00">Composition: ELV_ICE_nfe</text>
<text text-anchor="middle" x="156" y="-66.2" font-family="Cabin" font-size="6.00">Amount: 0.00e+00 kg</text>
</g>
</g>
</svg>
