<?xml version="1.0" encoding="UTF-8" standalone="no"?>
<!DOCTYPE svg PUBLIC "-//W3C//DTD SVG 1.1//EN"
 "http://www.w3.org/Graphics/SVG/1.1/DTD/svg11.dtd">
<!-- Generated by graphviz version 2.43.0 (0)
 -->
<!-- Title: %3 Pages: 1 -->
<svg width="512pt" height="175pt"
 viewBox="0.00 0.00 512.00 175.00" xmlns="http://www.w3.org/2000/svg" xmlns:xlink="http://www.w3.org/1999/xlink">
<g id="graph0" class="graph" transform="scale(1 1) rotate(0) translate(4 171)">
<title>%3</title>
<polygon fill="white" stroke="transparent" points="-4,4 -4,-171 508,-171 508,4 -4,4"/>
<text text-anchor="middle" x="252" y="-147" font-family="Cabin" font-size="20.00">Flowchart (isolated) for: smelter_cc</text>
<text text-anchor="middle" x="252" y="-125" font-family="Cabin" font-size="20.00">&#45;&#45;&#45;&#45;&#45;&#45;&#45;&#45;&#45;&#45;&#45;</text>
<!-- smelter_cc -->
<g id="node1" class="node">
<title>smelter_cc</title>
<polygon fill="#e066ff" stroke="black" points="291,-75 209,-75 209,-39 291,-39 291,-75"/>
<text text-anchor="middle" x="250" y="-53.3" font-family="Cabin" font-size="14.00">smelter_cc</text>
</g>
<!-- market_waste_slag -->
<g id="node3" class="node">
<title>market_waste_slag</title>
<polygon fill="#ffa07a" stroke="black" points="504,-115 405,-115 405,-79 504,-79 504,-115"/>
<text text-anchor="middle" x="454.5" y="-94.5" font-family="Cabin" font-size="10.00">market_waste_slag</text>
</g>
<!-- smelter_cc&#45;&gt;market_waste_slag -->
<g id="edge2" class="edge">
<title>smelter_cc&#45;&gt;market_waste_slag</title>
<path fill="none" stroke="black" d="M291.01,-64.9C320.57,-70.74 361.29,-78.79 394.57,-85.36"/>
<polygon fill="black" stroke="black" points="394.15,-88.84 404.64,-87.35 395.5,-81.98 394.15,-88.84"/>
<text text-anchor="middle" x="348" y="-91.2" font-family="Cabin" font-size="6.00">Composition: ALL_slag_ree</text>
<text text-anchor="middle" x="348" y="-84.2" font-family="Cabin" font-size="6.00">Amount: 0.00e+00 kg</text>
</g>
<!-- market_ree -->
<g id="node4" class="node">
<title>market_ree</title>
<polygon fill="#ffa07a" stroke="black" points="487,-36 422,-36 422,0 487,0 487,-36"/>
<text text-anchor="middle" x="454.5" y="-15.5" font-family="Cabin" font-size="10.00">market_ree</text>
</g>
<!-- smelter_cc&#45;&gt;market_ree -->
<g id="edge3" class="edge">
<title>smelter_cc&#45;&gt;market_ree</title>
<path fill="none" stroke="black" d="M287.02,-38.97C295.37,-35.46 304.35,-32.19 313,-30 345.41,-21.8 383.22,-18.93 411.45,-18.04"/>
<polygon fill="black" stroke="black" points="411.85,-21.53 421.77,-17.79 411.68,-14.53 411.85,-21.53"/>
<text text-anchor="middle" x="348" y="-39.2" font-family="Cabin" font-size="6.00">Composition: ELV_ICE_ree</text>
<text text-anchor="middle" x="348" y="-32.2" font-family="Cabin" font-size="6.00">Amount: 0.00e+00 kg</text>
</g>
<!-- dismantling_ICE -->
<g id="node2" class="node">
<title>dismantling_ICE</title>
<polygon fill="darkturquoise" stroke="black" points="85,-75 0,-75 0,-39 85,-39 85,-75"/>
<text text-anchor="middle" x="42.5" y="-54.5" font-family="Cabin" font-size="10.00">dismantling_ICE</text>
</g>
<!-- dismantling_ICE&#45;&gt;smelter_cc -->
<g id="edge1" class="edge">
<title>dismantling_ICE&#45;&gt;smelter_cc</title>
<path fill="none" stroke="black" d="M85.09,-57C117.82,-57 163.58,-57 198.43,-57"/>
<polygon fill="black" stroke="black" points="198.87,-60.5 208.87,-57 198.87,-53.5 198.87,-60.5"/>
<text text-anchor="middle" x="147" y="-66.2" font-family="Cabin" font-size="6.00">Composition: ELV_ICE_catconv</text>
<text text-anchor="middle" x="147" y="-59.2" font-family="Cabin" font-size="6.00">Amount: 0.00e+00 kg</text>
</g>
</g>
</svg>
