<?xml version="1.0" encoding="UTF-8" standalone="no"?>
<!-- Generated by graphviz version 2.43.0 (0)
 -->

<!-- Title: %3 Pages: 1 -->

<svg
   width="1396pt"
   height="670pt"
   viewBox="0.00 0.00 1395.68 669.60"
   version="1.1"
   id="svg299"
   sodipodi:docname="OverviewOfClassesInTheModel.svg"
   inkscape:version="1.1.2 (0a00cf5339, 2022-02-04)"
   xmlns:inkscape="http://www.inkscape.org/namespaces/inkscape"
   xmlns:sodipodi="http://sodipodi.sourceforge.net/DTD/sodipodi-0.dtd"
   xmlns="http://www.w3.org/2000/svg"
   xmlns:svg="http://www.w3.org/2000/svg">
  <defs
     id="defs303">
    <rect
       x="579.73324"
       y="726.72783"
       width="510.76935"
       height="116.27606"
       id="rect182754" />
    <rect
       x="663.95186"
       y="754.95964"
       width="324.70193"
       height="49.06703"
       id="rect166210" />
    <rect
       x="124.17028"
       y="522.2336"
       width="373.97249"
       height="278.64822"
       id="rect105582" />
  </defs>
  <sodipodi:namedview
     id="namedview301"
     pagecolor="#ffffff"
     bordercolor="#666666"
     borderopacity="1.0"
     inkscape:pageshadow="2"
     inkscape:pageopacity="0.0"
     inkscape:pagecheckerboard="0"
     inkscape:document-units="pt"
     showgrid="false"
     inkscape:zoom="0.70057307"
     inkscape:cx="838.59917"
     inkscape:cy="435.35787"
     inkscape:window-width="1920"
     inkscape:window-height="1043"
     inkscape:window-x="0"
     inkscape:window-y="0"
     inkscape:window-maximized="1"
     inkscape:current-layer="graph0" />
  <g
     id="graph0"
     class="graph"
     transform="translate(21.779481,642.71937)"
     inkscape:export-filename="/home/stew/code/gh/futuram/IntegratedModel/FutuRaM_RecoveryModelExplanation.png"
     inkscape:export-xdpi="200"
     inkscape:export-ydpi="200">
    <title
       id="title2">%3</title>
    <polygon
       fill="#ffffff"
       stroke="transparent"
       points="1366.88,-640.8 1366.88,28.8 -28.8,28.8 -28.8,-640.8 "
       id="polygon4" />
    <text
       text-anchor="middle"
       x="465.93393"
       y="-595.81134"
       font-family="Cabin-Medium"
       font-size="30px"
       id="text6"
       style="font-size:35.9917px"><tspan
         style="font-weight:bold;font-size:35.9917px"
         id="tspan139608">Structure of the SRM recovery system model</tspan></text>
    <g
       id="clust1"
       class="cluster">
      <title
         id="title8">cluster_0</title>
      <path
         fill="#ffffff"
         stroke="#000000"
         stroke-width="2"
         d="m 20,-313 c 0,0 890.55,0 890.55,0 6,0 12,-6 12,-12 0,0 0,-226 0,-226 0,-6 -6,-12 -12,-12 0,0 -890.55,0 -890.55,0 -6,0 -12,6 -12,12 0,0 0,226 0,226 0,6 6,12 12,12"
         id="path10" />
      <text
         text-anchor="start"
         x="407.78"
         y="-543"
         font-family="Cabin-Medium"
         font-size="20px"
         id="text12">Matter(SuperClass)</text>
    </g>
    <g
       id="clust2"
       class="cluster">
      <title
         id="title15">cluster_1</title>
      <path
         fill="#ffffff"
         stroke="#000000"
         stroke-width="2"
         d="m 966.55,-156 c 0,0 273.41,0 273.41,0 6,0 12,-6 12,-12 0,0 0,-76 0,-76 0,-6 -6,-12 -12,-12 0,0 -273.41,0 -273.41,0 -6,0 -12,6 -12,12 0,0 0,76 0,76 0,6 6,12 12,12"
         id="path17" />
      <text
         text-anchor="start"
         x="1001.26"
         y="-236"
         font-family="Cabin-Medium"
         font-size="20px"
         id="text19">Processes and Flows</text>
    </g>
    <g
       id="clust3"
       class="cluster">
      <title
         id="title22">cluster_2</title>
      <path
         fill="#ffffff"
         stroke="#000000"
         stroke-width="2"
         d="m 445.48,-157 c 0,0 293.07,0 293.07,0 6,0 12,-6 12,-12 0,0 0,-62 0,-62 0,-6 -6,-12 -12,-12 0,0 -293.07,0 -293.07,0 -6,0 -12,6 -12,12 0,0 0,62 0,62 0,6 6,12 12,12"
         id="path24" />
      <text
         text-anchor="start"
         x="462.01001"
         y="-223"
         font-family="Cabin-Medium"
         font-size="20px"
         id="text26">Scenarios and Parameters</text>
    </g>
    <g
       id="clust4"
       class="cluster">
      <title
         id="title29">cluster_3</title>
      <path
         fill="#ffffff"
         stroke="#000000"
         stroke-width="2"
         d="m 1074.84,-8 c 0,0 251.24,0 251.24,0 6,0 12,-6 12,-12 0,0 0,-98 0,-98 0,-6 -6,-12 -12,-12 0,0 -251.24,0 -251.24,0 -6,0 -12,6 -12,12 0,0 0,98 0,98 0,6 6,12 12,12"
         id="path31" />
      <text
         text-anchor="start"
         x="1070.46"
         y="-110"
         font-family="Cabin-Medium"
         font-size="20px"
         id="text33">Impact Assessment Model</text>
    </g>
    <!-- Energy -->
    <g
       id="node1"
       class="node">
      <title
         id="title36">Energy</title>
      <ellipse
         fill="#ffd700"
         stroke="#ffd700"
         cx="848.54999"
         cy="-206"
         rx="44.389999"
         ry="18"
         id="ellipse38" />
      <text
         text-anchor="middle"
         x="848.54999"
         y="-202.3"
         font-family="Times, serif"
         font-size="14px"
         id="text40">Energy</text>
    </g>
    <!-- Flow -->
    <g
       id="node8"
       class="node">
      <title
         id="title43">Flow</title>
      <circle
         fill="#90ee90"
         stroke="#90ee90"
         cx="1003.7"
         cy="-191"
         id="ellipse45"
         r="33.290001" />
      <text
         text-anchor="middle"
         x="1003.7"
         y="-187.3"
         font-family="Times, serif"
         font-size="14px"
         id="text47">Flow</text>
    </g>
    <!-- Energy&#45;&gt;Flow -->
    <g
       id="edge25"
       class="edge">
      <title
         id="title50">Energy-&gt;Flow</title>
      <path
         fill="none"
         stroke="#ffd700"
         d="m 891.8,-201.86 c 21.31,2.09 47.08,4.61 68.42,6.7"
         id="path52" />
      <polygon
         fill="#ffd700"
         stroke="#ffd700"
         points="970.29,-194.17 960,-191.67 960.68,-198.63 "
         id="polygon54" />
    </g>
    <!-- matter -->
    <g
       id="node2"
       class="node">
      <title
         id="title57">matter</title>
      <ellipse
         fill="#2a58ad"
         fill-opacity="0.764706"
         stroke="#2a58ad"
         stroke-opacity="0.764706"
         cx="848.54999"
         cy="-390"
         rx="72"
         ry="36"
         id="ellipse59" />
      <text
         text-anchor="middle"
         x="848.54999"
         y="-385.60001"
         font-family="Times, serif"
         font-size="18px"
         fill="#ffffff"
         id="text61">Matter</text>
    </g>
    <!-- matter&#45;&gt;Flow -->
    <g
       id="edge20"
       class="edge">
      <title
         id="title64">matter-&gt;Flow</title>
      <path
         fill="none"
         stroke="#0000ff"
         d="m 875.53,-356.24 c 28.16,36.6 72.86,94.67 101.07,131.33"
         id="path66" />
      <polygon
         fill="#0000ff"
         stroke="#0000ff"
         points="982.7,-216.98 973.83,-222.77 979.38,-227.04 "
         id="polygon68" />
    </g>
    <!-- Element -->
    <g
       id="node3"
       class="node">
      <title
         id="title71">Element</title>
      <ellipse
         fill="#add8e6"
         stroke="#add8e6"
         cx="60.049999"
         cy="-445"
         rx="50.09"
         ry="18"
         id="ellipse73" />
      <text
         text-anchor="middle"
         x="60.049999"
         y="-441.29999"
         font-family="Times, serif"
         font-size="14px"
         id="text75">Element</text>
    </g>
    <!-- Element&#45;&gt;matter -->
    <g
       id="edge3"
       class="edge">
      <title
         id="title78">Element-&gt;matter</title>
      <path
         fill="none"
         stroke="#0000ff"
         d="m 503.77,-530 c 73.37,10.36 95.28,-19.64 166.74,0"
         id="path80" />
    </g>
    <!-- Compound -->
    <g
       id="node4"
       class="node">
      <title
         id="title83">Compound</title>
      <ellipse
         fill="#add8e6"
         stroke="#add8e6"
         cx="206.53999"
         cy="-445"
         rx="60.389999"
         ry="18"
         id="ellipse85" />
      <text
         text-anchor="middle"
         x="206.53999"
         y="-441.29999"
         font-family="Times, serif"
         font-size="14px"
         id="text87">Compound</text>
    </g>
    <!-- Element&#45;&gt;Compound -->
    <g
       id="edge8"
       class="edge">
      <title
         id="title90">Element-&gt;Compound</title>
      <path
         fill="none"
         stroke="#0000ff"
         d="m 110.37,-445 c 8.22,0 16.89,0 25.51,0"
         id="path92" />
      <polygon
         fill="#0000ff"
         stroke="#0000ff"
         points="145.95,-445 135.95,-441.5 135.95,-448.5 "
         id="polygon94" />
    </g>
    <!-- Material -->
    <g
       id="node5"
       class="node">
      <title
         id="title97">Material</title>
      <ellipse
         fill="#add8e6"
         stroke="#add8e6"
         cx="353.03"
         cy="-423"
         rx="50.09"
         ry="18"
         id="ellipse99" />
      <text
         text-anchor="middle"
         x="353.03"
         y="-419.29999"
         font-family="Times, serif"
         font-size="14px"
         id="text101">Material</text>
    </g>
    <!-- Element&#45;&gt;Material -->
    <g
       id="edge9"
       class="edge">
      <title
         id="title104">Element-&gt;Material</title>
      <path
         fill="none"
         stroke="#0000ff"
         d="m 207.54,-361 c 43.01,6.77 88.51,-18.97 116.71,-39.33"
         id="path106" />
      <polygon
         fill="#0000ff"
         stroke="#0000ff"
         points="332.42,-406.43 326.5,-397.64 322.31,-403.25 "
         id="polygon108" />
    </g>
    <!-- Component -->
    <g
       id="node6"
       class="node">
      <title
         id="title111">Component</title>
      <ellipse
         fill="#add8e6"
         stroke="#add8e6"
         cx="502.76999"
         cy="-378"
         rx="63.889999"
         ry="18"
         id="ellipse113" />
      <text
         text-anchor="middle"
         x="502.76999"
         y="-374.29999"
         font-family="Times, serif"
         font-size="14px"
         id="text115">Component</text>
    </g>
    <!-- Element&#45;&gt;Component -->
    <g
       id="edge10"
       class="edge">
      <title
         id="title118">Element-&gt;Component</title>
      <path
         fill="none"
         stroke="#0000ff"
         d="m 79.34,-428.22 c 25.81,22.14 75.46,59.24 126.2,67.22"
         id="path120" />
      <path
         fill="none"
         stroke="#0000ff"
         d="m 207.54,-361 c 79.19,12.46 171.67,3.3 231.49,-5.68"
         id="path122" />
      <polygon
         fill="#0000ff"
         stroke="#0000ff"
         points="449.08,-368.24 439.73,-363.25 438.66,-370.17 "
         id="polygon124" />
    </g>
    <!-- Product -->
    <g
       id="node7"
       class="node">
      <title
         id="title127">Product</title>
      <ellipse
         fill="#add8e6"
         stroke="#add8e6"
         cx="671.51001"
         cy="-440"
         rx="47.389999"
         ry="18"
         id="ellipse129" />
      <text
         text-anchor="middle"
         x="671.51001"
         y="-436.29999"
         font-family="Times, serif"
         font-size="14px"
         id="text131">Product</text>
    </g>
    <!-- Element&#45;&gt;Product -->
    <g
       id="edge11"
       class="edge">
      <title
         id="title134">Element-&gt;Product</title>
      <path
         fill="none"
         stroke="#0000ff"
         d="m 87.77,-460.23 c 16.34,-8.63 37.95,-18.85 58.32,-24.77 153.01,-44.45 197.69,-65.7 355.68,-45"
         id="path136" />
      <path
         fill="none"
         stroke="#0000ff"
         d="m 503.77,-530 c 53.89,7.61 107.76,42.98 139.13,67.04"
         id="path138" />
      <polygon
         fill="#0000ff"
         stroke="#0000ff"
         points="651.14,-456.5 641.11,-459.92 645.43,-465.43 "
         id="polygon140" />
    </g>
    <!-- Compound&#45;&gt;matter -->
    <g
       id="edge4"
       class="edge">
      <title
         id="title143">Compound-&gt;matter</title>
      <path
         fill="none"
         stroke="#0000ff"
         d="m 503.77,-485 c 76.75,0 92.72,-65.35 166.74,-45"
         id="path145" />
      <path
         fill="none"
         stroke="#0000ff"
         d="m 672.51,-530 c 57.9,15.92 109.61,63.52 141.54,98.83"
         id="path147" />
      <polygon
         fill="#0000ff"
         stroke="#0000ff"
         points="820.95,-423.4 811.7,-428.55 816.94,-433.2 "
         id="polygon149" />
    </g>
    <!-- Compound&#45;&gt;Material -->
    <g
       id="edge12"
       class="edge">
      <title
         id="title152">Compound-&gt;Material</title>
      <path
         fill="none"
         stroke="#0000ff"
         d="m 260.93,-436.87 c 11.56,1.76 23.82,3.63 35.47,5.4"
         id="path154" />
      <polygon
         fill="#0000ff"
         stroke="#0000ff"
         points="306.45,-429.94 296.03,-427.99 297.09,-434.91 "
         id="polygon156" />
    </g>
    <!-- Compound&#45;&gt;Component -->
    <g
       id="edge13"
       class="edge">
      <title
         id="title159">Compound-&gt;Component</title>
      <path
         fill="none"
         stroke="#0000ff"
         d="m 239.84,-460.07 c 28.84,-11.96 72.52,-26.45 112.19,-24.93"
         id="path161" />
      <path
         fill="none"
         stroke="#0000ff"
         d="m 354.03,-485 c 54.9,2.1 103.24,50.5 128.7,81.48"
         id="path163" />
      <polygon
         fill="#0000ff"
         stroke="#0000ff"
         points="488.99,-395.68 480.02,-401.31 485.49,-405.68 "
         id="polygon165" />
    </g>
    <!-- Compound&#45;&gt;Product -->
    <g
       id="edge14"
       class="edge">
      <title
         id="title168">Compound-&gt;Product</title>
      <path
         fill="none"
         stroke="#0000ff"
         d="m 354.03,-485 c 65.61,2.51 82.07,0 147.74,0"
         id="path170" />
      <path
         fill="none"
         stroke="#0000ff"
         d="m 503.77,-485 c 44.48,0 93.4,15.11 126.68,27.82"
         id="path172" />
      <polygon
         fill="#0000ff"
         stroke="#0000ff"
         points="639.83,-453.5 629.24,-453.89 631.8,-460.41 "
         id="polygon174" />
    </g>
    <!-- Material&#45;&gt;matter -->
    <g
       id="edge5"
       class="edge">
      <title
         id="title177">Material-&gt;matter</title>
      <path
         fill="none"
         stroke="#0000ff"
         d="m 365,-405.3 c 13.43,19.94 38.18,51.48 68.48,66.3 95.07,46.51 131.79,34.31 237.03,23"
         id="path179" />
      <path
         fill="none"
         stroke="#0000ff"
         d="m 672.51,-316 c 42.91,-4.24 87.64,-23.44 121.14,-41.22"
         id="path181" />
      <polygon
         fill="#0000ff"
         stroke="#0000ff"
         points="802.79,-362.19 795.67,-354.34 792.33,-360.49 "
         id="polygon183" />
    </g>
    <!-- Material&#45;&gt;Component -->
    <g
       id="edge15"
       class="edge">
      <title
         id="title186">Material-&gt;Component</title>
      <path
         fill="none"
         stroke="#0000ff"
         d="m 391.69,-411.53 c 17.4,5.3 38.36,11.69 57.3,17.45"
         id="path188" />
      <polygon
         fill="#0000ff"
         stroke="#0000ff"
         points="458.68,-391.12 448.09,-390.69 450.13,-397.39 "
         id="polygon190" />
    </g>
    <!-- Material&#45;&gt;Product -->
    <g
       id="edge16"
       class="edge">
      <title
         id="title193">Material-&gt;Product</title>
      <path
         fill="none"
         stroke="#0000ff"
         d="m 402.78,-425.62 c 57.04,-3.06 151.31,-8.13 211.41,-11.36"
         id="path195" />
      <polygon
         fill="#0000ff"
         stroke="#0000ff"
         points="624.27,-437.52 614.47,-433.48 614.1,-440.47 "
         id="polygon197" />
    </g>
    <!-- Component&#45;&gt;matter -->
    <g
       id="edge6"
       class="edge">
      <title
         id="title200">Component-&gt;matter</title>
      <path
         fill="none"
         stroke="#0000ff"
         d="m 527.41,-361.4 c 31.5,20.26 89.51,51.16 143.1,45.4"
         id="path202" />
    </g>
    <!-- Component&#45;&gt;Product -->
    <g
       id="edge17"
       class="edge">
      <title
         id="title205">Component-&gt;Product</title>
      <path
         fill="none"
         stroke="#0000ff"
         d="m 542.02,-392.22 c 25.52,-9.49 59.1,-21.98 85.54,-31.81"
         id="path207" />
      <polygon
         fill="#0000ff"
         stroke="#0000ff"
         points="636.95,-427.52 628.79,-420.76 626.35,-427.32 "
         id="polygon209" />
    </g>
    <!-- Product&#45;&gt;matter -->
    <g
       id="edge7"
       class="edge">
      <title
         id="title212">Product-&gt;matter</title>
      <path
         fill="none"
         stroke="#0000ff"
         d="m 710.06,-429.27 c 19.16,5.47 43.13,12.32 65.67,18.75"
         id="path214" />
      <polygon
         fill="#0000ff"
         stroke="#0000ff"
         points="785.62,-407.69 775.04,-407.07 776.96,-413.8 "
         id="polygon216" />
    </g>
    <!-- Process -->
    <g
       id="node9"
       class="node">
      <title
         id="title219">Process</title>
      <polygon
         fill="#90ee90"
         stroke="#90ee90"
         points="1163.96,-216 1163.96,-180 1235.96,-180 1235.96,-216 "
         id="polygon221" />
      <text
         text-anchor="middle"
         x="1199.96"
         y="-194.3"
         font-family="Times, serif"
         font-size="14px"
         id="text223">Process</text>
    </g>
    <!-- Flow&#45;&gt;Process -->
    <g
       id="edge18"
       class="edge">
      <title
         id="title226">Flow-&gt;Process</title>
      <path
         fill="none"
         stroke="#008000"
         d="m 1047.56,-192.54 c 31.34,-1.13 73.77,-2.66 105.74,-3.81"
         id="path228" />
      <polygon
         fill="#008000"
         stroke="#008000"
         points="1037.21,-192.17 1047.08,-196.03 1047.33,-189.03 "
         id="polygon230" />
      <polygon
         fill="#008000"
         stroke="#008000"
         points="1163.71,-196.73 1153.84,-192.87 1153.59,-199.87 "
         id="polygon232" />
    </g>
    <!-- LCA layer -->
    <g
       id="node12"
       class="node">
      <title
         id="title235">LCA layer</title>
      <polygon
         fill="#8b13a3"
         stroke="#8b13a3"
         points="1150.73,-39.09 1179.57,-18 1220.35,-18 1249.19,-39.09 1249.19,-68.91 1220.35,-90 1179.57,-90 1150.73,-68.91 "
         id="polygon237" />
      <text
         text-anchor="middle"
         x="1199.96"
         y="-50.299999"
         font-family="Times, serif"
         font-size="14px"
         fill="#ffffff"
         id="text239">LCA layer</text>
    </g>
    <!-- Flow&#45;&gt;LCA layer -->
    <g
       id="edge2"
       class="edge">
      <title
         id="title242">Flow-&gt;LCA layer</title>
      <path
         fill="none"
         stroke="#008000"
         d="m 1030.19,-170.7 c 10.06,7.86 21.8,16.84 32.65,24.7 29.92,21.65 64.4,44.94 91.17,62.67"
         id="path244" />
      <polygon
         fill="#008000"
         stroke="#008000"
         points="1162.41,-77.78 1152.14,-80.37 1156,-86.21 "
         id="polygon246" />
    </g>
    <!-- Scenario -->
    <g
       id="node10"
       class="node">
      <title
         id="title249">Scenario</title>
      <polygon
         fill="#ffa500"
         stroke="#ffa500"
         points="532.3,-203 473.23,-203 443.69,-185 473.23,-167 532.3,-167 561.84,-185 "
         id="polygon251" />
      <text
         text-anchor="middle"
         x="502.76999"
         y="-181.3"
         font-family="Times, serif"
         font-size="14px"
         id="text253">Scenario</text>
    </g>
    <!-- Parameter -->
    <g
       id="node11"
       class="node">
      <title
         id="title256">Parameter</title>
      <polygon
         fill="#ffa500"
         stroke="#ffa500"
         points="706.05,-203 636.96,-203 602.42,-185 636.96,-167 706.05,-167 740.6,-185 "
         id="polygon258" />
      <text
         text-anchor="middle"
         x="671.51001"
         y="-181.3"
         font-family="Times, serif"
         font-size="14px"
         id="text260">Parameter</text>
    </g>
    <!-- Scenario&#45;&gt;Parameter -->
    <g
       id="edge21"
       class="edge">
      <title
         id="title263">Scenario-&gt;Parameter</title>
      <path
         fill="none"
         stroke="#ffa500"
         d="m 562.08,-185 c 9.72,0 19.94,0 30.07,0"
         id="path265" />
      <polygon
         fill="#ffa500"
         stroke="#ffa500"
         points="602.21,-185 592.21,-181.5 592.21,-188.5 "
         id="polygon267" />
    </g>
    <!-- Scenario&#45;&gt;LCA layer -->
    <g
       id="edge1"
       class="edge">
      <title
         id="title270">Scenario-&gt;LCA layer</title>
      <path
         fill="none"
         stroke="#ffa500"
         d="m 536.94,-169.74 c 18.86,8.12 43.11,17.67 65.52,23.74 193.25,52.38 430.35,77.82 538.17,87.36"
         id="path272" />
      <polygon
         fill="#ffa500"
         stroke="#ffa500"
         points="1150.65,-57.77 1140.39,-55.15 1140.99,-62.12 "
         id="polygon274" />
    </g>
    <!-- Parameter&#45;&gt;matter -->
    <g
       id="edge23"
       class="edge">
      <title
         id="title277">Parameter-&gt;matter</title>
      <path
         fill="none"
         stroke="#ffa500"
         d="m 685.17,-203.26 c 18.84,-26.75 55.84,-77.74 91.38,-117.74 9.01,-10.14 19.2,-20.58 29,-30.18"
         id="path279" />
      <polygon
         fill="#ffa500"
         stroke="#ffa500"
         points="812.94,-358.33 808.19,-348.86 803.33,-353.89 "
         id="polygon281" />
    </g>
    <!-- Parameter&#45;&gt;Flow -->
    <g
       id="edge24"
       class="edge">
      <title
         id="title284">Parameter-&gt;Flow</title>
      <path
         fill="none"
         stroke="#ffa500"
         d="m 721.24,-174.79 c 17.37,3.16 37.14,6.23 55.31,7.79 64.65,5.55 81.8,9.41 146,0 13.27,-1.94 27.39,-5.61 40.02,-9.5"
         id="path286" />
      <polygon
         fill="#ffa500"
         stroke="#ffa500"
         points="972.34,-179.64 963.89,-173.24 961.75,-179.91 "
         id="polygon288" />
    </g>
    <!-- Parameter&#45;&gt;Process -->
    <g
       id="edge22"
       class="edge">
      <title
         id="title291">Parameter-&gt;Process</title>
      <path
         fill="none"
         stroke="#ffa500"
         d="m 695.26,-203.19 c 20.06,-14.79 50.78,-34.52 81.29,-42.81 111.64,-30.31 145.8,-16.59 260.29,0 40.68,5.89 85.36,19.7 117.49,31"
         id="path293" />
      <polygon
         fill="#ffa500"
         stroke="#ffa500"
         points="1163.88,-211.59 1153.29,-211.66 1155.64,-218.25 "
         id="polygon295" />
    </g>
  </g>
  <text
     xml:space="preserve"
     style="font-style:normal;font-weight:normal;font-size:19.9954px;line-height:1.25;font-family:sans-serif;fill:#000000;fill-opacity:1;stroke:none;stroke-width:0.749828"
     x="1007.3563"
     y="68.174179"
     id="text5632"
     inkscape:export-filename="/home/stew/code/gh/futuram/IntegratedModel/FutuRaM_RecoveryModelExplanation.png"
     inkscape:export-xdpi="200"
     inkscape:export-ydpi="200"><tspan
       sodipodi:role="line"
       id="tspan5630"
       style="font-weight:bold;font-size:19.9954px;stroke-width:0.749828"
       x="1007.3563"
       y="68.174179">Every 'thing' fits in the </tspan><tspan
       sodipodi:role="line"
       style="font-weight:bold;font-size:19.9954px;stroke-width:0.749828"
       x="1007.3563"
       y="93.168427"
       id="tspan111590">'matter superclass'</tspan><tspan
       sodipodi:role="line"
       style="font-size:19.9954px;stroke-width:0.749828"
       x="1007.3563"
       y="118.16268"
       id="tspan22892" /><tspan
       sodipodi:role="line"
       style="font-weight:bold;font-size:19.9954px;stroke-width:0.749828"
       x="1007.3563"
       y="143.15694"
       id="tspan30478">Model is fed with: </tspan><tspan
       sodipodi:role="line"
       style="font-size:19.9954px;stroke-width:0.749828"
       x="1007.3563"
       y="168.15118"
       id="tspan221600">matters, processes, </tspan><tspan
       sodipodi:role="line"
       style="font-size:19.9954px;stroke-width:0.749828"
       x="1007.3563"
       y="193.14543"
       id="tspan223436">flows, parameters</tspan><tspan
       sodipodi:role="line"
       style="font-size:19.9954px;stroke-width:0.749828"
       x="1007.3563"
       y="218.13968"
       id="tspan208420">          </tspan><tspan
       sodipodi:role="line"
       style="font-size:19.9954px;stroke-width:0.749828"
       x="1007.3563"
       y="243.13394"
       id="tspan221602">Need:</tspan><tspan
       sodipodi:role="line"
       style="font-size:19.9954px;stroke-width:0.749828"
       x="1007.3563"
       y="268.12817"
       id="tspan221604">* list of all</tspan><tspan
       sodipodi:role="line"
       style="font-size:19.9954px;stroke-width:0.749828"
       x="1007.3563"
       y="293.12244"
       id="tspan26366">* datasheet for each</tspan><tspan
       sodipodi:role="line"
       style="font-size:19.9954px;stroke-width:0.749828"
       x="1007.3563"
       y="318.11667"
       id="tspan85282" /><tspan
       sodipodi:role="line"
       style="font-weight:bold;font-size:19.9954px;stroke-width:0.749828"
       x="1007.3563"
       y="343.11093"
       id="tspan81608">matters go inside flows</tspan><tspan
       sodipodi:role="line"
       style="font-weight:bold;font-size:19.9954px;stroke-width:0.749828"
       x="1007.3563"
       y="368.10519"
       id="tspan93168">Flows belong to processes</tspan><tspan
       sodipodi:role="line"
       style="font-size:19.9954px;stroke-width:0.749828"
       x="1007.3563"
       y="393.09943"
       id="tspan22894" /></text>
  <text
     xml:space="preserve"
     transform="matrix(0.74982806,0,0,0.74982806,0,-0.12319422)"
     id="text105580"
     style="fill:black;fill-opacity:1;line-height:1.25;stroke:none;font-family:sans-serif;font-style:normal;font-weight:normal;font-size:40px;white-space:pre;shape-inside:url(#rect105582)"
     inkscape:export-filename="/home/stew/code/gh/futuram/IntegratedModel/FutuRaM_RecoveryModelExplanation.png"
     inkscape:export-xdpi="200"
     inkscape:export-ydpi="200" />
  <text
     xml:space="preserve"
     style="font-style:normal;font-weight:normal;font-size:29.9931px;line-height:1.25;font-family:sans-serif;fill:#000000;fill-opacity:1;stroke:none;stroke-width:0.749828"
     x="227.95926"
     y="415.00266"
     id="text109152"
     inkscape:export-filename="/home/stew/code/gh/futuram/IntegratedModel/FutuRaM_RecoveryModelExplanation.png"
     inkscape:export-xdpi="200"
     inkscape:export-ydpi="200"><tspan
       sodipodi:role="line"
       id="tspan109150"
       style="font-weight:bold;text-align:center;text-anchor:middle;stroke-width:0.749828"
       x="227.95926"
       y="415.00266">Recovery model starts</tspan><tspan
       sodipodi:role="line"
       style="font-weight:bold;text-align:center;text-anchor:middle;stroke-width:0.749828"
       x="227.95926"
       y="452.49402"
       id="tspan128572"> with WS inputs</tspan><tspan
       sodipodi:role="line"
       style="font-weight:bold;text-align:center;text-anchor:middle;stroke-width:0.749828"
       x="227.95926"
       y="489.98541"
       id="tspan238996">after collection</tspan></text>
  <text
     xml:space="preserve"
     transform="matrix(0.74982806,0,0,0.74982806,0,-0.12319422)"
     id="text182752"
     style="fill:black;fill-opacity:1;line-height:1.25;stroke:none;font-family:sans-serif;font-style:normal;font-weight:normal;font-size:40px;white-space:pre;shape-inside:url(#rect182754)"
     inkscape:export-filename="/home/stew/code/gh/futuram/IntegratedModel/FutuRaM_RecoveryModelExplanation.png"
     inkscape:export-xdpi="200"
     inkscape:export-ydpi="200" />
  <text
     xml:space="preserve"
     style="font-style:normal;font-weight:normal;font-size:29.9931px;line-height:1.25;font-family:sans-serif;fill:#000000;fill-opacity:1;stroke:none;stroke-width:0.749828"
     x="448.50061"
     y="568.57648"
     id="text187468"
     inkscape:export-filename="/home/stew/code/gh/futuram/IntegratedModel/FutuRaM_RecoveryModelExplanation.png"
     inkscape:export-xdpi="200"
     inkscape:export-ydpi="200"><tspan
       sodipodi:role="line"
       id="tspan187466"
       style="stroke-width:0.749828"
       x="448.50061"
       y="568.57648">Parameters manipulate</tspan><tspan
       sodipodi:role="line"
       style="stroke-width:0.749828"
       x="448.50061"
       y="606.06787"
       id="tspan187866">any other class</tspan><tspan
       sodipodi:role="line"
       style="stroke-width:0.749828"
       x="448.50061"
       y="643.5592"
       id="tspan188066" /></text>
</svg>
