<?xml version="1.0" encoding="utf-8" standalone="no"?>
<!DOCTYPE svg PUBLIC "-//W3C//DTD SVG 1.1//EN"
  "http://www.w3.org/Graphics/SVG/1.1/DTD/svg11.dtd">
<svg xmlns:xlink="http://www.w3.org/1999/xlink" width="460.8pt" height="345.6pt" viewBox="0 0 460.8 345.6" xmlns="http://www.w3.org/2000/svg" version="1.1">
 <metadata>
  <rdf:RDF xmlns:dc="http://purl.org/dc/elements/1.1/" xmlns:cc="http://creativecommons.org/ns#" xmlns:rdf="http://www.w3.org/1999/02/22-rdf-syntax-ns#">
   <cc:Work>
    <dc:type rdf:resource="http://purl.org/dc/dcmitype/StillImage"/>
    <dc:date>2023-07-31T12:58:26.111226</dc:date>
    <dc:format>image/svg+xml</dc:format>
    <dc:creator>
     <cc:Agent>
      <dc:title>Matplotlib v3.7.2, https://matplotlib.org/</dc:title>
     </cc:Agent>
    </dc:creator>
   </cc:Work>
  </rdf:RDF>
 </metadata>
 <defs>
  <style type="text/css">*{stroke-linejoin: round; stroke-linecap: butt}</style>
 </defs>
 <g id="figure_1">
  <g id="patch_1">
   <path d="M 0 345.6 
L 460.8 345.6 
L 460.8 0 
L 0 0 
z
" style="fill: #ffffff"/>
  </g>
  <g id="axes_1">
   <g id="patch_2">
    <path d="M 382.156444 166.015592 
Q 380.981654 159.66138 380.010126 154.40657 
" clip-path="url(#p4c9e49ecb1)" style="fill: none; stroke: #808080; stroke-linecap: round"/>
    <path d="M 378.770666 158.703515 
L 380.010126 154.40657 
L 382.704007 157.976305 
z
" clip-path="url(#p4c9e49ecb1)" style="fill: #808080; stroke: #808080; stroke-linecap: round"/>
   </g>
   <g id="patch_3">
    <path d="M 373.863283 137.313055 
Q 370.18959 131.025403 367.079916 125.70309 
" clip-path="url(#p4c9e49ecb1)" style="fill: none; stroke: #808080; stroke-linecap: round"/>
    <path d="M 367.370964 130.165745 
L 367.079916 125.70309 
L 370.824669 128.147845 
z
" clip-path="url(#p4c9e49ecb1)" style="fill: #808080; stroke: #808080; stroke-linecap: round"/>
   </g>
   <g id="patch_4">
    <path d="M 369.862689 142.57947 
Q 264.102322 114.636207 159.422895 86.978543 
" clip-path="url(#p4c9e49ecb1)" style="fill: none; stroke: #808080; stroke-linecap: round"/>
    <path d="M 162.779293 89.933978 
L 159.422895 86.978543 
L 163.801082 86.066685 
z
" clip-path="url(#p4c9e49ecb1)" style="fill: #808080; stroke: #808080; stroke-linecap: round"/>
   </g>
   <g id="patch_5">
    <path d="M 371.841345 138.950808 
Q 340.956373 110.728397 310.896745 83.260178 
" clip-path="url(#p4c9e49ecb1)" style="fill: none; stroke: #808080; stroke-linecap: round"/>
    <path d="M 312.500447 87.434881 
L 310.896745 83.260178 
L 315.198728 84.482038 
z
" clip-path="url(#p4c9e49ecb1)" style="fill: #808080; stroke: #808080; stroke-linecap: round"/>
   </g>
   <g id="patch_6">
    <path d="M 371.115912 139.849837 
Q 321.930437 105.699884 273.66334 72.187569 
" clip-path="url(#p4c9e49ecb1)" style="fill: none; stroke: #808080; stroke-linecap: round"/>
    <path d="M 275.808385 76.111697 
L 273.66334 72.187569 
L 278.08967 72.82601 
z
" clip-path="url(#p4c9e49ecb1)" style="fill: #808080; stroke: #808080; stroke-linecap: round"/>
   </g>
   <g id="patch_7">
    <path d="M 370.149588 141.677273 
Q 282.025191 107.730754 194.944098 74.186128 
" clip-path="url(#p4c9e49ecb1)" style="fill: none; stroke: #808080; stroke-linecap: round"/>
    <path d="M 197.957807 77.4903 
L 194.944098 74.186128 
L 199.395661 73.757664 
z
" clip-path="url(#p4c9e49ecb1)" style="fill: #808080; stroke: #808080; stroke-linecap: round"/>
   </g>
   <g id="patch_8">
    <path d="M 372.749776 138.088361 
Q 357.448473 119.382382 342.855051 101.541794 
" clip-path="url(#p4c9e49ecb1)" style="fill: none; stroke: #808080; stroke-linecap: round"/>
    <path d="M 343.839586 105.904212 
L 342.855051 101.541794 
L 346.935707 103.371617 
z
" clip-path="url(#p4c9e49ecb1)" style="fill: #808080; stroke: #808080; stroke-linecap: round"/>
   </g>
   <g id="patch_9">
    <path d="M 376.658003 153.306108 
Q 370.189139 188.294955 363.923537 222.184399 
" clip-path="url(#p4c9e49ecb1)" style="fill: none; stroke: #808080; stroke-linecap: round"/>
    <path d="M 366.617418 218.614664 
L 363.923537 222.184399 
L 362.684077 217.887454 
z
" clip-path="url(#p4c9e49ecb1)" style="fill: #808080; stroke: #808080; stroke-linecap: round"/>
   </g>
   <g id="patch_10">
    <path d="M 370.564519 140.767029 
Q 301.792584 104.677853 234.01065 69.108196 
" clip-path="url(#p4c9e49ecb1)" style="fill: none; stroke: #808080; stroke-linecap: round"/>
    <path d="M 236.623239 72.737848 
L 234.01065 69.108196 
L 238.481925 69.195916 
z
" clip-path="url(#p4c9e49ecb1)" style="fill: #808080; stroke: #808080; stroke-linecap: round"/>
   </g>
   <g id="patch_11">
    <path d="M 333.61214 102.075956 
Q 301.150476 188.206995 269.08311 273.291838 
" clip-path="url(#p4c9e49ecb1)" style="fill: none; stroke: #808080; stroke-linecap: round"/>
    <path d="M 272.365289 270.25419 
L 269.08311 273.291838 
L 268.622299 268.843506 
z
" clip-path="url(#p4c9e49ecb1)" style="fill: #808080; stroke: #808080; stroke-linecap: round"/>
   </g>
   <g id="patch_12">
    <path d="M 328.106147 95.2971 
Q 218.073308 112.295556 109.145397 129.123317 
" clip-path="url(#p4c9e49ecb1)" style="fill: none; stroke: #808080; stroke-linecap: round"/>
    <path d="M 113.403851 130.489174 
L 109.145397 129.123317 
L 112.793154 126.536067 
z
" clip-path="url(#p4c9e49ecb1)" style="fill: #808080; stroke: #808080; stroke-linecap: round"/>
   </g>
   <g id="patch_13">
    <path d="M 328.018669 94.414526 
Q 228.564985 99.471906 130.227892 104.472505 
" clip-path="url(#p4c9e49ecb1)" style="fill: none; stroke: #808080; stroke-linecap: round"/>
    <path d="M 134.324302 106.26678 
L 130.227892 104.472505 
L 134.121158 102.271942 
z
" clip-path="url(#p4c9e49ecb1)" style="fill: #808080; stroke: #808080; stroke-linecap: round"/>
   </g>
   <g id="patch_14">
    <path d="M 332.295086 101.454683 
Q 281.00768 189.234833 230.284294 276.049644 
" clip-path="url(#p4c9e49ecb1)" style="fill: none; stroke: #808080; stroke-linecap: round"/>
    <path d="M 234.029047 273.604889 
L 230.284294 276.049644 
L 230.575342 271.586988 
z
" clip-path="url(#p4c9e49ecb1)" style="fill: #808080; stroke: #808080; stroke-linecap: round"/>
   </g>
   <g id="patch_15">
    <path d="M 295.307002 78.876789 
Q 201.582809 103.639937 108.939557 128.117487 
" clip-path="url(#p4c9e49ecb1)" style="fill: none; stroke: #808080; stroke-linecap: round"/>
    <path d="M 113.317744 129.029345 
L 108.939557 128.117487 
L 112.295955 125.162053 
z
" clip-path="url(#p4c9e49ecb1)" style="fill: #808080; stroke: #808080; stroke-linecap: round"/>
   </g>
   <g id="patch_16">
    <path d="M 295.121564 77.986784 
Q 212.070614 90.816936 130.124592 103.476393 
" clip-path="url(#p4c9e49ecb1)" style="fill: none; stroke: #808080; stroke-linecap: round"/>
    <path d="M 134.383046 104.842249 
L 130.124592 103.476393 
L 133.772349 100.889143 
z
" clip-path="url(#p4c9e49ecb1)" style="fill: #808080; stroke: #808080; stroke-linecap: round"/>
   </g>
   <g id="patch_17">
    <path d="M 300.62543 84.76715 
Q 264.515697 180.57767 228.800262 275.341993 
" clip-path="url(#p4c9e49ecb1)" style="fill: none; stroke: #808080; stroke-linecap: round"/>
    <path d="M 232.082441 272.304346 
L 228.800262 275.341993 
L 228.339451 270.893662 
z
" clip-path="url(#p4c9e49ecb1)" style="fill: #808080; stroke: #808080; stroke-linecap: round"/>
   </g>
   <g id="patch_18">
    <path d="M 268.68729 74.713904 
Q 301.148946 160.84495 333.216304 245.929799 
" clip-path="url(#p4c9e49ecb1)" style="fill: none; stroke: #808080; stroke-linecap: round"/>
    <path d="M 333.677115 241.481467 
L 333.216304 245.929799 
L 329.934125 242.892151 
z
" clip-path="url(#p4c9e49ecb1)" style="fill: #808080; stroke: #808080; stroke-linecap: round"/>
   </g>
   <g id="patch_19">
    <path d="M 258.521079 71.551403 
Q 177.111641 128.074767 96.620581 183.960492 
" clip-path="url(#p4c9e49ecb1)" style="fill: none; stroke: #808080; stroke-linecap: round"/>
    <path d="M 101.046911 183.322051 
L 96.620581 183.960492 
L 98.765626 180.036364 
z
" clip-path="url(#p4c9e49ecb1)" style="fill: #808080; stroke: #808080; stroke-linecap: round"/>
   </g>
   <g id="patch_20">
    <path d="M 218.237888 69.503673 
Q 156.968778 112.043417 96.618045 153.945523 
" clip-path="url(#p4c9e49ecb1)" style="fill: none; stroke: #808080; stroke-linecap: round"/>
    <path d="M 101.044374 153.307082 
L 96.618045 153.945523 
L 98.763089 150.021394 
z
" clip-path="url(#p4c9e49ecb1)" style="fill: #808080; stroke: #808080; stroke-linecap: round"/>
   </g>
   <g id="patch_21">
    <path d="M 217.680979 68.589788 
Q 162.414623 97.591695 108.138267 126.074083 
" clip-path="url(#p4c9e49ecb1)" style="fill: none; stroke: #808080; stroke-linecap: round"/>
    <path d="M 112.609542 125.986363 
L 108.138267 126.074083 
L 110.750856 122.444431 
z
" clip-path="url(#p4c9e49ecb1)" style="fill: #808080; stroke: #808080; stroke-linecap: round"/>
   </g>
   <g id="patch_22">
    <path d="M 190.188344 78.147908 
Q 244.749142 171.53059 298.745919 263.947933 
" clip-path="url(#p4c9e49ecb1)" style="fill: none; stroke: #808080; stroke-linecap: round"/>
    <path d="M 298.454872 259.485277 
L 298.745919 263.947933 
L 295.001167 261.503177 
z
" clip-path="url(#p4c9e49ecb1)" style="fill: #808080; stroke: #808080; stroke-linecap: round"/>
   </g>
   <g id="patch_23">
    <path d="M 178.148955 74.696984 
Q 153.138035 87.821867 129.117115 100.42723 
" clip-path="url(#p4c9e49ecb1)" style="fill: none; stroke: #808080; stroke-linecap: round"/>
    <path d="M 133.588391 100.33951 
L 129.117115 100.42723 
L 131.729705 96.797578 
z
" clip-path="url(#p4c9e49ecb1)" style="fill: #808080; stroke: #808080; stroke-linecap: round"/>
   </g>
   <g id="patch_24">
    <path d="M 155.451726 91.181936 
Q 226.823015 178.433982 297.486423 264.820637 
" clip-path="url(#p4c9e49ecb1)" style="fill: none; stroke: #808080; stroke-linecap: round"/>
    <path d="M 296.501888 260.458219 
L 297.486423 264.820637 
L 293.405768 262.990814 
z
" clip-path="url(#p4c9e49ecb1)" style="fill: #808080; stroke: #808080; stroke-linecap: round"/>
   </g>
   <g id="patch_25">
    <path d="M 148.395488 93.000097 
Q 135.216009 164.285412 122.239792 234.471325 
" clip-path="url(#p4c9e49ecb1)" style="fill: none; stroke: #808080; stroke-linecap: round"/>
    <path d="M 124.933672 230.90159 
L 122.239792 234.471325 
L 121.000332 230.17438 
z
" clip-path="url(#p4c9e49ecb1)" style="fill: #808080; stroke: #808080; stroke-linecap: round"/>
   </g>
   <g id="patch_26">
    <path d="M 146.915199 92.587804 
Q 124.725577 151.46388 102.930254 209.293759 
" clip-path="url(#p4c9e49ecb1)" style="fill: none; stroke: #808080; stroke-linecap: round"/>
    <path d="M 106.212432 206.256111 
L 102.930254 209.293759 
L 102.469443 204.845428 
z
" clip-path="url(#p4c9e49ecb1)" style="fill: #808080; stroke: #808080; stroke-linecap: round"/>
   </g>
   <g id="patch_27">
    <path d="M 122.037074 113.488112 
Q 135.216553 184.773436 148.19277 254.959358 
" clip-path="url(#p4c9e49ecb1)" style="fill: none; stroke: #808080; stroke-linecap: round"/>
    <path d="M 149.432231 250.662413 
L 148.19277 254.959358 
L 145.49889 251.389622 
z
" clip-path="url(#p4c9e49ecb1)" style="fill: #808080; stroke: #808080; stroke-linecap: round"/>
   </g>
   <g id="patch_28">
    <path d="M 127.577996 109.909783 
Q 228.565946 180.026711 328.635518 249.505999 
" clip-path="url(#p4c9e49ecb1)" style="fill: none; stroke: #808080; stroke-linecap: round"/>
    <path d="M 326.490473 245.581871 
L 328.635518 249.505999 
L 324.209188 248.867558 
z
" clip-path="url(#p4c9e49ecb1)" style="fill: #808080; stroke: #808080; stroke-linecap: round"/>
   </g>
   <g id="patch_29">
    <path d="M 103.85296 138.095061 
Q 142.651508 204.500096 180.886037 269.93979 
" clip-path="url(#p4c9e49ecb1)" style="fill: none; stroke: #808080; stroke-linecap: round"/>
    <path d="M 180.594989 265.477135 
L 180.886037 269.93979 
L 177.141284 267.495036 
z
" clip-path="url(#p4c9e49ecb1)" style="fill: #808080; stroke: #808080; stroke-linecap: round"/>
   </g>
   <g id="patch_30">
    <path d="M 107.152055 134.640371 
Q 218.075655 192.849327 328.009255 250.538763 
" clip-path="url(#p4c9e49ecb1)" style="fill: none; stroke: #808080; stroke-linecap: round"/>
    <path d="M 325.396666 246.909111 
L 328.009255 250.538763 
L 323.537979 250.451043 
z
" clip-path="url(#p4c9e49ecb1)" style="fill: #808080; stroke: #808080; stroke-linecap: round"/>
   </g>
   <g id="patch_31">
    <path d="M 379.806146 195.752735 
Q 380.980934 189.398528 381.95246 184.143723 
" clip-path="url(#p4c9e49ecb1)" style="fill: none; stroke: #808080; stroke-linecap: round"/>
    <path d="M 379.258581 187.713459 
L 381.95246 184.143723 
L 383.191921 188.440668 
z
" clip-path="url(#p4c9e49ecb1)" style="fill: #808080; stroke: #808080; stroke-linecap: round"/>
   </g>
   <g id="text_1">
    <g id="patch_32">
     <path d="M 377.666578 158.97819 
L 378.129266 161.480778 
Q 378.347429 162.66078 379.527431 162.442617 
L 383.334167 161.738814 
Q 384.514169 161.520651 384.296006 160.340649 
L 383.833318 157.838061 
Q 383.615155 156.658059 382.435153 156.876222 
L 378.628417 157.580025 
Q 377.448415 157.798188 377.666578 158.97819 
z
" clip-path="url(#p4c9e49ecb1)" style="fill: #ffffff; stroke: #ffffff; stroke-linejoin: miter"/>
    </g>
    <g clip-path="url(#p4c9e49ecb1)">
     <!-- 0 -->
     <g transform="translate(379.664592 158.60879) rotate(-280.474767) scale(0.04 -0.04)">
      <defs>
       <path id="DejaVuSans-30" d="M 2034 4250 
Q 1547 4250 1301 3770 
Q 1056 3291 1056 2328 
Q 1056 1369 1301 889 
Q 1547 409 2034 409 
Q 2525 409 2770 889 
Q 3016 1369 3016 2328 
Q 3016 3291 2770 3770 
Q 2525 4250 2034 4250 
z
M 2034 4750 
Q 2819 4750 3233 4129 
Q 3647 3509 3647 2328 
Q 3647 1150 3233 529 
Q 2819 -91 2034 -91 
Q 1250 -91 836 529 
Q 422 1150 422 2328 
Q 422 3509 836 4129 
Q 1250 4750 2034 4750 
z
" transform="scale(0.015625)"/>
      </defs>
      <use xlink:href="#DejaVuSans-30"/>
     </g>
    </g>
   </g>
   <g id="text_2">
    <g id="patch_33">
     <path d="M 366.840026 131.50813 
L 368.123915 133.70555 
Q 368.729285 134.741662 369.765397 134.136292 
L 373.107936 132.183343 
Q 374.144047 131.577973 373.538677 130.541861 
L 372.254788 128.344441 
Q 371.649418 127.30833 370.613307 127.9137 
L 367.270768 129.866649 
Q 366.234656 130.472019 366.840026 131.50813 
z
" clip-path="url(#p4c9e49ecb1)" style="fill: #ffffff; stroke: #ffffff; stroke-linejoin: miter"/>
    </g>
    <g clip-path="url(#p4c9e49ecb1)">
     <!-- 0 -->
     <g transform="translate(368.594401 130.4831) rotate(-300.296509) scale(0.04 -0.04)">
      <use xlink:href="#DejaVuSans-30"/>
     </g>
    </g>
   </g>
   <g id="text_3">
    <g id="patch_34">
     <path d="M 262.070154 117.342507 
L 264.530719 117.99262 
Q 265.690906 118.299157 265.997443 117.138969 
L 266.986343 113.396156 
Q 267.292879 112.235968 266.132692 111.929432 
L 263.672127 111.279318 
Q 262.51194 110.972782 262.205403 112.132969 
L 261.216503 115.875783 
Q 260.909966 117.035971 262.070154 117.342507 
z
" clip-path="url(#p4c9e49ecb1)" style="fill: #ffffff; stroke: #ffffff; stroke-linejoin: miter"/>
    </g>
    <g clip-path="url(#p4c9e49ecb1)">
     <!-- 0 -->
     <g transform="translate(262.589191 115.378044) rotate(-345.199915) scale(0.04 -0.04)">
      <use xlink:href="#DejaVuSans-30"/>
     </g>
    </g>
   </g>
   <g id="text_4">
    <g id="patch_35">
     <path d="M 337.901151 112.184165 
L 339.779897 113.900946 
Q 340.66575 114.710431 341.475234 113.824578 
L 344.086664 110.96678 
Q 344.896149 110.080927 344.010296 109.271443 
L 342.13155 107.554662 
Q 341.245697 106.745177 340.436213 107.63103 
L 337.824783 110.488828 
Q 337.015298 111.374681 337.901151 112.184165 
z
" clip-path="url(#p4c9e49ecb1)" style="fill: #ffffff; stroke: #ffffff; stroke-linejoin: miter"/>
    </g>
    <g clip-path="url(#p4c9e49ecb1)">
     <!-- 0 -->
     <g transform="translate(339.271794 110.684213) rotate(-317.579211) scale(0.04 -0.04)">
      <use xlink:href="#DejaVuSans-30"/>
     </g>
    </g>
   </g>
   <g id="text_5">
    <g id="patch_36">
     <path d="M 319.099636 107.551745 
L 321.190155 109.003212 
Q 322.175861 109.687598 322.860246 108.701892 
L 325.068102 105.521962 
Q 325.752487 104.536256 324.766781 103.851871 
L 322.676263 102.400403 
Q 321.690557 101.716018 321.006171 102.701724 
L 318.798315 105.881653 
Q 318.11393 106.86736 319.099636 107.551745 
z
" clip-path="url(#p4c9e49ecb1)" style="fill: #ffffff; stroke: #ffffff; stroke-linejoin: miter"/>
    </g>
    <g clip-path="url(#p4c9e49ecb1)">
     <!-- 0 -->
     <g transform="translate(320.258458 105.882719) rotate(-325.227377) scale(0.04 -0.04)">
      <use xlink:href="#DejaVuSans-30"/>
     </g>
    </g>
   </g>
   <g id="text_6">
    <g id="patch_37">
     <path d="M 279.711612 110.199763 
L 282.086502 111.114597 
Q 283.206293 111.545953 283.63765 110.426162 
L 285.029223 106.81367 
Q 285.460579 105.693879 284.340788 105.262523 
L 281.965898 104.347688 
Q 280.846107 103.916332 280.414751 105.036123 
L 279.023178 108.648615 
Q 278.591821 109.768406 279.711612 110.199763 
z
" clip-path="url(#p4c9e49ecb1)" style="fill: #ffffff; stroke: #ffffff; stroke-linejoin: miter"/>
    </g>
    <g clip-path="url(#p4c9e49ecb1)">
     <!-- 0 -->
     <g transform="translate(280.441997 108.3037) rotate(-338.932748) scale(0.04 -0.04)">
      <use xlink:href="#DejaVuSans-30"/>
     </g>
    </g>
   </g>
   <g id="text_7">
    <g id="patch_38">
     <path d="M 354.216093 120.383198 
L 355.827457 122.353104 
Q 356.587235 123.28194 357.516071 122.522162 
L 360.512535 120.071084 
Q 361.441371 119.311306 360.681593 118.38247 
L 359.070229 116.412563 
Q 358.31045 115.483727 357.381614 116.243506 
L 354.38515 118.694583 
Q 353.456314 119.454362 354.216093 120.383198 
z
" clip-path="url(#p4c9e49ecb1)" style="fill: #ffffff; stroke: #ffffff; stroke-linejoin: miter"/>
    </g>
    <g clip-path="url(#p4c9e49ecb1)">
     <!-- 0 -->
     <g transform="translate(355.788825 119.096719) rotate(-309.282822) scale(0.04 -0.04)">
      <use xlink:href="#DejaVuSans-30"/>
     </g>
    </g>
   </g>
   <g id="text_8">
    <g id="patch_39">
     <path d="M 373.041369 190.115212 
L 373.504057 187.612624 
Q 373.72222 186.432622 372.542218 186.214459 
L 368.735482 185.510656 
Q 367.55548 185.292493 367.337317 186.472495 
L 366.874629 188.975083 
Q 366.656466 190.155085 367.836468 190.373248 
L 371.643204 191.077051 
Q 372.823206 191.295214 373.041369 190.115212 
z
" clip-path="url(#p4c9e49ecb1)" style="fill: #ffffff; stroke: #ffffff; stroke-linejoin: miter"/>
    </g>
    <g clip-path="url(#p4c9e49ecb1)">
     <!-- 0 -->
     <g transform="translate(371.043355 189.745812) rotate(-79.525231) scale(0.04 -0.04)">
      <use xlink:href="#DejaVuSans-30"/>
     </g>
    </g>
   </g>
   <g id="text_9">
    <g id="patch_40">
     <path d="M 299.208291 106.86285 
L 301.461846 108.045439 
Q 302.524426 108.603045 303.082032 107.540465 
L 304.880891 104.112538 
Q 305.438497 103.049959 304.375917 102.492353 
L 302.122363 101.309764 
Q 301.059783 100.752158 300.502177 101.814738 
L 298.703317 105.242664 
Q 298.145712 106.305244 299.208291 106.86285 
z
" clip-path="url(#p4c9e49ecb1)" style="fill: #ffffff; stroke: #ffffff; stroke-linejoin: miter"/>
    </g>
    <g clip-path="url(#p4c9e49ecb1)">
     <!-- 0 -->
     <g transform="translate(300.152446 105.063659) rotate(-332.311037) scale(0.04 -0.04)">
      <use xlink:href="#DejaVuSans-30"/>
     </g>
    </g>
   </g>
   <g id="text_10">
    <g id="patch_41">
     <path d="M 303.63509 190.505608 
L 304.532638 188.124131 
Q 304.955843 187.001234 303.832946 186.578029 
L 300.210434 185.212752 
Q 299.087537 184.789547 298.664332 185.912443 
L 297.766784 188.293921 
Q 297.343579 189.416817 298.466476 189.840023 
L 302.088988 191.2053 
Q 303.211885 191.628505 303.63509 190.505608 
z
" clip-path="url(#p4c9e49ecb1)" style="fill: #ffffff; stroke: #ffffff; stroke-linejoin: miter"/>
    </g>
    <g clip-path="url(#p4c9e49ecb1)">
     <!-- 0 -->
     <g transform="translate(301.733768 189.789025) rotate(-69.349229) scale(0.04 -0.04)">
      <use xlink:href="#DejaVuSans-30"/>
     </g>
    </g>
   </g>
   <g id="text_11">
    <g id="patch_42">
     <path d="M 217.295399 115.588553 
L 219.810563 115.199997 
Q 220.996495 115.016788 220.813286 113.830856 
L 220.222246 110.00499 
Q 220.039037 108.819058 218.853105 109.002267 
L 216.337941 109.390823 
Q 215.152009 109.574032 215.335218 110.759964 
L 215.926258 114.58583 
Q 216.109467 115.771762 217.295399 115.588553 
z
" clip-path="url(#p4c9e49ecb1)" style="fill: #ffffff; stroke: #ffffff; stroke-linejoin: miter"/>
    </g>
    <g clip-path="url(#p4c9e49ecb1)">
     <!-- 0 -->
     <g transform="translate(216.985184 113.580498) rotate(-8.781933) scale(0.04 -0.04)">
      <use xlink:href="#DejaVuSans-30"/>
     </g>
    </g>
   </g>
   <g id="text_12">
    <g id="patch_43">
     <path d="M 227.452089 102.668175 
L 229.993805 102.538925 
Q 231.192256 102.477981 231.131313 101.27953 
L 230.934708 97.413276 
Q 230.873764 96.214824 229.675313 96.275767 
L 227.133597 96.405018 
Q 225.935146 96.465961 225.996089 97.664412 
L 226.192694 101.530667 
Q 226.253637 102.729118 227.452089 102.668175 
z
" clip-path="url(#p4c9e49ecb1)" style="fill: #ffffff; stroke: #ffffff; stroke-linejoin: miter"/>
    </g>
    <g clip-path="url(#p4c9e49ecb1)">
     <!-- 0 -->
     <g transform="translate(227.348898 100.638922) rotate(-2.911075) scale(0.04 -0.04)">
      <use xlink:href="#DejaVuSans-30"/>
     </g>
    </g>
   </g>
   <g id="text_13">
    <g id="patch_44">
     <path d="M 283.074052 191.913787 
L 284.357941 189.716367 
Q 284.963311 188.680256 283.927199 188.074885 
L 280.58466 186.121936 
Q 279.548549 185.516566 278.943179 186.552678 
L 277.65929 188.750098 
Q 277.05392 189.786209 278.090031 190.391579 
L 281.43257 192.344528 
Q 282.468682 192.949898 283.074052 191.913787 
z
" clip-path="url(#p4c9e49ecb1)" style="fill: #ffffff; stroke: #ffffff; stroke-linejoin: miter"/>
    </g>
    <g clip-path="url(#p4c9e49ecb1)">
     <!-- 0 -->
     <g transform="translate(281.319678 190.888757) rotate(-59.70349) scale(0.04 -0.04)">
      <use xlink:href="#DejaVuSans-30"/>
     </g>
    </g>
   </g>
   <g id="text_14">
    <g id="patch_45">
     <path d="M 201.151837 106.997031 
L 203.612402 106.346918 
Q 204.772589 106.040382 204.466053 104.880194 
L 203.477153 101.13738 
Q 203.170616 99.977193 202.010429 100.283729 
L 199.549864 100.933842 
Q 198.389676 101.240379 198.696213 102.400567 
L 199.685113 106.14338 
Q 199.99165 107.303568 201.151837 106.997031 
z
" clip-path="url(#p4c9e49ecb1)" style="fill: #ffffff; stroke: #ffffff; stroke-linejoin: miter"/>
    </g>
    <g clip-path="url(#p4c9e49ecb1)">
     <!-- 0 -->
     <g transform="translate(200.6328 105.032568) rotate(-14.800085) scale(0.04 -0.04)">
      <use xlink:href="#DejaVuSans-30"/>
     </g>
    </g>
   </g>
   <g id="text_15">
    <g id="patch_46">
     <path d="M 211.291729 94.110084 
L 213.806893 93.721528 
Q 214.992825 93.538319 214.809616 92.352387 
L 214.218575 88.526521 
Q 214.035366 87.34059 212.849435 87.523799 
L 210.334271 87.912354 
Q 209.148339 88.095564 209.331548 89.281495 
L 209.922588 93.107361 
Q 210.105797 94.293293 211.291729 94.110084 
z
" clip-path="url(#p4c9e49ecb1)" style="fill: #ffffff; stroke: #ffffff; stroke-linejoin: miter"/>
    </g>
    <g clip-path="url(#p4c9e49ecb1)">
     <!-- 0 -->
     <g transform="translate(210.981514 92.102029) rotate(-8.781933) scale(0.04 -0.04)">
      <use xlink:href="#DejaVuSans-30"/>
     </g>
    </g>
   </g>
   <g id="text_16">
    <g id="patch_47">
     <path d="M 267.000875 182.874785 
L 267.898423 180.493308 
Q 268.321628 179.370411 267.198731 178.947206 
L 263.576219 177.581929 
Q 262.453322 177.158723 262.030117 178.28162 
L 261.132569 180.663097 
Q 260.709364 181.785994 261.832261 182.209199 
L 265.454773 183.574477 
Q 266.57767 183.997682 267.000875 182.874785 
z
" clip-path="url(#p4c9e49ecb1)" style="fill: #ffffff; stroke: #ffffff; stroke-linejoin: miter"/>
    </g>
    <g clip-path="url(#p4c9e49ecb1)">
     <!-- 0 -->
     <g transform="translate(265.099554 182.158202) rotate(-69.34923) scale(0.04 -0.04)">
      <use xlink:href="#DejaVuSans-30"/>
     </g>
    </g>
   </g>
   <g id="text_17">
    <g id="patch_48">
     <path d="M 297.766784 160.762086 
L 298.664332 163.143563 
Q 299.087537 164.26646 300.210434 163.843255 
L 303.832946 162.477978 
Q 304.955843 162.054773 304.532638 160.931876 
L 303.63509 158.550398 
Q 303.211885 157.427502 302.088988 157.850707 
L 298.466476 159.215984 
Q 297.343579 159.639189 297.766784 160.762086 
z
" clip-path="url(#p4c9e49ecb1)" style="fill: #ffffff; stroke: #ffffff; stroke-linejoin: miter"/>
    </g>
    <g clip-path="url(#p4c9e49ecb1)">
     <!-- 0 -->
     <g transform="translate(299.668106 160.045503) rotate(-290.650765) scale(0.04 -0.04)">
      <use xlink:href="#DejaVuSans-30"/>
     </g>
    </g>
   </g>
   <g id="text_18">
    <g id="patch_49">
     <path d="M 177.854971 131.37598 
L 179.945489 129.924513 
Q 180.931195 129.240127 180.24681 128.254421 
L 178.038954 125.074492 
Q 177.354569 124.088786 176.368863 124.773171 
L 174.278344 126.224639 
Q 173.292638 126.909024 173.977023 127.89473 
L 176.184879 131.074659 
Q 176.869265 132.060365 177.854971 131.37598 
z
" clip-path="url(#p4c9e49ecb1)" style="fill: #ffffff; stroke: #ffffff; stroke-linejoin: miter"/>
    </g>
    <g clip-path="url(#p4c9e49ecb1)">
     <!-- 0 -->
     <g transform="translate(176.696149 129.706954) rotate(-34.772623) scale(0.04 -0.04)">
      <use xlink:href="#DejaVuSans-30"/>
     </g>
    </g>
   </g>
   <g id="text_19">
    <g id="patch_50">
     <path d="M 157.713866 115.343409 
L 159.804385 113.891941 
Q 160.790091 113.207556 160.105706 112.22185 
L 157.89785 109.041921 
Q 157.213464 108.056215 156.227758 108.7406 
L 154.13724 110.192067 
Q 153.151534 110.876453 153.835919 111.862159 
L 156.043775 115.042088 
Q 156.72816 116.027794 157.713866 115.343409 
z
" clip-path="url(#p4c9e49ecb1)" style="fill: #ffffff; stroke: #ffffff; stroke-linejoin: miter"/>
    </g>
    <g clip-path="url(#p4c9e49ecb1)">
     <!-- 0 -->
     <g transform="translate(156.555045 113.674382) rotate(-34.772627) scale(0.04 -0.04)">
      <use xlink:href="#DejaVuSans-30"/>
     </g>
    </g>
   </g>
   <g id="text_20">
    <g id="patch_51">
     <path d="M 162.747772 100.958015 
L 165.001326 99.775426 
Q 166.063906 99.21782 165.5063 98.155241 
L 163.707441 94.727314 
Q 163.149835 93.664734 162.087255 94.22234 
L 159.833701 95.404929 
Q 158.771121 95.962535 159.328727 97.025115 
L 161.127586 100.453041 
Q 161.685192 101.515621 162.747772 100.958015 
z
" clip-path="url(#p4c9e49ecb1)" style="fill: #ffffff; stroke: #ffffff; stroke-linejoin: miter"/>
    </g>
    <g clip-path="url(#p4c9e49ecb1)">
     <!-- 0 -->
     <g transform="translate(161.803617 99.158824) rotate(-27.688963) scale(0.04 -0.04)">
      <use xlink:href="#DejaVuSans-30"/>
     </g>
    </g>
   </g>
   <g id="text_21">
    <g id="patch_52">
     <path d="M 241.400255 172.014476 
L 242.684144 174.211896 
Q 243.289514 175.248008 244.325626 174.642638 
L 247.668165 172.689689 
Q 248.704276 172.084319 248.098906 171.048208 
L 246.815018 168.850788 
Q 246.209648 167.814676 245.173536 168.420046 
L 241.830997 170.372995 
Q 240.794885 170.978365 241.400255 172.014476 
z
" clip-path="url(#p4c9e49ecb1)" style="fill: #ffffff; stroke: #ffffff; stroke-linejoin: miter"/>
    </g>
    <g clip-path="url(#p4c9e49ecb1)">
     <!-- 0 -->
     <g transform="translate(243.15463 170.989446) rotate(-300.296507) scale(0.04 -0.04)">
      <use xlink:href="#DejaVuSans-30"/>
     </g>
    </g>
   </g>
   <g id="text_22">
    <g id="patch_53">
     <path d="M 153.471317 91.188118 
L 155.724871 90.005529 
Q 156.787451 89.447923 156.229845 88.385343 
L 154.430985 84.957416 
Q 153.87338 83.894837 152.8108 84.452442 
L 150.557245 85.635031 
Q 149.494666 86.192637 150.052271 87.255217 
L 151.851131 90.683144 
Q 152.408737 91.745723 153.471317 91.188118 
z
" clip-path="url(#p4c9e49ecb1)" style="fill: #ffffff; stroke: #ffffff; stroke-linejoin: miter"/>
    </g>
    <g clip-path="url(#p4c9e49ecb1)">
     <!-- 0 -->
     <g transform="translate(152.527162 89.388926) rotate(-27.688965) scale(0.04 -0.04)">
      <use xlink:href="#DejaVuSans-30"/>
     </g>
    </g>
   </g>
   <g id="text_23">
    <g id="patch_54">
     <path d="M 223.592054 179.436532 
L 225.203417 181.406439 
Q 225.963196 182.335275 226.892032 181.575497 
L 229.888496 179.124419 
Q 230.817332 178.364641 230.057554 177.435805 
L 228.44619 175.465898 
Q 227.686412 174.537062 226.757575 175.296841 
L 223.761111 177.747918 
Q 222.832275 178.507696 223.592054 179.436532 
z
" clip-path="url(#p4c9e49ecb1)" style="fill: #ffffff; stroke: #ffffff; stroke-linejoin: miter"/>
    </g>
    <g clip-path="url(#p4c9e49ecb1)">
     <!-- 0 -->
     <g transform="translate(225.164786 178.150053) rotate(-309.282818) scale(0.04 -0.04)">
      <use xlink:href="#DejaVuSans-30"/>
     </g>
    </g>
   </g>
   <g id="text_24">
    <g id="patch_55">
     <path d="M 138.068299 166.105348 
L 138.530986 163.60276 
Q 138.749149 162.422758 137.569147 162.204595 
L 133.762411 161.500792 
Q 132.582409 161.28263 132.364246 162.462632 
L 131.901559 164.965219 
Q 131.683396 166.145222 132.863398 166.363384 
L 136.670134 167.067187 
Q 137.850136 167.28535 138.068299 166.105348 
z
" clip-path="url(#p4c9e49ecb1)" style="fill: #ffffff; stroke: #ffffff; stroke-linejoin: miter"/>
    </g>
    <g clip-path="url(#p4c9e49ecb1)">
     <!-- 0 -->
     <g transform="translate(136.070285 165.735948) rotate(-79.525236) scale(0.04 -0.04)">
      <use xlink:href="#DejaVuSans-30"/>
     </g>
    </g>
   </g>
   <g id="text_25">
    <g id="patch_56">
     <path d="M 127.212211 153.757133 
L 128.109759 151.375656 
Q 128.532964 150.252759 127.410067 149.829554 
L 123.787555 148.464277 
Q 122.664658 148.041071 122.241453 149.163968 
L 121.343906 151.545446 
Q 120.9207 152.668342 122.043597 153.091548 
L 125.666109 154.456825 
Q 126.789006 154.88003 127.212211 153.757133 
z
" clip-path="url(#p4c9e49ecb1)" style="fill: #ffffff; stroke: #ffffff; stroke-linejoin: miter"/>
    </g>
    <g clip-path="url(#p4c9e49ecb1)">
     <!-- 0 -->
     <g transform="translate(125.31089 153.04055) rotate(-69.349231) scale(0.04 -0.04)">
      <use xlink:href="#DejaVuSans-30"/>
     </g>
    </g>
   </g>
   <g id="text_26">
    <g id="patch_57">
     <path d="M 131.901576 184.090784 
L 132.364263 186.593372 
Q 132.582426 187.773374 133.762428 187.555211 
L 137.569164 186.851408 
Q 138.749166 186.633245 138.531004 185.453243 
L 138.068316 182.950655 
Q 137.850154 181.770653 136.670151 181.988816 
L 132.863415 182.692619 
Q 131.683413 182.910782 131.901576 184.090784 
z
" clip-path="url(#p4c9e49ecb1)" style="fill: #ffffff; stroke: #ffffff; stroke-linejoin: miter"/>
    </g>
    <g clip-path="url(#p4c9e49ecb1)">
     <!-- 0 -->
     <g transform="translate(133.89959 183.721384) rotate(-280.474763) scale(0.04 -0.04)">
      <use xlink:href="#DejaVuSans-30"/>
     </g>
    </g>
   </g>
   <g id="text_27">
    <g id="patch_58">
     <path d="M 225.730124 181.875086 
L 227.820642 183.326553 
Q 228.806348 184.010939 229.490734 183.025233 
L 231.69859 179.845304 
Q 232.382975 178.859598 231.397269 178.175212 
L 229.306751 176.723745 
Q 228.321045 176.039359 227.636659 177.025065 
L 225.428803 180.204994 
Q 224.744418 181.1907 225.730124 181.875086 
z
" clip-path="url(#p4c9e49ecb1)" style="fill: #ffffff; stroke: #ffffff; stroke-linejoin: miter"/>
    </g>
    <g clip-path="url(#p4c9e49ecb1)">
     <!-- 0 -->
     <g transform="translate(226.888945 180.20606) rotate(-325.227372) scale(0.04 -0.04)">
      <use xlink:href="#DejaVuSans-30"/>
     </g>
    </g>
   </g>
   <g id="text_28">
    <g id="patch_59">
     <path d="M 139.302286 204.983407 
L 140.586175 207.180827 
Q 141.191545 208.216939 142.227657 207.611569 
L 145.570196 205.658619 
Q 146.606307 205.053249 146.000937 204.017138 
L 144.717048 201.819718 
Q 144.111678 200.783607 143.075566 201.388977 
L 139.733027 203.341926 
Q 138.696916 203.947296 139.302286 204.983407 
z
" clip-path="url(#p4c9e49ecb1)" style="fill: #ffffff; stroke: #ffffff; stroke-linejoin: miter"/>
    </g>
    <g clip-path="url(#p4c9e49ecb1)">
     <!-- 0 -->
     <g transform="translate(141.05666 203.958377) rotate(-300.296513) scale(0.04 -0.04)">
      <use xlink:href="#DejaVuSans-30"/>
     </g>
    </g>
   </g>
   <g id="text_29">
    <g id="patch_60">
     <path d="M 215.490434 195.033836 
L 217.743989 196.216426 
Q 218.806569 196.774032 219.364175 195.711452 
L 221.163035 192.283525 
Q 221.72064 191.220946 220.658061 190.66334 
L 218.404506 189.480751 
Q 217.341927 188.923145 216.784321 189.985724 
L 214.985461 193.413651 
Q 214.427855 194.476231 215.490434 195.033836 
z
" clip-path="url(#p4c9e49ecb1)" style="fill: #ffffff; stroke: #ffffff; stroke-linejoin: miter"/>
    </g>
    <g clip-path="url(#p4c9e49ecb1)">
     <!-- 0 -->
     <g transform="translate(216.434589 193.234645) rotate(-332.31103) scale(0.04 -0.04)">
      <use xlink:href="#DejaVuSans-30"/>
     </g>
    </g>
   </g>
   <g id="text_30">
    <g id="patch_61">
     <path d="M 382.445262 198.725689 
L 385.684071 181.207574 
Q 385.902234 180.027572 384.722232 179.809409 
L 380.915496 179.105607 
Q 379.735494 178.887444 379.517331 180.067446 
L 376.278522 197.585561 
Q 376.060359 198.765563 377.240361 198.983726 
L 381.047097 199.687528 
Q 382.227099 199.905691 382.445262 198.725689 
z
" clip-path="url(#p4c9e49ecb1)" style="fill: #ffffff; stroke: #ffffff; stroke-linejoin: miter"/>
    </g>
    <g clip-path="url(#p4c9e49ecb1)">
     <!-- 1000000 -->
     <g transform="translate(380.447248 198.356289) rotate(-79.525241) scale(0.04 -0.04)">
      <defs>
       <path id="DejaVuSans-31" d="M 794 531 
L 1825 531 
L 1825 4091 
L 703 3866 
L 703 4441 
L 1819 4666 
L 2450 4666 
L 2450 531 
L 3481 531 
L 3481 0 
L 794 0 
L 794 531 
z
" transform="scale(0.015625)"/>
      </defs>
      <use xlink:href="#DejaVuSans-31"/>
      <use xlink:href="#DejaVuSans-30" x="63.623047"/>
      <use xlink:href="#DejaVuSans-30" x="127.246094"/>
      <use xlink:href="#DejaVuSans-30" x="190.869141"/>
      <use xlink:href="#DejaVuSans-30" x="254.492188"/>
      <use xlink:href="#DejaVuSans-30" x="318.115234"/>
      <use xlink:href="#DejaVuSans-30" x="381.738281"/>
     </g>
    </g>
   </g>
   <g id="PathCollection_1">
    <defs>
     <path id="C0_0_06f19fefad" d="M 0 8.660254 
C 2.296726 8.660254 4.499694 7.747755 6.123724 6.123724 
C 7.747755 4.499694 8.660254 2.296726 8.660254 -0 
C 8.660254 -2.296726 7.747755 -4.499694 6.123724 -6.123724 
C 4.499694 -7.747755 2.296726 -8.660254 0 -8.660254 
C -2.296726 -8.660254 -4.499694 -7.747755 -6.123724 -6.123724 
C -7.747755 -4.499694 -8.660254 -2.296726 -8.660254 0 
C -8.660254 2.296726 -7.747755 4.499694 -6.123724 6.123724 
C -4.499694 7.747755 -2.296726 8.660254 0 8.660254 
z
"/>
    </defs>
    <g clip-path="url(#p4c9e49ecb1)">
     <use xlink:href="#C0_0_06f19fefad" x="383.730248" y="174.528" style="fill: #d62728; stroke: #d62728"/>
    </g>
    <g clip-path="url(#p4c9e49ecb1)">
     <use xlink:href="#C0_0_06f19fefad" x="378.232336" y="144.790839" style="fill: #9467bd; stroke: #9467bd"/>
    </g>
    <g clip-path="url(#p4c9e49ecb1)">
     <use xlink:href="#C0_0_06f19fefad" x="362.146367" y="117.259152" style="fill: #9467bd; stroke: #9467bd"/>
    </g>
    <g clip-path="url(#p4c9e49ecb1)">
     <use xlink:href="#C0_0_06f19fefad" x="336.665349" y="93.974829" style="fill: #2ca02c; stroke: #2ca02c"/>
    </g>
    <g clip-path="url(#p4c9e49ecb1)">
     <use xlink:href="#C0_0_06f19fefad" x="303.679111" y="76.664769" style="fill: #2ca02c; stroke: #2ca02c"/>
    </g>
    <g clip-path="url(#p4c9e49ecb1)">
     <use xlink:href="#C0_0_06f19fefad" x="265.634081" y="66.612777" style="fill: #1f77b4; stroke: #1f77b4"/>
    </g>
    <g clip-path="url(#p4c9e49ecb1)">
     <use xlink:href="#C0_0_06f19fefad" x="225.351873" y="64.564364" style="fill: #2ca02c; stroke: #2ca02c"/>
    </g>
    <g clip-path="url(#p4c9e49ecb1)">
     <use xlink:href="#C0_0_06f19fefad" x="185.820064" y="70.671446" style="fill: #2ca02c; stroke: #2ca02c"/>
    </g>
    <g clip-path="url(#p4c9e49ecb1)">
     <use xlink:href="#C0_0_06f19fefad" x="149.97051" y="84.4811" style="fill: #2ca02c; stroke: #2ca02c"/>
    </g>
    <g clip-path="url(#p4c9e49ecb1)">
     <use xlink:href="#C0_0_06f19fefad" x="120.462052" y="104.969114" style="fill: #1f77b4; stroke: #1f77b4"/>
    </g>
    <g clip-path="url(#p4c9e49ecb1)">
     <use xlink:href="#C0_0_06f19fefad" x="99.483155" y="130.615992" style="fill: #1f77b4; stroke: #1f77b4"/>
    </g>
    <g clip-path="url(#p4c9e49ecb1)">
     <use xlink:href="#C0_0_06f19fefad" x="88.589752" y="159.519645" style="fill: #d62728; stroke: #d62728"/>
    </g>
    <g clip-path="url(#p4c9e49ecb1)">
     <use xlink:href="#C0_0_06f19fefad" x="88.589752" y="189.536375" style="fill: #d62728; stroke: #d62728"/>
    </g>
    <g clip-path="url(#p4c9e49ecb1)">
     <use xlink:href="#C0_0_06f19fefad" x="99.483155" y="218.440002" style="fill: #d62728; stroke: #d62728"/>
    </g>
    <g clip-path="url(#p4c9e49ecb1)">
     <use xlink:href="#C0_0_06f19fefad" x="120.462035" y="244.08688" style="fill: #d62728; stroke: #d62728"/>
    </g>
    <g clip-path="url(#p4c9e49ecb1)">
     <use xlink:href="#C0_0_06f19fefad" x="149.970528" y="264.574913" style="fill: #d62728; stroke: #d62728"/>
    </g>
    <g clip-path="url(#p4c9e49ecb1)">
     <use xlink:href="#C0_0_06f19fefad" x="185.820069" y="278.384554" style="fill: #d62728; stroke: #d62728"/>
    </g>
    <g clip-path="url(#p4c9e49ecb1)">
     <use xlink:href="#C0_0_06f19fefad" x="225.351881" y="284.491636" style="fill: #d62728; stroke: #d62728"/>
    </g>
    <g clip-path="url(#p4c9e49ecb1)">
     <use xlink:href="#C0_0_06f19fefad" x="265.634073" y="282.443223" style="fill: #d62728; stroke: #d62728"/>
    </g>
    <g clip-path="url(#p4c9e49ecb1)">
     <use xlink:href="#C0_0_06f19fefad" x="303.679098" y="272.391238" style="fill: #d62728; stroke: #d62728"/>
    </g>
    <g clip-path="url(#p4c9e49ecb1)">
     <use xlink:href="#C0_0_06f19fefad" x="336.665341" y="255.081185" style="fill: #d62728; stroke: #d62728"/>
    </g>
    <g clip-path="url(#p4c9e49ecb1)">
     <use xlink:href="#C0_0_06f19fefad" x="362.14635" y="231.796868" style="fill: #d62728; stroke: #d62728"/>
    </g>
    <g clip-path="url(#p4c9e49ecb1)">
     <use xlink:href="#C0_0_06f19fefad" x="378.232345" y="204.265135" style="fill: #ff7f0e; stroke: #ff7f0e"/>
    </g>
   </g>
   <g id="text_31">
    <g clip-path="url(#p4c9e49ecb1)">
     <!-- collection -->
     <g transform="translate(369.336342 172.824281) scale(0.06 -0.06)">
      <defs>
       <path id="DejaVuSans-63" d="M 3122 3366 
L 3122 2828 
Q 2878 2963 2633 3030 
Q 2388 3097 2138 3097 
Q 1578 3097 1268 2742 
Q 959 2388 959 1747 
Q 959 1106 1268 751 
Q 1578 397 2138 397 
Q 2388 397 2633 464 
Q 2878 531 3122 666 
L 3122 134 
Q 2881 22 2623 -34 
Q 2366 -91 2075 -91 
Q 1284 -91 818 406 
Q 353 903 353 1747 
Q 353 2603 823 3093 
Q 1294 3584 2113 3584 
Q 2378 3584 2631 3529 
Q 2884 3475 3122 3366 
z
" transform="scale(0.015625)"/>
       <path id="DejaVuSans-6f" d="M 1959 3097 
Q 1497 3097 1228 2736 
Q 959 2375 959 1747 
Q 959 1119 1226 758 
Q 1494 397 1959 397 
Q 2419 397 2687 759 
Q 2956 1122 2956 1747 
Q 2956 2369 2687 2733 
Q 2419 3097 1959 3097 
z
M 1959 3584 
Q 2709 3584 3137 3096 
Q 3566 2609 3566 1747 
Q 3566 888 3137 398 
Q 2709 -91 1959 -91 
Q 1206 -91 779 398 
Q 353 888 353 1747 
Q 353 2609 779 3096 
Q 1206 3584 1959 3584 
z
" transform="scale(0.015625)"/>
       <path id="DejaVuSans-6c" d="M 603 4863 
L 1178 4863 
L 1178 0 
L 603 0 
L 603 4863 
z
" transform="scale(0.015625)"/>
       <path id="DejaVuSans-65" d="M 3597 1894 
L 3597 1613 
L 953 1613 
Q 991 1019 1311 708 
Q 1631 397 2203 397 
Q 2534 397 2845 478 
Q 3156 559 3463 722 
L 3463 178 
Q 3153 47 2828 -22 
Q 2503 -91 2169 -91 
Q 1331 -91 842 396 
Q 353 884 353 1716 
Q 353 2575 817 3079 
Q 1281 3584 2069 3584 
Q 2775 3584 3186 3129 
Q 3597 2675 3597 1894 
z
M 3022 2063 
Q 3016 2534 2758 2815 
Q 2500 3097 2075 3097 
Q 1594 3097 1305 2825 
Q 1016 2553 972 2059 
L 3022 2063 
z
" transform="scale(0.015625)"/>
       <path id="DejaVuSans-74" d="M 1172 4494 
L 1172 3500 
L 2356 3500 
L 2356 3053 
L 1172 3053 
L 1172 1153 
Q 1172 725 1289 603 
Q 1406 481 1766 481 
L 2356 481 
L 2356 0 
L 1766 0 
Q 1100 0 847 248 
Q 594 497 594 1153 
L 594 3053 
L 172 3053 
L 172 3500 
L 594 3500 
L 594 4494 
L 1172 4494 
z
" transform="scale(0.015625)"/>
       <path id="DejaVuSans-69" d="M 603 3500 
L 1178 3500 
L 1178 0 
L 603 0 
L 603 3500 
z
M 603 4863 
L 1178 4863 
L 1178 4134 
L 603 4134 
L 603 4863 
z
" transform="scale(0.015625)"/>
       <path id="DejaVuSans-6e" d="M 3513 2113 
L 3513 0 
L 2938 0 
L 2938 2094 
Q 2938 2591 2744 2837 
Q 2550 3084 2163 3084 
Q 1697 3084 1428 2787 
Q 1159 2491 1159 1978 
L 1159 0 
L 581 0 
L 581 3500 
L 1159 3500 
L 1159 2956 
Q 1366 3272 1645 3428 
Q 1925 3584 2291 3584 
Q 2894 3584 3203 3211 
Q 3513 2838 3513 2113 
z
" transform="scale(0.015625)"/>
      </defs>
      <use xlink:href="#DejaVuSans-63"/>
      <use xlink:href="#DejaVuSans-6f" x="54.980469"/>
      <use xlink:href="#DejaVuSans-6c" x="116.162109"/>
      <use xlink:href="#DejaVuSans-6c" x="143.945312"/>
      <use xlink:href="#DejaVuSans-65" x="171.728516"/>
      <use xlink:href="#DejaVuSans-63" x="233.251953"/>
      <use xlink:href="#DejaVuSans-74" x="288.232422"/>
      <use xlink:href="#DejaVuSans-69" x="327.441406"/>
      <use xlink:href="#DejaVuSans-6f" x="355.224609"/>
      <use xlink:href="#DejaVuSans-6e" x="416.40625"/>
     </g>
    </g>
    <g clip-path="url(#p4c9e49ecb1)">
     <!-- ICE -->
     <g transform="translate(378.854779 179.542969) scale(0.06 -0.06)">
      <defs>
       <path id="DejaVuSans-49" d="M 628 4666 
L 1259 4666 
L 1259 0 
L 628 0 
L 628 4666 
z
" transform="scale(0.015625)"/>
       <path id="DejaVuSans-43" d="M 4122 4306 
L 4122 3641 
Q 3803 3938 3442 4084 
Q 3081 4231 2675 4231 
Q 1875 4231 1450 3742 
Q 1025 3253 1025 2328 
Q 1025 1406 1450 917 
Q 1875 428 2675 428 
Q 3081 428 3442 575 
Q 3803 722 4122 1019 
L 4122 359 
Q 3791 134 3420 21 
Q 3050 -91 2638 -91 
Q 1578 -91 968 557 
Q 359 1206 359 2328 
Q 359 3453 968 4101 
Q 1578 4750 2638 4750 
Q 3056 4750 3426 4639 
Q 3797 4528 4122 4306 
z
" transform="scale(0.015625)"/>
       <path id="DejaVuSans-45" d="M 628 4666 
L 3578 4666 
L 3578 4134 
L 1259 4134 
L 1259 2753 
L 3481 2753 
L 3481 2222 
L 1259 2222 
L 1259 531 
L 3634 531 
L 3634 0 
L 628 0 
L 628 4666 
z
" transform="scale(0.015625)"/>
      </defs>
      <use xlink:href="#DejaVuSans-49"/>
      <use xlink:href="#DejaVuSans-43" x="29.492188"/>
      <use xlink:href="#DejaVuSans-45" x="99.316406"/>
     </g>
    </g>
   </g>
   <g id="text_32">
    <g clip-path="url(#p4c9e49ecb1)">
     <!-- dismantling -->
     <g transform="translate(360.62093 143.08712) scale(0.06 -0.06)">
      <defs>
       <path id="DejaVuSans-64" d="M 2906 2969 
L 2906 4863 
L 3481 4863 
L 3481 0 
L 2906 0 
L 2906 525 
Q 2725 213 2448 61 
Q 2172 -91 1784 -91 
Q 1150 -91 751 415 
Q 353 922 353 1747 
Q 353 2572 751 3078 
Q 1150 3584 1784 3584 
Q 2172 3584 2448 3432 
Q 2725 3281 2906 2969 
z
M 947 1747 
Q 947 1113 1208 752 
Q 1469 391 1925 391 
Q 2381 391 2643 752 
Q 2906 1113 2906 1747 
Q 2906 2381 2643 2742 
Q 2381 3103 1925 3103 
Q 1469 3103 1208 2742 
Q 947 2381 947 1747 
z
" transform="scale(0.015625)"/>
       <path id="DejaVuSans-73" d="M 2834 3397 
L 2834 2853 
Q 2591 2978 2328 3040 
Q 2066 3103 1784 3103 
Q 1356 3103 1142 2972 
Q 928 2841 928 2578 
Q 928 2378 1081 2264 
Q 1234 2150 1697 2047 
L 1894 2003 
Q 2506 1872 2764 1633 
Q 3022 1394 3022 966 
Q 3022 478 2636 193 
Q 2250 -91 1575 -91 
Q 1294 -91 989 -36 
Q 684 19 347 128 
L 347 722 
Q 666 556 975 473 
Q 1284 391 1588 391 
Q 1994 391 2212 530 
Q 2431 669 2431 922 
Q 2431 1156 2273 1281 
Q 2116 1406 1581 1522 
L 1381 1569 
Q 847 1681 609 1914 
Q 372 2147 372 2553 
Q 372 3047 722 3315 
Q 1072 3584 1716 3584 
Q 2034 3584 2315 3537 
Q 2597 3491 2834 3397 
z
" transform="scale(0.015625)"/>
       <path id="DejaVuSans-6d" d="M 3328 2828 
Q 3544 3216 3844 3400 
Q 4144 3584 4550 3584 
Q 5097 3584 5394 3201 
Q 5691 2819 5691 2113 
L 5691 0 
L 5113 0 
L 5113 2094 
Q 5113 2597 4934 2840 
Q 4756 3084 4391 3084 
Q 3944 3084 3684 2787 
Q 3425 2491 3425 1978 
L 3425 0 
L 2847 0 
L 2847 2094 
Q 2847 2600 2669 2842 
Q 2491 3084 2119 3084 
Q 1678 3084 1418 2786 
Q 1159 2488 1159 1978 
L 1159 0 
L 581 0 
L 581 3500 
L 1159 3500 
L 1159 2956 
Q 1356 3278 1631 3431 
Q 1906 3584 2284 3584 
Q 2666 3584 2933 3390 
Q 3200 3197 3328 2828 
z
" transform="scale(0.015625)"/>
       <path id="DejaVuSans-61" d="M 2194 1759 
Q 1497 1759 1228 1600 
Q 959 1441 959 1056 
Q 959 750 1161 570 
Q 1363 391 1709 391 
Q 2188 391 2477 730 
Q 2766 1069 2766 1631 
L 2766 1759 
L 2194 1759 
z
M 3341 1997 
L 3341 0 
L 2766 0 
L 2766 531 
Q 2569 213 2275 61 
Q 1981 -91 1556 -91 
Q 1019 -91 701 211 
Q 384 513 384 1019 
Q 384 1609 779 1909 
Q 1175 2209 1959 2209 
L 2766 2209 
L 2766 2266 
Q 2766 2663 2505 2880 
Q 2244 3097 1772 3097 
Q 1472 3097 1187 3025 
Q 903 2953 641 2809 
L 641 3341 
Q 956 3463 1253 3523 
Q 1550 3584 1831 3584 
Q 2591 3584 2966 3190 
Q 3341 2797 3341 1997 
z
" transform="scale(0.015625)"/>
       <path id="DejaVuSans-67" d="M 2906 1791 
Q 2906 2416 2648 2759 
Q 2391 3103 1925 3103 
Q 1463 3103 1205 2759 
Q 947 2416 947 1791 
Q 947 1169 1205 825 
Q 1463 481 1925 481 
Q 2391 481 2648 825 
Q 2906 1169 2906 1791 
z
M 3481 434 
Q 3481 -459 3084 -895 
Q 2688 -1331 1869 -1331 
Q 1566 -1331 1297 -1286 
Q 1028 -1241 775 -1147 
L 775 -588 
Q 1028 -725 1275 -790 
Q 1522 -856 1778 -856 
Q 2344 -856 2625 -561 
Q 2906 -266 2906 331 
L 2906 616 
Q 2728 306 2450 153 
Q 2172 0 1784 0 
Q 1141 0 747 490 
Q 353 981 353 1791 
Q 353 2603 747 3093 
Q 1141 3584 1784 3584 
Q 2172 3584 2450 3431 
Q 2728 3278 2906 2969 
L 2906 3500 
L 3481 3500 
L 3481 434 
z
" transform="scale(0.015625)"/>
      </defs>
      <use xlink:href="#DejaVuSans-64"/>
      <use xlink:href="#DejaVuSans-69" x="63.476562"/>
      <use xlink:href="#DejaVuSans-73" x="91.259766"/>
      <use xlink:href="#DejaVuSans-6d" x="143.359375"/>
      <use xlink:href="#DejaVuSans-61" x="240.771484"/>
      <use xlink:href="#DejaVuSans-6e" x="302.050781"/>
      <use xlink:href="#DejaVuSans-74" x="365.429688"/>
      <use xlink:href="#DejaVuSans-6c" x="404.638672"/>
      <use xlink:href="#DejaVuSans-69" x="432.421875"/>
      <use xlink:href="#DejaVuSans-6e" x="460.205078"/>
      <use xlink:href="#DejaVuSans-67" x="523.583984"/>
     </g>
    </g>
    <g clip-path="url(#p4c9e49ecb1)">
     <!-- ICE -->
     <g transform="translate(373.356867 149.805808) scale(0.06 -0.06)">
      <use xlink:href="#DejaVuSans-49"/>
      <use xlink:href="#DejaVuSans-43" x="29.492188"/>
      <use xlink:href="#DejaVuSans-45" x="99.316406"/>
     </g>
    </g>
   </g>
   <g id="text_33">
    <g clip-path="url(#p4c9e49ecb1)">
     <!-- market -->
     <g transform="translate(351.501992 112.19609) scale(0.06 -0.06)">
      <defs>
       <path id="DejaVuSans-72" d="M 2631 2963 
Q 2534 3019 2420 3045 
Q 2306 3072 2169 3072 
Q 1681 3072 1420 2755 
Q 1159 2438 1159 1844 
L 1159 0 
L 581 0 
L 581 3500 
L 1159 3500 
L 1159 2956 
Q 1341 3275 1631 3429 
Q 1922 3584 2338 3584 
Q 2397 3584 2469 3576 
Q 2541 3569 2628 3553 
L 2631 2963 
z
" transform="scale(0.015625)"/>
       <path id="DejaVuSans-6b" d="M 581 4863 
L 1159 4863 
L 1159 1991 
L 2875 3500 
L 3609 3500 
L 1753 1863 
L 3688 0 
L 2938 0 
L 1159 1709 
L 1159 0 
L 581 0 
L 581 4863 
z
" transform="scale(0.015625)"/>
      </defs>
      <use xlink:href="#DejaVuSans-6d"/>
      <use xlink:href="#DejaVuSans-61" x="97.412109"/>
      <use xlink:href="#DejaVuSans-72" x="158.691406"/>
      <use xlink:href="#DejaVuSans-6b" x="199.804688"/>
      <use xlink:href="#DejaVuSans-65" x="254.089844"/>
      <use xlink:href="#DejaVuSans-74" x="315.613281"/>
     </g>
    </g>
    <g clip-path="url(#p4c9e49ecb1)">
     <!-- reuse -->
     <g transform="translate(353.824649 118.914777) scale(0.06 -0.06)">
      <defs>
       <path id="DejaVuSans-75" d="M 544 1381 
L 544 3500 
L 1119 3500 
L 1119 1403 
Q 1119 906 1312 657 
Q 1506 409 1894 409 
Q 2359 409 2629 706 
Q 2900 1003 2900 1516 
L 2900 3500 
L 3475 3500 
L 3475 0 
L 2900 0 
L 2900 538 
Q 2691 219 2414 64 
Q 2138 -91 1772 -91 
Q 1169 -91 856 284 
Q 544 659 544 1381 
z
M 1991 3584 
L 1991 3584 
z
" transform="scale(0.015625)"/>
      </defs>
      <use xlink:href="#DejaVuSans-72"/>
      <use xlink:href="#DejaVuSans-65" x="38.863281"/>
      <use xlink:href="#DejaVuSans-75" x="100.386719"/>
      <use xlink:href="#DejaVuSans-73" x="163.765625"/>
      <use xlink:href="#DejaVuSans-65" x="215.865234"/>
     </g>
    </g>
    <g clip-path="url(#p4c9e49ecb1)">
     <!-- ELVcomponents -->
     <g transform="translate(338.322149 125.633465) scale(0.06 -0.06)">
      <defs>
       <path id="DejaVuSans-4c" d="M 628 4666 
L 1259 4666 
L 1259 531 
L 3531 531 
L 3531 0 
L 628 0 
L 628 4666 
z
" transform="scale(0.015625)"/>
       <path id="DejaVuSans-56" d="M 1831 0 
L 50 4666 
L 709 4666 
L 2188 738 
L 3669 4666 
L 4325 4666 
L 2547 0 
L 1831 0 
z
" transform="scale(0.015625)"/>
       <path id="DejaVuSans-70" d="M 1159 525 
L 1159 -1331 
L 581 -1331 
L 581 3500 
L 1159 3500 
L 1159 2969 
Q 1341 3281 1617 3432 
Q 1894 3584 2278 3584 
Q 2916 3584 3314 3078 
Q 3713 2572 3713 1747 
Q 3713 922 3314 415 
Q 2916 -91 2278 -91 
Q 1894 -91 1617 61 
Q 1341 213 1159 525 
z
M 3116 1747 
Q 3116 2381 2855 2742 
Q 2594 3103 2138 3103 
Q 1681 3103 1420 2742 
Q 1159 2381 1159 1747 
Q 1159 1113 1420 752 
Q 1681 391 2138 391 
Q 2594 391 2855 752 
Q 3116 1113 3116 1747 
z
" transform="scale(0.015625)"/>
      </defs>
      <use xlink:href="#DejaVuSans-45"/>
      <use xlink:href="#DejaVuSans-4c" x="63.183594"/>
      <use xlink:href="#DejaVuSans-56" x="107.896484"/>
      <use xlink:href="#DejaVuSans-63" x="176.304688"/>
      <use xlink:href="#DejaVuSans-6f" x="231.285156"/>
      <use xlink:href="#DejaVuSans-6d" x="292.466797"/>
      <use xlink:href="#DejaVuSans-70" x="389.878906"/>
      <use xlink:href="#DejaVuSans-6f" x="453.355469"/>
      <use xlink:href="#DejaVuSans-6e" x="514.537109"/>
      <use xlink:href="#DejaVuSans-65" x="577.916016"/>
      <use xlink:href="#DejaVuSans-6e" x="639.439453"/>
      <use xlink:href="#DejaVuSans-74" x="702.818359"/>
      <use xlink:href="#DejaVuSans-73" x="742.027344"/>
     </g>
    </g>
   </g>
   <g id="text_34">
    <g clip-path="url(#p4c9e49ecb1)">
     <!-- shredding -->
     <g transform="translate(321.741287 92.27111) scale(0.06 -0.06)">
      <defs>
       <path id="DejaVuSans-68" d="M 3513 2113 
L 3513 0 
L 2938 0 
L 2938 2094 
Q 2938 2591 2744 2837 
Q 2550 3084 2163 3084 
Q 1697 3084 1428 2787 
Q 1159 2491 1159 1978 
L 1159 0 
L 581 0 
L 581 4863 
L 1159 4863 
L 1159 2956 
Q 1366 3272 1645 3428 
Q 1925 3584 2291 3584 
Q 2894 3584 3203 3211 
Q 3513 2838 3513 2113 
z
" transform="scale(0.015625)"/>
      </defs>
      <use xlink:href="#DejaVuSans-73"/>
      <use xlink:href="#DejaVuSans-68" x="52.099609"/>
      <use xlink:href="#DejaVuSans-72" x="115.478516"/>
      <use xlink:href="#DejaVuSans-65" x="154.341797"/>
      <use xlink:href="#DejaVuSans-64" x="215.865234"/>
      <use xlink:href="#DejaVuSans-64" x="279.341797"/>
      <use xlink:href="#DejaVuSans-69" x="342.818359"/>
      <use xlink:href="#DejaVuSans-6e" x="370.601562"/>
      <use xlink:href="#DejaVuSans-67" x="433.980469"/>
     </g>
    </g>
    <g clip-path="url(#p4c9e49ecb1)">
     <!-- engtrans -->
     <g transform="translate(323.301756 98.989797) scale(0.06 -0.06)">
      <use xlink:href="#DejaVuSans-65"/>
      <use xlink:href="#DejaVuSans-6e" x="61.523438"/>
      <use xlink:href="#DejaVuSans-67" x="124.902344"/>
      <use xlink:href="#DejaVuSans-74" x="188.378906"/>
      <use xlink:href="#DejaVuSans-72" x="227.587891"/>
      <use xlink:href="#DejaVuSans-61" x="268.701172"/>
      <use xlink:href="#DejaVuSans-6e" x="329.980469"/>
      <use xlink:href="#DejaVuSans-73" x="393.359375"/>
     </g>
    </g>
   </g>
   <g id="text_35">
    <g clip-path="url(#p4c9e49ecb1)">
     <!-- hammermill -->
     <g transform="translate(285.64583 74.96105) scale(0.06 -0.06)">
      <use xlink:href="#DejaVuSans-68"/>
      <use xlink:href="#DejaVuSans-61" x="63.378906"/>
      <use xlink:href="#DejaVuSans-6d" x="124.658203"/>
      <use xlink:href="#DejaVuSans-6d" x="222.070312"/>
      <use xlink:href="#DejaVuSans-65" x="319.482422"/>
      <use xlink:href="#DejaVuSans-72" x="381.005859"/>
      <use xlink:href="#DejaVuSans-6d" x="420.369141"/>
      <use xlink:href="#DejaVuSans-69" x="517.78125"/>
      <use xlink:href="#DejaVuSans-6c" x="545.564453"/>
      <use xlink:href="#DejaVuSans-6c" x="573.347656"/>
     </g>
    </g>
    <g clip-path="url(#p4c9e49ecb1)">
     <!-- body -->
     <g transform="translate(296.258799 81.679738) scale(0.06 -0.06)">
      <defs>
       <path id="DejaVuSans-62" d="M 3116 1747 
Q 3116 2381 2855 2742 
Q 2594 3103 2138 3103 
Q 1681 3103 1420 2742 
Q 1159 2381 1159 1747 
Q 1159 1113 1420 752 
Q 1681 391 2138 391 
Q 2594 391 2855 752 
Q 3116 1113 3116 1747 
z
M 1159 2969 
Q 1341 3281 1617 3432 
Q 1894 3584 2278 3584 
Q 2916 3584 3314 3078 
Q 3713 2572 3713 1747 
Q 3713 922 3314 415 
Q 2916 -91 2278 -91 
Q 1894 -91 1617 61 
Q 1341 213 1159 525 
L 1159 0 
L 581 0 
L 581 4863 
L 1159 4863 
L 1159 2969 
z
" transform="scale(0.015625)"/>
       <path id="DejaVuSans-79" d="M 2059 -325 
Q 1816 -950 1584 -1140 
Q 1353 -1331 966 -1331 
L 506 -1331 
L 506 -850 
L 844 -850 
Q 1081 -850 1212 -737 
Q 1344 -625 1503 -206 
L 1606 56 
L 191 3500 
L 800 3500 
L 1894 763 
L 2988 3500 
L 3597 3500 
L 2059 -325 
z
" transform="scale(0.015625)"/>
      </defs>
      <use xlink:href="#DejaVuSans-62"/>
      <use xlink:href="#DejaVuSans-6f" x="63.476562"/>
      <use xlink:href="#DejaVuSans-64" x="124.658203"/>
      <use xlink:href="#DejaVuSans-79" x="188.134766"/>
     </g>
    </g>
   </g>
   <g id="text_36">
    <g clip-path="url(#p4c9e49ecb1)">
     <!-- smelter -->
     <g transform="translate(254.214394 64.909058) scale(0.06 -0.06)">
      <use xlink:href="#DejaVuSans-73"/>
      <use xlink:href="#DejaVuSans-6d" x="52.099609"/>
      <use xlink:href="#DejaVuSans-65" x="149.511719"/>
      <use xlink:href="#DejaVuSans-6c" x="211.035156"/>
      <use xlink:href="#DejaVuSans-74" x="238.818359"/>
      <use xlink:href="#DejaVuSans-65" x="278.027344"/>
      <use xlink:href="#DejaVuSans-72" x="339.550781"/>
     </g>
    </g>
    <g clip-path="url(#p4c9e49ecb1)">
     <!-- cc -->
     <g transform="translate(262.335019 71.627746) scale(0.06 -0.06)">
      <use xlink:href="#DejaVuSans-63"/>
      <use xlink:href="#DejaVuSans-63" x="54.980469"/>
     </g>
    </g>
   </g>
   <g id="text_37">
    <g clip-path="url(#p4c9e49ecb1)">
     <!-- shredding -->
     <g transform="translate(210.42781 62.860645) scale(0.06 -0.06)">
      <use xlink:href="#DejaVuSans-73"/>
      <use xlink:href="#DejaVuSans-68" x="52.099609"/>
      <use xlink:href="#DejaVuSans-72" x="115.478516"/>
      <use xlink:href="#DejaVuSans-65" x="154.341797"/>
      <use xlink:href="#DejaVuSans-64" x="215.865234"/>
      <use xlink:href="#DejaVuSans-64" x="279.341797"/>
      <use xlink:href="#DejaVuSans-69" x="342.818359"/>
      <use xlink:href="#DejaVuSans-6e" x="370.601562"/>
      <use xlink:href="#DejaVuSans-67" x="433.980469"/>
     </g>
    </g>
    <g clip-path="url(#p4c9e49ecb1)">
     <!-- tyre -->
     <g transform="translate(219.388435 69.579332) scale(0.06 -0.06)">
      <use xlink:href="#DejaVuSans-74"/>
      <use xlink:href="#DejaVuSans-79" x="39.208984"/>
      <use xlink:href="#DejaVuSans-72" x="98.388672"/>
      <use xlink:href="#DejaVuSans-65" x="137.251953"/>
     </g>
    </g>
   </g>
   <g id="text_38">
    <g clip-path="url(#p4c9e49ecb1)">
     <!-- shredding -->
     <g transform="translate(170.896002 68.967728) scale(0.06 -0.06)">
      <use xlink:href="#DejaVuSans-73"/>
      <use xlink:href="#DejaVuSans-68" x="52.099609"/>
      <use xlink:href="#DejaVuSans-72" x="115.478516"/>
      <use xlink:href="#DejaVuSans-65" x="154.341797"/>
      <use xlink:href="#DejaVuSans-64" x="215.865234"/>
      <use xlink:href="#DejaVuSans-64" x="279.341797"/>
      <use xlink:href="#DejaVuSans-69" x="342.818359"/>
      <use xlink:href="#DejaVuSans-6e" x="370.601562"/>
      <use xlink:href="#DejaVuSans-67" x="433.980469"/>
     </g>
    </g>
    <g clip-path="url(#p4c9e49ecb1)">
     <!-- elec -->
     <g transform="translate(179.64522 75.686415) scale(0.06 -0.06)">
      <use xlink:href="#DejaVuSans-65"/>
      <use xlink:href="#DejaVuSans-6c" x="61.523438"/>
      <use xlink:href="#DejaVuSans-65" x="89.306641"/>
      <use xlink:href="#DejaVuSans-63" x="150.830078"/>
     </g>
    </g>
   </g>
   <g id="text_39">
    <g clip-path="url(#p4c9e49ecb1)">
     <!-- shredding -->
     <g transform="translate(135.046447 82.777381) scale(0.06 -0.06)">
      <use xlink:href="#DejaVuSans-73"/>
      <use xlink:href="#DejaVuSans-68" x="52.099609"/>
      <use xlink:href="#DejaVuSans-72" x="115.478516"/>
      <use xlink:href="#DejaVuSans-65" x="154.341797"/>
      <use xlink:href="#DejaVuSans-64" x="215.865234"/>
      <use xlink:href="#DejaVuSans-64" x="279.341797"/>
      <use xlink:href="#DejaVuSans-69" x="342.818359"/>
      <use xlink:href="#DejaVuSans-6e" x="370.601562"/>
      <use xlink:href="#DejaVuSans-67" x="433.980469"/>
     </g>
    </g>
    <g clip-path="url(#p4c9e49ecb1)">
     <!-- batt -->
     <g transform="translate(143.875354 89.496068) scale(0.06 -0.06)">
      <use xlink:href="#DejaVuSans-62"/>
      <use xlink:href="#DejaVuSans-61" x="63.476562"/>
      <use xlink:href="#DejaVuSans-74" x="124.755859"/>
      <use xlink:href="#DejaVuSans-74" x="163.964844"/>
     </g>
    </g>
   </g>
   <g id="text_40">
    <g clip-path="url(#p4c9e49ecb1)">
     <!-- smelter -->
     <g transform="translate(109.042365 103.265395) scale(0.06 -0.06)">
      <use xlink:href="#DejaVuSans-73"/>
      <use xlink:href="#DejaVuSans-6d" x="52.099609"/>
      <use xlink:href="#DejaVuSans-65" x="149.511719"/>
      <use xlink:href="#DejaVuSans-6c" x="211.035156"/>
      <use xlink:href="#DejaVuSans-74" x="238.818359"/>
      <use xlink:href="#DejaVuSans-65" x="278.027344"/>
      <use xlink:href="#DejaVuSans-72" x="339.550781"/>
     </g>
    </g>
    <g clip-path="url(#p4c9e49ecb1)">
     <!-- nonferrous -->
     <g transform="translate(104.275646 109.984082) scale(0.06 -0.06)">
      <defs>
       <path id="DejaVuSans-66" d="M 2375 4863 
L 2375 4384 
L 1825 4384 
Q 1516 4384 1395 4259 
Q 1275 4134 1275 3809 
L 1275 3500 
L 2222 3500 
L 2222 3053 
L 1275 3053 
L 1275 0 
L 697 0 
L 697 3053 
L 147 3053 
L 147 3500 
L 697 3500 
L 697 3744 
Q 697 4328 969 4595 
Q 1241 4863 1831 4863 
L 2375 4863 
z
" transform="scale(0.015625)"/>
      </defs>
      <use xlink:href="#DejaVuSans-6e"/>
      <use xlink:href="#DejaVuSans-6f" x="63.378906"/>
      <use xlink:href="#DejaVuSans-6e" x="124.560547"/>
      <use xlink:href="#DejaVuSans-66" x="187.939453"/>
      <use xlink:href="#DejaVuSans-65" x="223.144531"/>
      <use xlink:href="#DejaVuSans-72" x="284.667969"/>
      <use xlink:href="#DejaVuSans-72" x="324.03125"/>
      <use xlink:href="#DejaVuSans-6f" x="362.894531"/>
      <use xlink:href="#DejaVuSans-75" x="424.076172"/>
      <use xlink:href="#DejaVuSans-73" x="487.455078"/>
     </g>
    </g>
   </g>
   <g id="text_41">
    <g clip-path="url(#p4c9e49ecb1)">
     <!-- smelter -->
     <g transform="translate(88.063467 128.912273) scale(0.06 -0.06)">
      <use xlink:href="#DejaVuSans-73"/>
      <use xlink:href="#DejaVuSans-6d" x="52.099609"/>
      <use xlink:href="#DejaVuSans-65" x="149.511719"/>
      <use xlink:href="#DejaVuSans-6c" x="211.035156"/>
      <use xlink:href="#DejaVuSans-74" x="238.818359"/>
      <use xlink:href="#DejaVuSans-65" x="278.027344"/>
      <use xlink:href="#DejaVuSans-72" x="339.550781"/>
     </g>
    </g>
    <g clip-path="url(#p4c9e49ecb1)">
     <!-- ferrous -->
     <g transform="translate(88.934873 135.63096) scale(0.06 -0.06)">
      <use xlink:href="#DejaVuSans-66"/>
      <use xlink:href="#DejaVuSans-65" x="35.205078"/>
      <use xlink:href="#DejaVuSans-72" x="96.728516"/>
      <use xlink:href="#DejaVuSans-72" x="136.091797"/>
      <use xlink:href="#DejaVuSans-6f" x="174.955078"/>
      <use xlink:href="#DejaVuSans-75" x="236.136719"/>
      <use xlink:href="#DejaVuSans-73" x="299.515625"/>
     </g>
    </g>
   </g>
   <g id="text_42">
    <g clip-path="url(#p4c9e49ecb1)">
     <!-- market -->
     <g transform="translate(77.945377 154.456583) scale(0.06 -0.06)">
      <use xlink:href="#DejaVuSans-6d"/>
      <use xlink:href="#DejaVuSans-61" x="97.412109"/>
      <use xlink:href="#DejaVuSans-72" x="158.691406"/>
      <use xlink:href="#DejaVuSans-6b" x="199.804688"/>
      <use xlink:href="#DejaVuSans-65" x="254.089844"/>
      <use xlink:href="#DejaVuSans-74" x="315.613281"/>
     </g>
    </g>
    <g clip-path="url(#p4c9e49ecb1)">
     <!-- waste -->
     <g transform="translate(79.713033 161.17527) scale(0.06 -0.06)">
      <defs>
       <path id="DejaVuSans-77" d="M 269 3500 
L 844 3500 
L 1563 769 
L 2278 3500 
L 2956 3500 
L 3675 769 
L 4391 3500 
L 4966 3500 
L 4050 0 
L 3372 0 
L 2619 2869 
L 1863 0 
L 1184 0 
L 269 3500 
z
" transform="scale(0.015625)"/>
      </defs>
      <use xlink:href="#DejaVuSans-77"/>
      <use xlink:href="#DejaVuSans-61" x="81.787109"/>
      <use xlink:href="#DejaVuSans-73" x="143.066406"/>
      <use xlink:href="#DejaVuSans-74" x="195.166016"/>
      <use xlink:href="#DejaVuSans-65" x="234.375"/>
     </g>
    </g>
    <g clip-path="url(#p4c9e49ecb1)">
     <!-- rubber -->
     <g transform="translate(78.56694 167.893958) scale(0.06 -0.06)">
      <use xlink:href="#DejaVuSans-72"/>
      <use xlink:href="#DejaVuSans-75" x="41.113281"/>
      <use xlink:href="#DejaVuSans-62" x="104.492188"/>
      <use xlink:href="#DejaVuSans-62" x="167.96875"/>
      <use xlink:href="#DejaVuSans-65" x="231.445312"/>
      <use xlink:href="#DejaVuSans-72" x="292.96875"/>
     </g>
    </g>
   </g>
   <g id="text_43">
    <g clip-path="url(#p4c9e49ecb1)">
     <!-- market -->
     <g transform="translate(77.945377 187.832656) scale(0.06 -0.06)">
      <use xlink:href="#DejaVuSans-6d"/>
      <use xlink:href="#DejaVuSans-61" x="97.412109"/>
      <use xlink:href="#DejaVuSans-72" x="158.691406"/>
      <use xlink:href="#DejaVuSans-6b" x="199.804688"/>
      <use xlink:href="#DejaVuSans-65" x="254.089844"/>
      <use xlink:href="#DejaVuSans-74" x="315.613281"/>
     </g>
    </g>
    <g clip-path="url(#p4c9e49ecb1)">
     <!-- ree -->
     <g transform="translate(83.732096 194.551343) scale(0.06 -0.06)">
      <use xlink:href="#DejaVuSans-72"/>
      <use xlink:href="#DejaVuSans-65" x="38.863281"/>
      <use xlink:href="#DejaVuSans-65" x="100.386719"/>
     </g>
    </g>
   </g>
   <g id="text_44">
    <g clip-path="url(#p4c9e49ecb1)">
     <!-- market -->
     <g transform="translate(88.83878 216.736283) scale(0.06 -0.06)">
      <use xlink:href="#DejaVuSans-6d"/>
      <use xlink:href="#DejaVuSans-61" x="97.412109"/>
      <use xlink:href="#DejaVuSans-72" x="158.691406"/>
      <use xlink:href="#DejaVuSans-6b" x="199.804688"/>
      <use xlink:href="#DejaVuSans-65" x="254.089844"/>
      <use xlink:href="#DejaVuSans-74" x="315.613281"/>
     </g>
    </g>
    <g clip-path="url(#p4c9e49ecb1)">
     <!-- lead -->
     <g transform="translate(93.060811 223.454971) scale(0.06 -0.06)">
      <use xlink:href="#DejaVuSans-6c"/>
      <use xlink:href="#DejaVuSans-65" x="27.783203"/>
      <use xlink:href="#DejaVuSans-61" x="89.306641"/>
      <use xlink:href="#DejaVuSans-64" x="150.585938"/>
     </g>
    </g>
   </g>
   <g id="text_45">
    <g clip-path="url(#p4c9e49ecb1)">
     <!-- market -->
     <g transform="translate(109.81766 242.383161) scale(0.06 -0.06)">
      <use xlink:href="#DejaVuSans-6d"/>
      <use xlink:href="#DejaVuSans-61" x="97.412109"/>
      <use xlink:href="#DejaVuSans-72" x="158.691406"/>
      <use xlink:href="#DejaVuSans-6b" x="199.804688"/>
      <use xlink:href="#DejaVuSans-65" x="254.089844"/>
      <use xlink:href="#DejaVuSans-74" x="315.613281"/>
     </g>
    </g>
    <g clip-path="url(#p4c9e49ecb1)">
     <!-- H2SO4 -->
     <g transform="translate(110.122347 249.101849) scale(0.06 -0.06)">
      <defs>
       <path id="DejaVuSans-48" d="M 628 4666 
L 1259 4666 
L 1259 2753 
L 3553 2753 
L 3553 4666 
L 4184 4666 
L 4184 0 
L 3553 0 
L 3553 2222 
L 1259 2222 
L 1259 0 
L 628 0 
L 628 4666 
z
" transform="scale(0.015625)"/>
       <path id="DejaVuSans-32" d="M 1228 531 
L 3431 531 
L 3431 0 
L 469 0 
L 469 531 
Q 828 903 1448 1529 
Q 2069 2156 2228 2338 
Q 2531 2678 2651 2914 
Q 2772 3150 2772 3378 
Q 2772 3750 2511 3984 
Q 2250 4219 1831 4219 
Q 1534 4219 1204 4116 
Q 875 4013 500 3803 
L 500 4441 
Q 881 4594 1212 4672 
Q 1544 4750 1819 4750 
Q 2544 4750 2975 4387 
Q 3406 4025 3406 3419 
Q 3406 3131 3298 2873 
Q 3191 2616 2906 2266 
Q 2828 2175 2409 1742 
Q 1991 1309 1228 531 
z
" transform="scale(0.015625)"/>
       <path id="DejaVuSans-53" d="M 3425 4513 
L 3425 3897 
Q 3066 4069 2747 4153 
Q 2428 4238 2131 4238 
Q 1616 4238 1336 4038 
Q 1056 3838 1056 3469 
Q 1056 3159 1242 3001 
Q 1428 2844 1947 2747 
L 2328 2669 
Q 3034 2534 3370 2195 
Q 3706 1856 3706 1288 
Q 3706 609 3251 259 
Q 2797 -91 1919 -91 
Q 1588 -91 1214 -16 
Q 841 59 441 206 
L 441 856 
Q 825 641 1194 531 
Q 1563 422 1919 422 
Q 2459 422 2753 634 
Q 3047 847 3047 1241 
Q 3047 1584 2836 1778 
Q 2625 1972 2144 2069 
L 1759 2144 
Q 1053 2284 737 2584 
Q 422 2884 422 3419 
Q 422 4038 858 4394 
Q 1294 4750 2059 4750 
Q 2388 4750 2728 4690 
Q 3069 4631 3425 4513 
z
" transform="scale(0.015625)"/>
       <path id="DejaVuSans-4f" d="M 2522 4238 
Q 1834 4238 1429 3725 
Q 1025 3213 1025 2328 
Q 1025 1447 1429 934 
Q 1834 422 2522 422 
Q 3209 422 3611 934 
Q 4013 1447 4013 2328 
Q 4013 3213 3611 3725 
Q 3209 4238 2522 4238 
z
M 2522 4750 
Q 3503 4750 4090 4092 
Q 4678 3434 4678 2328 
Q 4678 1225 4090 567 
Q 3503 -91 2522 -91 
Q 1538 -91 948 565 
Q 359 1222 359 2328 
Q 359 3434 948 4092 
Q 1538 4750 2522 4750 
z
" transform="scale(0.015625)"/>
       <path id="DejaVuSans-34" d="M 2419 4116 
L 825 1625 
L 2419 1625 
L 2419 4116 
z
M 2253 4666 
L 3047 4666 
L 3047 1625 
L 3713 1625 
L 3713 1100 
L 3047 1100 
L 3047 0 
L 2419 0 
L 2419 1100 
L 313 1100 
L 313 1709 
L 2253 4666 
z
" transform="scale(0.015625)"/>
      </defs>
      <use xlink:href="#DejaVuSans-48"/>
      <use xlink:href="#DejaVuSans-32" x="75.195312"/>
      <use xlink:href="#DejaVuSans-53" x="138.818359"/>
      <use xlink:href="#DejaVuSans-4f" x="202.294922"/>
      <use xlink:href="#DejaVuSans-34" x="281.005859"/>
     </g>
    </g>
   </g>
   <g id="text_46">
    <g clip-path="url(#p4c9e49ecb1)">
     <!-- market -->
     <g transform="translate(139.326153 262.871195) scale(0.06 -0.06)">
      <use xlink:href="#DejaVuSans-6d"/>
      <use xlink:href="#DejaVuSans-61" x="97.412109"/>
      <use xlink:href="#DejaVuSans-72" x="158.691406"/>
      <use xlink:href="#DejaVuSans-6b" x="199.804688"/>
      <use xlink:href="#DejaVuSans-65" x="254.089844"/>
      <use xlink:href="#DejaVuSans-74" x="315.613281"/>
     </g>
    </g>
    <g clip-path="url(#p4c9e49ecb1)">
     <!-- nonferrous -->
     <g transform="translate(133.784121 269.589882) scale(0.06 -0.06)">
      <use xlink:href="#DejaVuSans-6e"/>
      <use xlink:href="#DejaVuSans-6f" x="63.378906"/>
      <use xlink:href="#DejaVuSans-6e" x="124.560547"/>
      <use xlink:href="#DejaVuSans-66" x="187.939453"/>
      <use xlink:href="#DejaVuSans-65" x="223.144531"/>
      <use xlink:href="#DejaVuSans-72" x="284.667969"/>
      <use xlink:href="#DejaVuSans-72" x="324.03125"/>
      <use xlink:href="#DejaVuSans-6f" x="362.894531"/>
      <use xlink:href="#DejaVuSans-75" x="424.076172"/>
      <use xlink:href="#DejaVuSans-73" x="487.455078"/>
     </g>
    </g>
   </g>
   <g id="text_47">
    <g clip-path="url(#p4c9e49ecb1)">
     <!-- market -->
     <g transform="translate(175.175694 276.680835) scale(0.06 -0.06)">
      <use xlink:href="#DejaVuSans-6d"/>
      <use xlink:href="#DejaVuSans-61" x="97.412109"/>
      <use xlink:href="#DejaVuSans-72" x="158.691406"/>
      <use xlink:href="#DejaVuSans-6b" x="199.804688"/>
      <use xlink:href="#DejaVuSans-65" x="254.089844"/>
      <use xlink:href="#DejaVuSans-74" x="315.613281"/>
     </g>
    </g>
    <g clip-path="url(#p4c9e49ecb1)">
     <!-- ferrous -->
     <g transform="translate(175.271787 283.399522) scale(0.06 -0.06)">
      <use xlink:href="#DejaVuSans-66"/>
      <use xlink:href="#DejaVuSans-65" x="35.205078"/>
      <use xlink:href="#DejaVuSans-72" x="96.728516"/>
      <use xlink:href="#DejaVuSans-72" x="136.091797"/>
      <use xlink:href="#DejaVuSans-6f" x="174.955078"/>
      <use xlink:href="#DejaVuSans-75" x="236.136719"/>
      <use xlink:href="#DejaVuSans-73" x="299.515625"/>
     </g>
    </g>
   </g>
   <g id="text_48">
    <g clip-path="url(#p4c9e49ecb1)">
     <!-- market -->
     <g transform="translate(214.707506 282.787918) scale(0.06 -0.06)">
      <use xlink:href="#DejaVuSans-6d"/>
      <use xlink:href="#DejaVuSans-61" x="97.412109"/>
      <use xlink:href="#DejaVuSans-72" x="158.691406"/>
      <use xlink:href="#DejaVuSans-6b" x="199.804688"/>
      <use xlink:href="#DejaVuSans-65" x="254.089844"/>
      <use xlink:href="#DejaVuSans-74" x="315.613281"/>
     </g>
    </g>
    <g clip-path="url(#p4c9e49ecb1)">
     <!-- waste -->
     <g transform="translate(216.475163 289.506605) scale(0.06 -0.06)">
      <use xlink:href="#DejaVuSans-77"/>
      <use xlink:href="#DejaVuSans-61" x="81.787109"/>
      <use xlink:href="#DejaVuSans-73" x="143.066406"/>
      <use xlink:href="#DejaVuSans-74" x="195.166016"/>
      <use xlink:href="#DejaVuSans-65" x="234.375"/>
     </g>
    </g>
   </g>
   <g id="text_49">
    <g clip-path="url(#p4c9e49ecb1)">
     <!-- market -->
     <g transform="translate(254.989698 277.380161) scale(0.06 -0.06)">
      <use xlink:href="#DejaVuSans-6d"/>
      <use xlink:href="#DejaVuSans-61" x="97.412109"/>
      <use xlink:href="#DejaVuSans-72" x="158.691406"/>
      <use xlink:href="#DejaVuSans-6b" x="199.804688"/>
      <use xlink:href="#DejaVuSans-65" x="254.089844"/>
      <use xlink:href="#DejaVuSans-74" x="315.613281"/>
     </g>
    </g>
    <g clip-path="url(#p4c9e49ecb1)">
     <!-- waste -->
     <g transform="translate(256.757354 284.098848) scale(0.06 -0.06)">
      <use xlink:href="#DejaVuSans-77"/>
      <use xlink:href="#DejaVuSans-61" x="81.787109"/>
      <use xlink:href="#DejaVuSans-73" x="143.066406"/>
      <use xlink:href="#DejaVuSans-74" x="195.166016"/>
      <use xlink:href="#DejaVuSans-65" x="234.375"/>
     </g>
    </g>
    <g clip-path="url(#p4c9e49ecb1)">
     <!-- glass -->
     <g transform="translate(257.932041 290.817536) scale(0.06 -0.06)">
      <use xlink:href="#DejaVuSans-67"/>
      <use xlink:href="#DejaVuSans-6c" x="63.476562"/>
      <use xlink:href="#DejaVuSans-61" x="91.259766"/>
      <use xlink:href="#DejaVuSans-73" x="152.539062"/>
      <use xlink:href="#DejaVuSans-73" x="204.638672"/>
     </g>
    </g>
   </g>
   <g id="text_50">
    <g clip-path="url(#p4c9e49ecb1)">
     <!-- market -->
     <g transform="translate(293.034723 267.328175) scale(0.06 -0.06)">
      <use xlink:href="#DejaVuSans-6d"/>
      <use xlink:href="#DejaVuSans-61" x="97.412109"/>
      <use xlink:href="#DejaVuSans-72" x="158.691406"/>
      <use xlink:href="#DejaVuSans-6b" x="199.804688"/>
      <use xlink:href="#DejaVuSans-65" x="254.089844"/>
      <use xlink:href="#DejaVuSans-74" x="315.613281"/>
     </g>
    </g>
    <g clip-path="url(#p4c9e49ecb1)">
     <!-- waste -->
     <g transform="translate(294.802379 274.046863) scale(0.06 -0.06)">
      <use xlink:href="#DejaVuSans-77"/>
      <use xlink:href="#DejaVuSans-61" x="81.787109"/>
      <use xlink:href="#DejaVuSans-73" x="143.066406"/>
      <use xlink:href="#DejaVuSans-74" x="195.166016"/>
      <use xlink:href="#DejaVuSans-65" x="234.375"/>
     </g>
    </g>
    <g clip-path="url(#p4c9e49ecb1)">
     <!-- plastic -->
     <g transform="translate(293.880817 280.76555) scale(0.06 -0.06)">
      <use xlink:href="#DejaVuSans-70"/>
      <use xlink:href="#DejaVuSans-6c" x="63.476562"/>
      <use xlink:href="#DejaVuSans-61" x="91.259766"/>
      <use xlink:href="#DejaVuSans-73" x="152.539062"/>
      <use xlink:href="#DejaVuSans-74" x="204.638672"/>
      <use xlink:href="#DejaVuSans-69" x="243.847656"/>
      <use xlink:href="#DejaVuSans-63" x="271.630859"/>
     </g>
    </g>
   </g>
   <g id="text_51">
    <g clip-path="url(#p4c9e49ecb1)">
     <!-- market -->
     <g transform="translate(326.020966 250.018122) scale(0.06 -0.06)">
      <use xlink:href="#DejaVuSans-6d"/>
      <use xlink:href="#DejaVuSans-61" x="97.412109"/>
      <use xlink:href="#DejaVuSans-72" x="158.691406"/>
      <use xlink:href="#DejaVuSans-6b" x="199.804688"/>
      <use xlink:href="#DejaVuSans-65" x="254.089844"/>
      <use xlink:href="#DejaVuSans-74" x="315.613281"/>
     </g>
    </g>
    <g clip-path="url(#p4c9e49ecb1)">
     <!-- waste -->
     <g transform="translate(327.788622 256.73681) scale(0.06 -0.06)">
      <use xlink:href="#DejaVuSans-77"/>
      <use xlink:href="#DejaVuSans-61" x="81.787109"/>
      <use xlink:href="#DejaVuSans-73" x="143.066406"/>
      <use xlink:href="#DejaVuSans-74" x="195.166016"/>
      <use xlink:href="#DejaVuSans-65" x="234.375"/>
     </g>
    </g>
    <g clip-path="url(#p4c9e49ecb1)">
     <!-- slag -->
     <g transform="translate(330.526122 263.455497) scale(0.06 -0.06)">
      <use xlink:href="#DejaVuSans-73"/>
      <use xlink:href="#DejaVuSans-6c" x="52.099609"/>
      <use xlink:href="#DejaVuSans-61" x="79.882812"/>
      <use xlink:href="#DejaVuSans-67" x="141.162109"/>
     </g>
    </g>
   </g>
   <g id="text_52">
    <g clip-path="url(#p4c9e49ecb1)">
     <!-- market -->
     <g transform="translate(351.501975 226.733805) scale(0.06 -0.06)">
      <use xlink:href="#DejaVuSans-6d"/>
      <use xlink:href="#DejaVuSans-61" x="97.412109"/>
      <use xlink:href="#DejaVuSans-72" x="158.691406"/>
      <use xlink:href="#DejaVuSans-6b" x="199.804688"/>
      <use xlink:href="#DejaVuSans-65" x="254.089844"/>
      <use xlink:href="#DejaVuSans-74" x="315.613281"/>
     </g>
    </g>
    <g clip-path="url(#p4c9e49ecb1)">
     <!-- waste -->
     <g transform="translate(353.269631 233.452493) scale(0.06 -0.06)">
      <use xlink:href="#DejaVuSans-77"/>
      <use xlink:href="#DejaVuSans-61" x="81.787109"/>
      <use xlink:href="#DejaVuSans-73" x="143.066406"/>
      <use xlink:href="#DejaVuSans-74" x="195.166016"/>
      <use xlink:href="#DejaVuSans-65" x="234.375"/>
     </g>
    </g>
    <g clip-path="url(#p4c9e49ecb1)">
     <!-- oil -->
     <g transform="translate(358.64385 240.17118) scale(0.06 -0.06)">
      <use xlink:href="#DejaVuSans-6f"/>
      <use xlink:href="#DejaVuSans-69" x="61.181641"/>
      <use xlink:href="#DejaVuSans-6c" x="88.964844"/>
     </g>
    </g>
   </g>
   <g id="text_53">
    <g clip-path="url(#p4c9e49ecb1)">
     <!-- PutOnMarket -->
     <g transform="translate(358.825157 202.561416) scale(0.06 -0.06)">
      <defs>
       <path id="DejaVuSans-50" d="M 1259 4147 
L 1259 2394 
L 2053 2394 
Q 2494 2394 2734 2622 
Q 2975 2850 2975 3272 
Q 2975 3691 2734 3919 
Q 2494 4147 2053 4147 
L 1259 4147 
z
M 628 4666 
L 2053 4666 
Q 2838 4666 3239 4311 
Q 3641 3956 3641 3272 
Q 3641 2581 3239 2228 
Q 2838 1875 2053 1875 
L 1259 1875 
L 1259 0 
L 628 0 
L 628 4666 
z
" transform="scale(0.015625)"/>
       <path id="DejaVuSans-4d" d="M 628 4666 
L 1569 4666 
L 2759 1491 
L 3956 4666 
L 4897 4666 
L 4897 0 
L 4281 0 
L 4281 4097 
L 3078 897 
L 2444 897 
L 1241 4097 
L 1241 0 
L 628 0 
L 628 4666 
z
" transform="scale(0.015625)"/>
      </defs>
      <use xlink:href="#DejaVuSans-50"/>
      <use xlink:href="#DejaVuSans-75" x="58.552734"/>
      <use xlink:href="#DejaVuSans-74" x="121.931641"/>
      <use xlink:href="#DejaVuSans-4f" x="161.140625"/>
      <use xlink:href="#DejaVuSans-6e" x="239.851562"/>
      <use xlink:href="#DejaVuSans-4d" x="303.230469"/>
      <use xlink:href="#DejaVuSans-61" x="389.509766"/>
      <use xlink:href="#DejaVuSans-72" x="450.789062"/>
      <use xlink:href="#DejaVuSans-6b" x="491.902344"/>
      <use xlink:href="#DejaVuSans-65" x="546.1875"/>
      <use xlink:href="#DejaVuSans-74" x="607.710938"/>
     </g>
    </g>
    <g clip-path="url(#p4c9e49ecb1)">
     <!-- ICE -->
     <g transform="translate(373.356876 209.280103) scale(0.06 -0.06)">
      <use xlink:href="#DejaVuSans-49"/>
      <use xlink:href="#DejaVuSans-43" x="29.492188"/>
      <use xlink:href="#DejaVuSans-45" x="99.316406"/>
     </g>
    </g>
   </g>
   <g id="text_54">
    <!-- FutuRaM recovery model: process network -->
    <g transform="translate(108.1875 35.472) scale(0.12 -0.12)">
     <defs>
      <path id="DejaVuSans-46" d="M 628 4666 
L 3309 4666 
L 3309 4134 
L 1259 4134 
L 1259 2759 
L 3109 2759 
L 3109 2228 
L 1259 2228 
L 1259 0 
L 628 0 
L 628 4666 
z
" transform="scale(0.015625)"/>
      <path id="DejaVuSans-52" d="M 2841 2188 
Q 3044 2119 3236 1894 
Q 3428 1669 3622 1275 
L 4263 0 
L 3584 0 
L 2988 1197 
Q 2756 1666 2539 1819 
Q 2322 1972 1947 1972 
L 1259 1972 
L 1259 0 
L 628 0 
L 628 4666 
L 2053 4666 
Q 2853 4666 3247 4331 
Q 3641 3997 3641 3322 
Q 3641 2881 3436 2590 
Q 3231 2300 2841 2188 
z
M 1259 4147 
L 1259 2491 
L 2053 2491 
Q 2509 2491 2742 2702 
Q 2975 2913 2975 3322 
Q 2975 3731 2742 3939 
Q 2509 4147 2053 4147 
L 1259 4147 
z
" transform="scale(0.015625)"/>
      <path id="DejaVuSans-20" transform="scale(0.015625)"/>
      <path id="DejaVuSans-76" d="M 191 3500 
L 800 3500 
L 1894 563 
L 2988 3500 
L 3597 3500 
L 2284 0 
L 1503 0 
L 191 3500 
z
" transform="scale(0.015625)"/>
      <path id="DejaVuSans-3a" d="M 750 794 
L 1409 794 
L 1409 0 
L 750 0 
L 750 794 
z
M 750 3309 
L 1409 3309 
L 1409 2516 
L 750 2516 
L 750 3309 
z
" transform="scale(0.015625)"/>
     </defs>
     <use xlink:href="#DejaVuSans-46"/>
     <use xlink:href="#DejaVuSans-75" x="52.019531"/>
     <use xlink:href="#DejaVuSans-74" x="115.398438"/>
     <use xlink:href="#DejaVuSans-75" x="154.607422"/>
     <use xlink:href="#DejaVuSans-52" x="217.986328"/>
     <use xlink:href="#DejaVuSans-61" x="285.21875"/>
     <use xlink:href="#DejaVuSans-4d" x="346.498047"/>
     <use xlink:href="#DejaVuSans-20" x="432.777344"/>
     <use xlink:href="#DejaVuSans-72" x="464.564453"/>
     <use xlink:href="#DejaVuSans-65" x="503.427734"/>
     <use xlink:href="#DejaVuSans-63" x="564.951172"/>
     <use xlink:href="#DejaVuSans-6f" x="619.931641"/>
     <use xlink:href="#DejaVuSans-76" x="681.113281"/>
     <use xlink:href="#DejaVuSans-65" x="740.292969"/>
     <use xlink:href="#DejaVuSans-72" x="801.816406"/>
     <use xlink:href="#DejaVuSans-79" x="842.929688"/>
     <use xlink:href="#DejaVuSans-20" x="902.109375"/>
     <use xlink:href="#DejaVuSans-6d" x="933.896484"/>
     <use xlink:href="#DejaVuSans-6f" x="1031.308594"/>
     <use xlink:href="#DejaVuSans-64" x="1092.490234"/>
     <use xlink:href="#DejaVuSans-65" x="1155.966797"/>
     <use xlink:href="#DejaVuSans-6c" x="1217.490234"/>
     <use xlink:href="#DejaVuSans-3a" x="1245.273438"/>
     <use xlink:href="#DejaVuSans-20" x="1278.964844"/>
     <use xlink:href="#DejaVuSans-70" x="1310.751953"/>
     <use xlink:href="#DejaVuSans-72" x="1374.228516"/>
     <use xlink:href="#DejaVuSans-6f" x="1413.091797"/>
     <use xlink:href="#DejaVuSans-63" x="1474.273438"/>
     <use xlink:href="#DejaVuSans-65" x="1529.253906"/>
     <use xlink:href="#DejaVuSans-73" x="1590.777344"/>
     <use xlink:href="#DejaVuSans-73" x="1642.876953"/>
     <use xlink:href="#DejaVuSans-20" x="1694.976562"/>
     <use xlink:href="#DejaVuSans-6e" x="1726.763672"/>
     <use xlink:href="#DejaVuSans-65" x="1790.142578"/>
     <use xlink:href="#DejaVuSans-74" x="1851.666016"/>
     <use xlink:href="#DejaVuSans-77" x="1890.875"/>
     <use xlink:href="#DejaVuSans-6f" x="1972.662109"/>
     <use xlink:href="#DejaVuSans-72" x="2033.84375"/>
     <use xlink:href="#DejaVuSans-6b" x="2074.957031"/>
    </g>
   </g>
  </g>
 </g>
 <defs>
  <clipPath id="p4c9e49ecb1">
   <rect x="57.6" y="41.472" width="357.12" height="266.112"/>
  </clipPath>
 </defs>
</svg>
